<mxfile host="app.diagrams.net" agent="Mozilla/5.0 (Macintosh; Intel Mac OS X 10_15_7) AppleWebKit/537.36 (KHTML, like Gecko) Chrome/139.0.0.0 Safari/537.36" version="28.1.2">
  <diagram name="Page-1" id="gXeu2FjgX_CzUIVk4DHG">
    <mxGraphModel dx="1878" dy="771" grid="0" gridSize="10" guides="1" tooltips="1" connect="1" arrows="1" fold="1" page="1" pageScale="1" pageWidth="1100" pageHeight="850" background="#000000" math="0" shadow="0">
      <root>
        <mxCell id="0" />
        <mxCell id="1" parent="0" />
        <mxCell id="MFDmtG4y0ROqI6nAq0eG-46" value="-++" style="rounded=0;whiteSpace=wrap;html=1;fillColor=none;strokeColor=#FFFFFF;dashed=1;strokeWidth=3;" parent="1" vertex="1">
          <mxGeometry x="470" y="140" width="1410" height="540" as="geometry" />
        </mxCell>
        <mxCell id="MFDmtG4y0ROqI6nAq0eG-38" value="" style="shape=image;verticalLabelPosition=bottom;labelBackgroundColor=default;verticalAlign=top;aspect=fixed;imageAspect=0;image=https://upload.wikimedia.org/wikipedia/commons/thumb/f/ff/Snowflake_Logo.svg/2560px-Snowflake_Logo.svg.png;" parent="1" vertex="1">
          <mxGeometry x="1120" y="160" width="196.55" height="47.01" as="geometry" />
        </mxCell>
        <mxCell id="MFDmtG4y0ROqI6nAq0eG-57" value="" style="group" parent="1" vertex="1" connectable="0">
          <mxGeometry x="250" y="240" width="150" height="360" as="geometry" />
        </mxCell>
        <mxCell id="MFDmtG4y0ROqI6nAq0eG-6" value="" style="group" parent="MFDmtG4y0ROqI6nAq0eG-57" vertex="1" connectable="0">
          <mxGeometry width="150" height="320" as="geometry" />
        </mxCell>
        <mxCell id="MFDmtG4y0ROqI6nAq0eG-56" value="" style="group" parent="MFDmtG4y0ROqI6nAq0eG-6" vertex="1" connectable="0">
          <mxGeometry width="150" height="320" as="geometry" />
        </mxCell>
        <mxCell id="MFDmtG4y0ROqI6nAq0eG-1" value="" style="rounded=0;whiteSpace=wrap;html=1;" parent="MFDmtG4y0ROqI6nAq0eG-56" vertex="1">
          <mxGeometry width="150" height="320" as="geometry" />
        </mxCell>
        <mxCell id="MFDmtG4y0ROqI6nAq0eG-2" value="Product.csv" style="shape=image;verticalLabelPosition=bottom;labelBackgroundColor=#ffffff;verticalAlign=top;aspect=fixed;imageAspect=0;image=data:image/svg+xml,PHN2ZyB4bWxuczpjYz0iaHR0cDovL2NyZWF0aXZlY29tbW9ucy5vcmcvbnMjIiB4bWxuczpkYz0iaHR0cDovL3B1cmwub3JnL2RjL2VsZW1lbnRzLzEuMS8iIHhtbG5zOmlua3NjYXBlPSJodHRwOi8vd3d3Lmlua3NjYXBlLm9yZy9uYW1lc3BhY2VzL2lua3NjYXBlIiB4bWxuczpyZGY9Imh0dHA6Ly93d3cudzMub3JnLzE5OTkvMDIvMjItcmRmLXN5bnRheC1ucyMiIHhtbG5zOnNvZGlwb2RpPSJodHRwOi8vc29kaXBvZGkuc291cmNlZm9yZ2UubmV0L0RURC9zb2RpcG9kaS0wLmR0ZCIgeG1sbnM6c3ZnPSJodHRwOi8vd3d3LnczLm9yZy8yMDAwL3N2ZyIgeG1sbnM9Imh0dHA6Ly93d3cudzMub3JnLzIwMDAvc3ZnIiB4bWxuczp4bGluaz0iaHR0cDovL3d3dy53My5vcmcvMTk5OS94bGluayIgdmVyc2lvbj0iMS4xIiBpZD0ic3ZnNDUyOTgiIGlua3NjYXBlOnZlcnNpb249IjAuOTIuMyAoMjQwNTU0NiwgMjAxOC0wMy0xMSkiIHNvZGlwb2RpOmRvY25hbWU9ImZpbGVzLnN2ZyIgeD0iMHB4IiB5PSIwcHgiIHZpZXdCb3g9IjAgMCAzMy45OSAzOS4wNiIgc3R5bGU9ImVuYWJsZS1iYWNrZ3JvdW5kOm5ldyAwIDAgMzMuOTkgMzkuMDY7IiB4bWw6c3BhY2U9InByZXNlcnZlIj4mI3hhOzxzb2RpcG9kaTpuYW1lZHZpZXcgYm9yZGVyY29sb3I9IiM2NjY2NjYiIGJvcmRlcm9wYWNpdHk9IjEiIGZpdC1tYXJnaW4tYm90dG9tPSIwIiBmaXQtbWFyZ2luLWxlZnQ9IjAiIGZpdC1tYXJnaW4tcmlnaHQ9IjAiIGZpdC1tYXJnaW4tdG9wPSIwIiBncmlkdG9sZXJhbmNlPSIxMCIgZ3VpZGV0b2xlcmFuY2U9IjEwIiBpZD0ibmFtZWR2aWV3NDUzMDAiIGlua3NjYXBlOmN1cnJlbnQtbGF5ZXI9InN2ZzQ1Mjk4IiBpbmtzY2FwZTpjeD0iMjIuNjYyNTYxIiBpbmtzY2FwZTpjeT0iMjYuMjExMjIiIGlua3NjYXBlOnBhZ2VvcGFjaXR5PSIwIiBpbmtzY2FwZTpwYWdlc2hhZG93PSIyIiBpbmtzY2FwZTp3aW5kb3ctaGVpZ2h0PSIxMDE3IiBpbmtzY2FwZTp3aW5kb3ctbWF4aW1pemVkPSIxIiBpbmtzY2FwZTp3aW5kb3ctd2lkdGg9IjE5MjAiIGlua3NjYXBlOndpbmRvdy14PSItOCIgaW5rc2NhcGU6d2luZG93LXk9Ii04IiBpbmtzY2FwZTp6b29tPSIxNS45Mjg0OTYiIG9iamVjdHRvbGVyYW5jZT0iMTAiIHBhZ2Vjb2xvcj0iI2ZmZmZmZiIgc2hvd2dyaWQ9ImZhbHNlIj4mI3hhOwk8L3NvZGlwb2RpOm5hbWVkdmlldz4mI3hhOzxnIGlkPSJnNDUyOTYiIHRyYW5zZm9ybT0idHJhbnNsYXRlKC0wLjc1LC0xLjAwNzY5KSI+JiN4YTsJPHRpdGxlIGlkPSJ0aXRsZTQ1MjExIj5QYWdlLTE8L3RpdGxlPiYjeGE7CTxnIGlkPSJncm91cDQ1NjMtMSIgdHJhbnNmb3JtPSJ0cmFuc2xhdGUoMS41LC0xLjUpIj4mI3hhOwkJPHRpdGxlIGlkPSJ0aXRsZTQ1MjEzIj5GaWxlczwvdGl0bGU+JiN4YTsJCTxnIGlkPSJncm91cDQ1NjQtMiIgdHJhbnNmb3JtPSJ0cmFuc2xhdGUoMCwtNi4wOTIzMSkiPiYjeGE7CQkJPHRpdGxlIGlkPSJ0aXRsZTQ1MjE1Ij5nMTU5MTA8L3RpdGxlPiYjeGE7CQkJPGcgaWQ9InNoYXBlNDU2NS0zIiB0cmFuc2Zvcm09InRyYW5zbGF0ZSgxMy4yLC0yMS44MzA4KSI+JiN4YTsJCQkJPHRpdGxlIGlkPSJ0aXRsZTQ1MjE3Ij5wb2x5Z29uMTU5MDA8L3RpdGxlPiYjeGE7CQkJCTxwYXRoIGlkPSJwYXRoNDUyMTkiIGlua3NjYXBlOmNvbm5lY3Rvci1jdXJ2YXR1cmU9IjAiIHN0eWxlPSJmaWxsOiNFNUU1RTU7IiBkPSJNMTAuNjYsNDAuODJIMFYzMC42N0wxMC42Niw0MC44MnoiLz4mI3hhOwkJCTwvZz4mI3hhOwkJCTxnIGlkPSJzaGFwZTQ1NjYtNSIgdHJhbnNmb3JtPSJ0cmFuc2xhdGUoMS4wMTUzOCwtMS4wMTUzOCkiPiYjeGE7CQkJCTx0aXRsZSBpZD0idGl0bGU0NTIyMiI+cmVjdDE1OTAyPC90aXRsZT4mI3hhOwkJCQk8cmVjdCBpZD0icmVjdDQ1MjI0IiB4PSIwIiB5PSIxMC4zNiIgc3R5bGU9ImZpbGw6I0ZGRkZGRjsiIHdpZHRoPSIxMi4xOCIgaGVpZ2h0PSIzMC40NiIvPiYjeGE7CQkJPC9nPiYjeGE7CQkJPGcgaWQ9InNoYXBlNDU2Ny03Ij4mI3hhOwkJCQk8dGl0bGUgaWQ9InRpdGxlNDUyMjciPnBhdGgxNTkwNDwvdGl0bGU+JiN4YTsJCQkJJiN4YTsJCQkJCTxwYXRoIGlkPSJwYXRoNDUyMjkiIGlua3NjYXBlOmNvbm5lY3Rvci1jdXJ2YXR1cmU9IjAiIHN0eWxlPSJmaWxsOm5vbmU7c3Ryb2tlOiM1NTZBOEE7c3Ryb2tlLXdpZHRoOjEuNTtzdHJva2UtbWl0ZXJsaW1pdDozOyIgZD0iICAgICAgTTEzLjE0LDkuMzVIMC41MUMwLjIzLDkuMzUsMCw5LjU4LDAsOS44NmwwLDMwLjQ2YzAsMC4yOCwwLjIzLDAuNTEsMC41MSwwLjUxbDIyLjM0LTAuMDFjMC4yOCwwLDAuNTEtMC4yMywwLjUxLTAuNTEgICAgICBsLTAuMDEtMjEuMTNMMTMuMTQsOS4zNXoiLz4mI3hhOwkJCTwvZz4mI3hhOwkJCTxnIGlkPSJzaGFwZTQ1NjgtOSIgdHJhbnNmb3JtPSJ0cmFuc2xhdGUoMC41MDc2OTIsLTAuNTA3NjkyKSI+JiN4YTsJCQkJPHRpdGxlIGlkPSJ0aXRsZTQ1MjMyIj5yZWN0MTU5MDY8L3RpdGxlPiYjeGE7CQkJCTxyZWN0IGlkPSJyZWN0NDUyMzQiIHg9IjAiIHk9IjEwLjM2IiBzdHlsZT0iZmlsbDojRTVFNUU1OyIgd2lkdGg9IjguMTIiIGhlaWdodD0iMzAuNDYiLz4mI3hhOwkJCTwvZz4mI3hhOwkJCTxnIGlkPSJzaGFwZTQ1NjktMTEiIHRyYW5zZm9ybT0idHJhbnNsYXRlKDEzLjIsLTIxLjU3NjkpIj4mI3hhOwkJCQk8dGl0bGUgaWQ9InRpdGxlNDUyMzciPnBvbHlsaW5lMTU5MDg8L3RpdGxlPiYjeGE7CQkJCTxwYXRoIGlkPSJwYXRoNDUyMzkiIGlua3NjYXBlOmNvbm5lY3Rvci1jdXJ2YXR1cmU9IjAiIHN0eWxlPSJmaWxsOm5vbmU7IiBkPSJNMCwzMC42N3YxMC4xNWgxMC42NkwwLDMwLjY3eiIvPiYjeGE7CQkJCSYjeGE7CQkJCQk8cGF0aCBpZD0icGF0aDQ1MjQxIiBpbmtzY2FwZTpjb25uZWN0b3ItY3VydmF0dXJlPSIwIiBzdHlsZT0iZmlsbDpub25lO3N0cm9rZTojNTU2QThBO3N0cm9rZS13aWR0aDoxLjU7c3Ryb2tlLW1pdGVybGltaXQ6MzsiIGQ9IiAgICAgIE0wLDMwLjY3djEwLjE1aDEwLjY2Ii8+JiN4YTsJCQk8L2c+JiN4YTsJCTwvZz4mI3hhOwkJPGcgaWQ9Imdyb3VwNDU3MC0xNCIgdHJhbnNmb3JtPSJ0cmFuc2xhdGUoOS4xMzg0NikiPiYjeGE7CQkJPHRpdGxlIGlkPSJ0aXRsZTQ1MjQ1Ij5nMTU5MzA8L3RpdGxlPiYjeGE7CQkJPGcgaWQ9InNoYXBlNDU3MS0xNSI+JiN4YTsJCQkJPHRpdGxlIGlkPSJ0aXRsZTQ1MjQ3Ij5wb2x5Z29uMTU5MTI8L3RpdGxlPiYjeGE7CQkJCTxwYXRoIGlkPSJwYXRoNDUyNDkiIGlua3NjYXBlOmNvbm5lY3Rvci1jdXJ2YXR1cmU9IjAiIHN0eWxlPSJmaWxsOiNGRkZGRkY7IiBkPSJNMjMuODYsNDAuODJIMFY4Ljg0aDEzLjM1bDEwLjUxLDEwLjAxVjQwLjgyeiIvPiYjeGE7CQkJPC9nPiYjeGE7CQkJPGcgaWQ9InNoYXBlNDU3Mi0xNyIgdHJhbnNmb3JtPSJ0cmFuc2xhdGUoMTMuMiwtMjEuODMwOCkiPiYjeGE7CQkJCTx0aXRsZSBpZD0idGl0bGU0NTI1MiI+cG9seWdvbjE1OTE0PC90aXRsZT4mI3hhOwkJCQk8cGF0aCBpZD0icGF0aDQ1MjU0IiBpbmtzY2FwZTpjb25uZWN0b3ItY3VydmF0dXJlPSIwIiBzdHlsZT0iZmlsbDojNTVEMkY2OyIgZD0iTTEwLjY2LDQwLjgySDBWMzAuNjdMMTAuNjYsNDAuODJ6Ii8+JiN4YTsJCQk8L2c+JiN4YTsJCQk8ZyBpZD0ic2hhcGU0NTczLTE5Ij4mI3hhOwkJCQk8dGl0bGUgaWQ9InRpdGxlNDUyNTciPnBhdGgxNTkxNjwvdGl0bGU+JiN4YTsJCQkJJiN4YTsJCQkJCTxwYXRoIGlkPSJwYXRoNDUyNTkiIGlua3NjYXBlOmNvbm5lY3Rvci1jdXJ2YXR1cmU9IjAiIHN0eWxlPSJmaWxsOm5vbmU7c3Ryb2tlOiM1NTZBOEE7c3Ryb2tlLXdpZHRoOjEuNTtzdHJva2UtbWl0ZXJsaW1pdDozOyIgZD0iICAgICAgTTEzLjM5LDkuMzVIMC43NEMwLjQ3LDkuMzUsMCw5LjMxLDAsOS41OHYzMC41YzAuMDksMC4zNiwwLjM4LDAuNjUsMC43NCwwLjc0aDIyLjM4YzAuMjcsMCwwLjIzLTAuNDcsMC4yMy0wLjc0VjE4LjkzICAgICAgTDEzLjM5LDkuMzV6Ii8+JiN4YTsJCQk8L2c+JiN4YTsJCQk8ZyBpZD0ic2hhcGU0NTc0LTIxIiB0cmFuc2Zvcm09InRyYW5zbGF0ZSgwLjUwNzY5MiwtMC41MDc2OTIpIj4mI3hhOwkJCQk8dGl0bGUgaWQ9InRpdGxlNDUyNjIiPnJlY3QxNTkxODwvdGl0bGU+JiN4YTsJCQkJPHJlY3QgaWQ9InJlY3Q0NTI2NCIgeD0iMCIgeT0iMTAuMzYiIHN0eWxlPSJmaWxsOiNFNUU1RTU7IiB3aWR0aD0iOC4xMiIgaGVpZ2h0PSIzMC40NiIvPiYjeGE7CQkJPC9nPiYjeGE7CQkJPGcgaWQ9InNoYXBlNDU3NS0yMyIgdHJhbnNmb3JtPSJ0cmFuc2xhdGUoMTIuNjkyMywtMjEuMzIzMSkiPiYjeGE7CQkJCTx0aXRsZSBpZD0idGl0bGU0NTI2NyI+cG9seWxpbmUxNTkyMDwvdGl0bGU+JiN4YTsJCQkJPHBhdGggaWQ9InBhdGg0NTI2OSIgaW5rc2NhcGU6Y29ubmVjdG9yLWN1cnZhdHVyZT0iMCIgc3R5bGU9ImZpbGw6bm9uZTsiIGQ9Ik0wLDMwLjY3djEwLjE1aDEwLjY2TDAsMzAuNjd6Ii8+JiN4YTsJCQkJJiN4YTsJCQkJCTxwYXRoIGlkPSJwYXRoNDUyNzEiIGlua3NjYXBlOmNvbm5lY3Rvci1jdXJ2YXR1cmU9IjAiIHN0eWxlPSJmaWxsOm5vbmU7c3Ryb2tlOiM1NTZBOEE7c3Ryb2tlLXdpZHRoOjEuNTtzdHJva2UtbWl0ZXJsaW1pdDozOyIgZD0iICAgICAgTTAsMzAuNjd2MTAuMTVoMTAuNjYiLz4mI3hhOwkJCTwvZz4mI3hhOwkJCTxnIGlkPSJzaGFwZTQ1NzYtMjYiIHRyYW5zZm9ybT0idHJhbnNsYXRlKDMuNTUzODUsLTIwLjgxNTQpIj4mI3hhOwkJCQk8dGl0bGUgaWQ9InRpdGxlNDUyNzQiPmxpbmUxNTkyMjwvdGl0bGU+JiN4YTsJCQkJJiN4YTsJCQkJCTxwYXRoIGlkPSJwYXRoNDUyNzYiIGlua3NjYXBlOmNvbm5lY3Rvci1jdXJ2YXR1cmU9IjAiIHN0eWxlPSJmaWxsOm5vbmU7c3Ryb2tlOiNBN0E5QUM7c3Ryb2tlLXdpZHRoOjEuNTtzdHJva2UtbWl0ZXJsaW1pdDozOyIgZD0iICAgICAgTTAsNDAuODJoNi42Ii8+JiN4YTsJCQk8L2c+JiN4YTsJCQk8ZyBpZD0ic2hhcGU0NTc3LTI5IiB0cmFuc2Zvcm09InRyYW5zbGF0ZSgzLjU1Mzg1LC0xNi4yNDYyKSI+JiN4YTsJCQkJPHRpdGxlIGlkPSJ0aXRsZTQ1Mjc5Ij5saW5lMTU5MjQ8L3RpdGxlPiYjeGE7CQkJCSYjeGE7CQkJCQk8cGF0aCBpZD0icGF0aDQ1MjgxIiBpbmtzY2FwZTpjb25uZWN0b3ItY3VydmF0dXJlPSIwIiBzdHlsZT0iZmlsbDpub25lO3N0cm9rZTojQTdBOUFDO3N0cm9rZS13aWR0aDoxLjU7c3Ryb2tlLW1pdGVybGltaXQ6MzsiIGQ9IiAgICAgIE0wLDQwLjgyaDE2LjI1Ii8+JiN4YTsJCQk8L2c+JiN4YTsJCQk8ZyBpZD0ic2hhcGU0NTc4LTMyIiB0cmFuc2Zvcm09InRyYW5zbGF0ZSgzLjU1Mzg1LC0xMS42NzY5KSI+JiN4YTsJCQkJPHRpdGxlIGlkPSJ0aXRsZTQ1Mjg0Ij5saW5lMTU5MjY8L3RpdGxlPiYjeGE7CQkJCSYjeGE7CQkJCQk8cGF0aCBpZD0icGF0aDQ1Mjg2IiBpbmtzY2FwZTpjb25uZWN0b3ItY3VydmF0dXJlPSIwIiBzdHlsZT0iZmlsbDpub25lO3N0cm9rZTojQTdBOUFDO3N0cm9rZS13aWR0aDoxLjU7c3Ryb2tlLW1pdGVybGltaXQ6MzsiIGQ9IiAgICAgIE0wLDQwLjgyaDE2LjI1Ii8+JiN4YTsJCQk8L2c+JiN4YTsJCQk8ZyBpZD0ic2hhcGU0NTc5LTM1IiB0cmFuc2Zvcm09InRyYW5zbGF0ZSgzLjU1Mzg1LC03LjEwNzY5KSI+JiN4YTsJCQkJPHRpdGxlIGlkPSJ0aXRsZTQ1Mjg5Ij5saW5lMTU5Mjg8L3RpdGxlPiYjeGE7CQkJCSYjeGE7CQkJCQk8cGF0aCBpZD0icGF0aDQ1MjkxIiBpbmtzY2FwZTpjb25uZWN0b3ItY3VydmF0dXJlPSIwIiBzdHlsZT0iZmlsbDpub25lO3N0cm9rZTojQTdBOUFDO3N0cm9rZS13aWR0aDoxLjU7c3Ryb2tlLW1pdGVybGltaXQ6MzsiIGQ9IiAgICAgIE0wLDQwLjgyaDE2LjI1Ii8+JiN4YTsJCQk8L2c+JiN4YTsJCTwvZz4mI3hhOwk8L2c+JiN4YTs8L2c+JiN4YTs8L3N2Zz4=;" parent="MFDmtG4y0ROqI6nAq0eG-56" vertex="1">
          <mxGeometry x="50" y="60" width="34" height="39" as="geometry" />
        </mxCell>
        <mxCell id="MFDmtG4y0ROqI6nAq0eG-4" value="Customer.csv" style="shape=image;verticalLabelPosition=bottom;labelBackgroundColor=#ffffff;verticalAlign=top;aspect=fixed;imageAspect=0;image=data:image/svg+xml,PHN2ZyB4bWxuczpjYz0iaHR0cDovL2NyZWF0aXZlY29tbW9ucy5vcmcvbnMjIiB4bWxuczpkYz0iaHR0cDovL3B1cmwub3JnL2RjL2VsZW1lbnRzLzEuMS8iIHhtbG5zOmlua3NjYXBlPSJodHRwOi8vd3d3Lmlua3NjYXBlLm9yZy9uYW1lc3BhY2VzL2lua3NjYXBlIiB4bWxuczpyZGY9Imh0dHA6Ly93d3cudzMub3JnLzE5OTkvMDIvMjItcmRmLXN5bnRheC1ucyMiIHhtbG5zOnNvZGlwb2RpPSJodHRwOi8vc29kaXBvZGkuc291cmNlZm9yZ2UubmV0L0RURC9zb2RpcG9kaS0wLmR0ZCIgeG1sbnM6c3ZnPSJodHRwOi8vd3d3LnczLm9yZy8yMDAwL3N2ZyIgeG1sbnM9Imh0dHA6Ly93d3cudzMub3JnLzIwMDAvc3ZnIiB4bWxuczp4bGluaz0iaHR0cDovL3d3dy53My5vcmcvMTk5OS94bGluayIgdmVyc2lvbj0iMS4xIiBpZD0ic3ZnNDUyOTgiIGlua3NjYXBlOnZlcnNpb249IjAuOTIuMyAoMjQwNTU0NiwgMjAxOC0wMy0xMSkiIHNvZGlwb2RpOmRvY25hbWU9ImZpbGVzLnN2ZyIgeD0iMHB4IiB5PSIwcHgiIHZpZXdCb3g9IjAgMCAzMy45OSAzOS4wNiIgc3R5bGU9ImVuYWJsZS1iYWNrZ3JvdW5kOm5ldyAwIDAgMzMuOTkgMzkuMDY7IiB4bWw6c3BhY2U9InByZXNlcnZlIj4mI3hhOzxzb2RpcG9kaTpuYW1lZHZpZXcgYm9yZGVyY29sb3I9IiM2NjY2NjYiIGJvcmRlcm9wYWNpdHk9IjEiIGZpdC1tYXJnaW4tYm90dG9tPSIwIiBmaXQtbWFyZ2luLWxlZnQ9IjAiIGZpdC1tYXJnaW4tcmlnaHQ9IjAiIGZpdC1tYXJnaW4tdG9wPSIwIiBncmlkdG9sZXJhbmNlPSIxMCIgZ3VpZGV0b2xlcmFuY2U9IjEwIiBpZD0ibmFtZWR2aWV3NDUzMDAiIGlua3NjYXBlOmN1cnJlbnQtbGF5ZXI9InN2ZzQ1Mjk4IiBpbmtzY2FwZTpjeD0iMjIuNjYyNTYxIiBpbmtzY2FwZTpjeT0iMjYuMjExMjIiIGlua3NjYXBlOnBhZ2VvcGFjaXR5PSIwIiBpbmtzY2FwZTpwYWdlc2hhZG93PSIyIiBpbmtzY2FwZTp3aW5kb3ctaGVpZ2h0PSIxMDE3IiBpbmtzY2FwZTp3aW5kb3ctbWF4aW1pemVkPSIxIiBpbmtzY2FwZTp3aW5kb3ctd2lkdGg9IjE5MjAiIGlua3NjYXBlOndpbmRvdy14PSItOCIgaW5rc2NhcGU6d2luZG93LXk9Ii04IiBpbmtzY2FwZTp6b29tPSIxNS45Mjg0OTYiIG9iamVjdHRvbGVyYW5jZT0iMTAiIHBhZ2Vjb2xvcj0iI2ZmZmZmZiIgc2hvd2dyaWQ9ImZhbHNlIj4mI3hhOwk8L3NvZGlwb2RpOm5hbWVkdmlldz4mI3hhOzxnIGlkPSJnNDUyOTYiIHRyYW5zZm9ybT0idHJhbnNsYXRlKC0wLjc1LC0xLjAwNzY5KSI+JiN4YTsJPHRpdGxlIGlkPSJ0aXRsZTQ1MjExIj5QYWdlLTE8L3RpdGxlPiYjeGE7CTxnIGlkPSJncm91cDQ1NjMtMSIgdHJhbnNmb3JtPSJ0cmFuc2xhdGUoMS41LC0xLjUpIj4mI3hhOwkJPHRpdGxlIGlkPSJ0aXRsZTQ1MjEzIj5GaWxlczwvdGl0bGU+JiN4YTsJCTxnIGlkPSJncm91cDQ1NjQtMiIgdHJhbnNmb3JtPSJ0cmFuc2xhdGUoMCwtNi4wOTIzMSkiPiYjeGE7CQkJPHRpdGxlIGlkPSJ0aXRsZTQ1MjE1Ij5nMTU5MTA8L3RpdGxlPiYjeGE7CQkJPGcgaWQ9InNoYXBlNDU2NS0zIiB0cmFuc2Zvcm09InRyYW5zbGF0ZSgxMy4yLC0yMS44MzA4KSI+JiN4YTsJCQkJPHRpdGxlIGlkPSJ0aXRsZTQ1MjE3Ij5wb2x5Z29uMTU5MDA8L3RpdGxlPiYjeGE7CQkJCTxwYXRoIGlkPSJwYXRoNDUyMTkiIGlua3NjYXBlOmNvbm5lY3Rvci1jdXJ2YXR1cmU9IjAiIHN0eWxlPSJmaWxsOiNFNUU1RTU7IiBkPSJNMTAuNjYsNDAuODJIMFYzMC42N0wxMC42Niw0MC44MnoiLz4mI3hhOwkJCTwvZz4mI3hhOwkJCTxnIGlkPSJzaGFwZTQ1NjYtNSIgdHJhbnNmb3JtPSJ0cmFuc2xhdGUoMS4wMTUzOCwtMS4wMTUzOCkiPiYjeGE7CQkJCTx0aXRsZSBpZD0idGl0bGU0NTIyMiI+cmVjdDE1OTAyPC90aXRsZT4mI3hhOwkJCQk8cmVjdCBpZD0icmVjdDQ1MjI0IiB4PSIwIiB5PSIxMC4zNiIgc3R5bGU9ImZpbGw6I0ZGRkZGRjsiIHdpZHRoPSIxMi4xOCIgaGVpZ2h0PSIzMC40NiIvPiYjeGE7CQkJPC9nPiYjeGE7CQkJPGcgaWQ9InNoYXBlNDU2Ny03Ij4mI3hhOwkJCQk8dGl0bGUgaWQ9InRpdGxlNDUyMjciPnBhdGgxNTkwNDwvdGl0bGU+JiN4YTsJCQkJJiN4YTsJCQkJCTxwYXRoIGlkPSJwYXRoNDUyMjkiIGlua3NjYXBlOmNvbm5lY3Rvci1jdXJ2YXR1cmU9IjAiIHN0eWxlPSJmaWxsOm5vbmU7c3Ryb2tlOiM1NTZBOEE7c3Ryb2tlLXdpZHRoOjEuNTtzdHJva2UtbWl0ZXJsaW1pdDozOyIgZD0iICAgICAgTTEzLjE0LDkuMzVIMC41MUMwLjIzLDkuMzUsMCw5LjU4LDAsOS44NmwwLDMwLjQ2YzAsMC4yOCwwLjIzLDAuNTEsMC41MSwwLjUxbDIyLjM0LTAuMDFjMC4yOCwwLDAuNTEtMC4yMywwLjUxLTAuNTEgICAgICBsLTAuMDEtMjEuMTNMMTMuMTQsOS4zNXoiLz4mI3hhOwkJCTwvZz4mI3hhOwkJCTxnIGlkPSJzaGFwZTQ1NjgtOSIgdHJhbnNmb3JtPSJ0cmFuc2xhdGUoMC41MDc2OTIsLTAuNTA3NjkyKSI+JiN4YTsJCQkJPHRpdGxlIGlkPSJ0aXRsZTQ1MjMyIj5yZWN0MTU5MDY8L3RpdGxlPiYjeGE7CQkJCTxyZWN0IGlkPSJyZWN0NDUyMzQiIHg9IjAiIHk9IjEwLjM2IiBzdHlsZT0iZmlsbDojRTVFNUU1OyIgd2lkdGg9IjguMTIiIGhlaWdodD0iMzAuNDYiLz4mI3hhOwkJCTwvZz4mI3hhOwkJCTxnIGlkPSJzaGFwZTQ1NjktMTEiIHRyYW5zZm9ybT0idHJhbnNsYXRlKDEzLjIsLTIxLjU3NjkpIj4mI3hhOwkJCQk8dGl0bGUgaWQ9InRpdGxlNDUyMzciPnBvbHlsaW5lMTU5MDg8L3RpdGxlPiYjeGE7CQkJCTxwYXRoIGlkPSJwYXRoNDUyMzkiIGlua3NjYXBlOmNvbm5lY3Rvci1jdXJ2YXR1cmU9IjAiIHN0eWxlPSJmaWxsOm5vbmU7IiBkPSJNMCwzMC42N3YxMC4xNWgxMC42NkwwLDMwLjY3eiIvPiYjeGE7CQkJCSYjeGE7CQkJCQk8cGF0aCBpZD0icGF0aDQ1MjQxIiBpbmtzY2FwZTpjb25uZWN0b3ItY3VydmF0dXJlPSIwIiBzdHlsZT0iZmlsbDpub25lO3N0cm9rZTojNTU2QThBO3N0cm9rZS13aWR0aDoxLjU7c3Ryb2tlLW1pdGVybGltaXQ6MzsiIGQ9IiAgICAgIE0wLDMwLjY3djEwLjE1aDEwLjY2Ii8+JiN4YTsJCQk8L2c+JiN4YTsJCTwvZz4mI3hhOwkJPGcgaWQ9Imdyb3VwNDU3MC0xNCIgdHJhbnNmb3JtPSJ0cmFuc2xhdGUoOS4xMzg0NikiPiYjeGE7CQkJPHRpdGxlIGlkPSJ0aXRsZTQ1MjQ1Ij5nMTU5MzA8L3RpdGxlPiYjeGE7CQkJPGcgaWQ9InNoYXBlNDU3MS0xNSI+JiN4YTsJCQkJPHRpdGxlIGlkPSJ0aXRsZTQ1MjQ3Ij5wb2x5Z29uMTU5MTI8L3RpdGxlPiYjeGE7CQkJCTxwYXRoIGlkPSJwYXRoNDUyNDkiIGlua3NjYXBlOmNvbm5lY3Rvci1jdXJ2YXR1cmU9IjAiIHN0eWxlPSJmaWxsOiNGRkZGRkY7IiBkPSJNMjMuODYsNDAuODJIMFY4Ljg0aDEzLjM1bDEwLjUxLDEwLjAxVjQwLjgyeiIvPiYjeGE7CQkJPC9nPiYjeGE7CQkJPGcgaWQ9InNoYXBlNDU3Mi0xNyIgdHJhbnNmb3JtPSJ0cmFuc2xhdGUoMTMuMiwtMjEuODMwOCkiPiYjeGE7CQkJCTx0aXRsZSBpZD0idGl0bGU0NTI1MiI+cG9seWdvbjE1OTE0PC90aXRsZT4mI3hhOwkJCQk8cGF0aCBpZD0icGF0aDQ1MjU0IiBpbmtzY2FwZTpjb25uZWN0b3ItY3VydmF0dXJlPSIwIiBzdHlsZT0iZmlsbDojNTVEMkY2OyIgZD0iTTEwLjY2LDQwLjgySDBWMzAuNjdMMTAuNjYsNDAuODJ6Ii8+JiN4YTsJCQk8L2c+JiN4YTsJCQk8ZyBpZD0ic2hhcGU0NTczLTE5Ij4mI3hhOwkJCQk8dGl0bGUgaWQ9InRpdGxlNDUyNTciPnBhdGgxNTkxNjwvdGl0bGU+JiN4YTsJCQkJJiN4YTsJCQkJCTxwYXRoIGlkPSJwYXRoNDUyNTkiIGlua3NjYXBlOmNvbm5lY3Rvci1jdXJ2YXR1cmU9IjAiIHN0eWxlPSJmaWxsOm5vbmU7c3Ryb2tlOiM1NTZBOEE7c3Ryb2tlLXdpZHRoOjEuNTtzdHJva2UtbWl0ZXJsaW1pdDozOyIgZD0iICAgICAgTTEzLjM5LDkuMzVIMC43NEMwLjQ3LDkuMzUsMCw5LjMxLDAsOS41OHYzMC41YzAuMDksMC4zNiwwLjM4LDAuNjUsMC43NCwwLjc0aDIyLjM4YzAuMjcsMCwwLjIzLTAuNDcsMC4yMy0wLjc0VjE4LjkzICAgICAgTDEzLjM5LDkuMzV6Ii8+JiN4YTsJCQk8L2c+JiN4YTsJCQk8ZyBpZD0ic2hhcGU0NTc0LTIxIiB0cmFuc2Zvcm09InRyYW5zbGF0ZSgwLjUwNzY5MiwtMC41MDc2OTIpIj4mI3hhOwkJCQk8dGl0bGUgaWQ9InRpdGxlNDUyNjIiPnJlY3QxNTkxODwvdGl0bGU+JiN4YTsJCQkJPHJlY3QgaWQ9InJlY3Q0NTI2NCIgeD0iMCIgeT0iMTAuMzYiIHN0eWxlPSJmaWxsOiNFNUU1RTU7IiB3aWR0aD0iOC4xMiIgaGVpZ2h0PSIzMC40NiIvPiYjeGE7CQkJPC9nPiYjeGE7CQkJPGcgaWQ9InNoYXBlNDU3NS0yMyIgdHJhbnNmb3JtPSJ0cmFuc2xhdGUoMTIuNjkyMywtMjEuMzIzMSkiPiYjeGE7CQkJCTx0aXRsZSBpZD0idGl0bGU0NTI2NyI+cG9seWxpbmUxNTkyMDwvdGl0bGU+JiN4YTsJCQkJPHBhdGggaWQ9InBhdGg0NTI2OSIgaW5rc2NhcGU6Y29ubmVjdG9yLWN1cnZhdHVyZT0iMCIgc3R5bGU9ImZpbGw6bm9uZTsiIGQ9Ik0wLDMwLjY3djEwLjE1aDEwLjY2TDAsMzAuNjd6Ii8+JiN4YTsJCQkJJiN4YTsJCQkJCTxwYXRoIGlkPSJwYXRoNDUyNzEiIGlua3NjYXBlOmNvbm5lY3Rvci1jdXJ2YXR1cmU9IjAiIHN0eWxlPSJmaWxsOm5vbmU7c3Ryb2tlOiM1NTZBOEE7c3Ryb2tlLXdpZHRoOjEuNTtzdHJva2UtbWl0ZXJsaW1pdDozOyIgZD0iICAgICAgTTAsMzAuNjd2MTAuMTVoMTAuNjYiLz4mI3hhOwkJCTwvZz4mI3hhOwkJCTxnIGlkPSJzaGFwZTQ1NzYtMjYiIHRyYW5zZm9ybT0idHJhbnNsYXRlKDMuNTUzODUsLTIwLjgxNTQpIj4mI3hhOwkJCQk8dGl0bGUgaWQ9InRpdGxlNDUyNzQiPmxpbmUxNTkyMjwvdGl0bGU+JiN4YTsJCQkJJiN4YTsJCQkJCTxwYXRoIGlkPSJwYXRoNDUyNzYiIGlua3NjYXBlOmNvbm5lY3Rvci1jdXJ2YXR1cmU9IjAiIHN0eWxlPSJmaWxsOm5vbmU7c3Ryb2tlOiNBN0E5QUM7c3Ryb2tlLXdpZHRoOjEuNTtzdHJva2UtbWl0ZXJsaW1pdDozOyIgZD0iICAgICAgTTAsNDAuODJoNi42Ii8+JiN4YTsJCQk8L2c+JiN4YTsJCQk8ZyBpZD0ic2hhcGU0NTc3LTI5IiB0cmFuc2Zvcm09InRyYW5zbGF0ZSgzLjU1Mzg1LC0xNi4yNDYyKSI+JiN4YTsJCQkJPHRpdGxlIGlkPSJ0aXRsZTQ1Mjc5Ij5saW5lMTU5MjQ8L3RpdGxlPiYjeGE7CQkJCSYjeGE7CQkJCQk8cGF0aCBpZD0icGF0aDQ1MjgxIiBpbmtzY2FwZTpjb25uZWN0b3ItY3VydmF0dXJlPSIwIiBzdHlsZT0iZmlsbDpub25lO3N0cm9rZTojQTdBOUFDO3N0cm9rZS13aWR0aDoxLjU7c3Ryb2tlLW1pdGVybGltaXQ6MzsiIGQ9IiAgICAgIE0wLDQwLjgyaDE2LjI1Ii8+JiN4YTsJCQk8L2c+JiN4YTsJCQk8ZyBpZD0ic2hhcGU0NTc4LTMyIiB0cmFuc2Zvcm09InRyYW5zbGF0ZSgzLjU1Mzg1LC0xMS42NzY5KSI+JiN4YTsJCQkJPHRpdGxlIGlkPSJ0aXRsZTQ1Mjg0Ij5saW5lMTU5MjY8L3RpdGxlPiYjeGE7CQkJCSYjeGE7CQkJCQk8cGF0aCBpZD0icGF0aDQ1Mjg2IiBpbmtzY2FwZTpjb25uZWN0b3ItY3VydmF0dXJlPSIwIiBzdHlsZT0iZmlsbDpub25lO3N0cm9rZTojQTdBOUFDO3N0cm9rZS13aWR0aDoxLjU7c3Ryb2tlLW1pdGVybGltaXQ6MzsiIGQ9IiAgICAgIE0wLDQwLjgyaDE2LjI1Ii8+JiN4YTsJCQk8L2c+JiN4YTsJCQk8ZyBpZD0ic2hhcGU0NTc5LTM1IiB0cmFuc2Zvcm09InRyYW5zbGF0ZSgzLjU1Mzg1LC03LjEwNzY5KSI+JiN4YTsJCQkJPHRpdGxlIGlkPSJ0aXRsZTQ1Mjg5Ij5saW5lMTU5Mjg8L3RpdGxlPiYjeGE7CQkJCSYjeGE7CQkJCQk8cGF0aCBpZD0icGF0aDQ1MjkxIiBpbmtzY2FwZTpjb25uZWN0b3ItY3VydmF0dXJlPSIwIiBzdHlsZT0iZmlsbDpub25lO3N0cm9rZTojQTdBOUFDO3N0cm9rZS13aWR0aDoxLjU7c3Ryb2tlLW1pdGVybGltaXQ6MzsiIGQ9IiAgICAgIE0wLDQwLjgyaDE2LjI1Ii8+JiN4YTsJCQk8L2c+JiN4YTsJCTwvZz4mI3hhOwk8L2c+JiN4YTs8L2c+JiN4YTs8L3N2Zz4=;" parent="MFDmtG4y0ROqI6nAq0eG-56" vertex="1">
          <mxGeometry x="53" y="138" width="34" height="39" as="geometry" />
        </mxCell>
        <mxCell id="Y4VW1V2xxWTK7mL-d7kX-1" style="edgeStyle=orthogonalEdgeStyle;rounded=0;orthogonalLoop=1;jettySize=auto;html=1;exitX=0.5;exitY=1;exitDx=0;exitDy=0;" edge="1" parent="MFDmtG4y0ROqI6nAq0eG-56" source="MFDmtG4y0ROqI6nAq0eG-4" target="MFDmtG4y0ROqI6nAq0eG-4">
          <mxGeometry relative="1" as="geometry" />
        </mxCell>
        <mxCell id="Y4VW1V2xxWTK7mL-d7kX-2" value="Order.csv" style="shape=image;verticalLabelPosition=bottom;labelBackgroundColor=#ffffff;verticalAlign=top;aspect=fixed;imageAspect=0;image=data:image/svg+xml,PHN2ZyB4bWxuczpjYz0iaHR0cDovL2NyZWF0aXZlY29tbW9ucy5vcmcvbnMjIiB4bWxuczpkYz0iaHR0cDovL3B1cmwub3JnL2RjL2VsZW1lbnRzLzEuMS8iIHhtbG5zOmlua3NjYXBlPSJodHRwOi8vd3d3Lmlua3NjYXBlLm9yZy9uYW1lc3BhY2VzL2lua3NjYXBlIiB4bWxuczpyZGY9Imh0dHA6Ly93d3cudzMub3JnLzE5OTkvMDIvMjItcmRmLXN5bnRheC1ucyMiIHhtbG5zOnNvZGlwb2RpPSJodHRwOi8vc29kaXBvZGkuc291cmNlZm9yZ2UubmV0L0RURC9zb2RpcG9kaS0wLmR0ZCIgeG1sbnM6c3ZnPSJodHRwOi8vd3d3LnczLm9yZy8yMDAwL3N2ZyIgeG1sbnM9Imh0dHA6Ly93d3cudzMub3JnLzIwMDAvc3ZnIiB4bWxuczp4bGluaz0iaHR0cDovL3d3dy53My5vcmcvMTk5OS94bGluayIgdmVyc2lvbj0iMS4xIiBpZD0ic3ZnNDUyOTgiIGlua3NjYXBlOnZlcnNpb249IjAuOTIuMyAoMjQwNTU0NiwgMjAxOC0wMy0xMSkiIHNvZGlwb2RpOmRvY25hbWU9ImZpbGVzLnN2ZyIgeD0iMHB4IiB5PSIwcHgiIHZpZXdCb3g9IjAgMCAzMy45OSAzOS4wNiIgc3R5bGU9ImVuYWJsZS1iYWNrZ3JvdW5kOm5ldyAwIDAgMzMuOTkgMzkuMDY7IiB4bWw6c3BhY2U9InByZXNlcnZlIj4mI3hhOzxzb2RpcG9kaTpuYW1lZHZpZXcgYm9yZGVyY29sb3I9IiM2NjY2NjYiIGJvcmRlcm9wYWNpdHk9IjEiIGZpdC1tYXJnaW4tYm90dG9tPSIwIiBmaXQtbWFyZ2luLWxlZnQ9IjAiIGZpdC1tYXJnaW4tcmlnaHQ9IjAiIGZpdC1tYXJnaW4tdG9wPSIwIiBncmlkdG9sZXJhbmNlPSIxMCIgZ3VpZGV0b2xlcmFuY2U9IjEwIiBpZD0ibmFtZWR2aWV3NDUzMDAiIGlua3NjYXBlOmN1cnJlbnQtbGF5ZXI9InN2ZzQ1Mjk4IiBpbmtzY2FwZTpjeD0iMjIuNjYyNTYxIiBpbmtzY2FwZTpjeT0iMjYuMjExMjIiIGlua3NjYXBlOnBhZ2VvcGFjaXR5PSIwIiBpbmtzY2FwZTpwYWdlc2hhZG93PSIyIiBpbmtzY2FwZTp3aW5kb3ctaGVpZ2h0PSIxMDE3IiBpbmtzY2FwZTp3aW5kb3ctbWF4aW1pemVkPSIxIiBpbmtzY2FwZTp3aW5kb3ctd2lkdGg9IjE5MjAiIGlua3NjYXBlOndpbmRvdy14PSItOCIgaW5rc2NhcGU6d2luZG93LXk9Ii04IiBpbmtzY2FwZTp6b29tPSIxNS45Mjg0OTYiIG9iamVjdHRvbGVyYW5jZT0iMTAiIHBhZ2Vjb2xvcj0iI2ZmZmZmZiIgc2hvd2dyaWQ9ImZhbHNlIj4mI3hhOwk8L3NvZGlwb2RpOm5hbWVkdmlldz4mI3hhOzxnIGlkPSJnNDUyOTYiIHRyYW5zZm9ybT0idHJhbnNsYXRlKC0wLjc1LC0xLjAwNzY5KSI+JiN4YTsJPHRpdGxlIGlkPSJ0aXRsZTQ1MjExIj5QYWdlLTE8L3RpdGxlPiYjeGE7CTxnIGlkPSJncm91cDQ1NjMtMSIgdHJhbnNmb3JtPSJ0cmFuc2xhdGUoMS41LC0xLjUpIj4mI3hhOwkJPHRpdGxlIGlkPSJ0aXRsZTQ1MjEzIj5GaWxlczwvdGl0bGU+JiN4YTsJCTxnIGlkPSJncm91cDQ1NjQtMiIgdHJhbnNmb3JtPSJ0cmFuc2xhdGUoMCwtNi4wOTIzMSkiPiYjeGE7CQkJPHRpdGxlIGlkPSJ0aXRsZTQ1MjE1Ij5nMTU5MTA8L3RpdGxlPiYjeGE7CQkJPGcgaWQ9InNoYXBlNDU2NS0zIiB0cmFuc2Zvcm09InRyYW5zbGF0ZSgxMy4yLC0yMS44MzA4KSI+JiN4YTsJCQkJPHRpdGxlIGlkPSJ0aXRsZTQ1MjE3Ij5wb2x5Z29uMTU5MDA8L3RpdGxlPiYjeGE7CQkJCTxwYXRoIGlkPSJwYXRoNDUyMTkiIGlua3NjYXBlOmNvbm5lY3Rvci1jdXJ2YXR1cmU9IjAiIHN0eWxlPSJmaWxsOiNFNUU1RTU7IiBkPSJNMTAuNjYsNDAuODJIMFYzMC42N0wxMC42Niw0MC44MnoiLz4mI3hhOwkJCTwvZz4mI3hhOwkJCTxnIGlkPSJzaGFwZTQ1NjYtNSIgdHJhbnNmb3JtPSJ0cmFuc2xhdGUoMS4wMTUzOCwtMS4wMTUzOCkiPiYjeGE7CQkJCTx0aXRsZSBpZD0idGl0bGU0NTIyMiI+cmVjdDE1OTAyPC90aXRsZT4mI3hhOwkJCQk8cmVjdCBpZD0icmVjdDQ1MjI0IiB4PSIwIiB5PSIxMC4zNiIgc3R5bGU9ImZpbGw6I0ZGRkZGRjsiIHdpZHRoPSIxMi4xOCIgaGVpZ2h0PSIzMC40NiIvPiYjeGE7CQkJPC9nPiYjeGE7CQkJPGcgaWQ9InNoYXBlNDU2Ny03Ij4mI3hhOwkJCQk8dGl0bGUgaWQ9InRpdGxlNDUyMjciPnBhdGgxNTkwNDwvdGl0bGU+JiN4YTsJCQkJJiN4YTsJCQkJCTxwYXRoIGlkPSJwYXRoNDUyMjkiIGlua3NjYXBlOmNvbm5lY3Rvci1jdXJ2YXR1cmU9IjAiIHN0eWxlPSJmaWxsOm5vbmU7c3Ryb2tlOiM1NTZBOEE7c3Ryb2tlLXdpZHRoOjEuNTtzdHJva2UtbWl0ZXJsaW1pdDozOyIgZD0iICAgICAgTTEzLjE0LDkuMzVIMC41MUMwLjIzLDkuMzUsMCw5LjU4LDAsOS44NmwwLDMwLjQ2YzAsMC4yOCwwLjIzLDAuNTEsMC41MSwwLjUxbDIyLjM0LTAuMDFjMC4yOCwwLDAuNTEtMC4yMywwLjUxLTAuNTEgICAgICBsLTAuMDEtMjEuMTNMMTMuMTQsOS4zNXoiLz4mI3hhOwkJCTwvZz4mI3hhOwkJCTxnIGlkPSJzaGFwZTQ1NjgtOSIgdHJhbnNmb3JtPSJ0cmFuc2xhdGUoMC41MDc2OTIsLTAuNTA3NjkyKSI+JiN4YTsJCQkJPHRpdGxlIGlkPSJ0aXRsZTQ1MjMyIj5yZWN0MTU5MDY8L3RpdGxlPiYjeGE7CQkJCTxyZWN0IGlkPSJyZWN0NDUyMzQiIHg9IjAiIHk9IjEwLjM2IiBzdHlsZT0iZmlsbDojRTVFNUU1OyIgd2lkdGg9IjguMTIiIGhlaWdodD0iMzAuNDYiLz4mI3hhOwkJCTwvZz4mI3hhOwkJCTxnIGlkPSJzaGFwZTQ1NjktMTEiIHRyYW5zZm9ybT0idHJhbnNsYXRlKDEzLjIsLTIxLjU3NjkpIj4mI3hhOwkJCQk8dGl0bGUgaWQ9InRpdGxlNDUyMzciPnBvbHlsaW5lMTU5MDg8L3RpdGxlPiYjeGE7CQkJCTxwYXRoIGlkPSJwYXRoNDUyMzkiIGlua3NjYXBlOmNvbm5lY3Rvci1jdXJ2YXR1cmU9IjAiIHN0eWxlPSJmaWxsOm5vbmU7IiBkPSJNMCwzMC42N3YxMC4xNWgxMC42NkwwLDMwLjY3eiIvPiYjeGE7CQkJCSYjeGE7CQkJCQk8cGF0aCBpZD0icGF0aDQ1MjQxIiBpbmtzY2FwZTpjb25uZWN0b3ItY3VydmF0dXJlPSIwIiBzdHlsZT0iZmlsbDpub25lO3N0cm9rZTojNTU2QThBO3N0cm9rZS13aWR0aDoxLjU7c3Ryb2tlLW1pdGVybGltaXQ6MzsiIGQ9IiAgICAgIE0wLDMwLjY3djEwLjE1aDEwLjY2Ii8+JiN4YTsJCQk8L2c+JiN4YTsJCTwvZz4mI3hhOwkJPGcgaWQ9Imdyb3VwNDU3MC0xNCIgdHJhbnNmb3JtPSJ0cmFuc2xhdGUoOS4xMzg0NikiPiYjeGE7CQkJPHRpdGxlIGlkPSJ0aXRsZTQ1MjQ1Ij5nMTU5MzA8L3RpdGxlPiYjeGE7CQkJPGcgaWQ9InNoYXBlNDU3MS0xNSI+JiN4YTsJCQkJPHRpdGxlIGlkPSJ0aXRsZTQ1MjQ3Ij5wb2x5Z29uMTU5MTI8L3RpdGxlPiYjeGE7CQkJCTxwYXRoIGlkPSJwYXRoNDUyNDkiIGlua3NjYXBlOmNvbm5lY3Rvci1jdXJ2YXR1cmU9IjAiIHN0eWxlPSJmaWxsOiNGRkZGRkY7IiBkPSJNMjMuODYsNDAuODJIMFY4Ljg0aDEzLjM1bDEwLjUxLDEwLjAxVjQwLjgyeiIvPiYjeGE7CQkJPC9nPiYjeGE7CQkJPGcgaWQ9InNoYXBlNDU3Mi0xNyIgdHJhbnNmb3JtPSJ0cmFuc2xhdGUoMTMuMiwtMjEuODMwOCkiPiYjeGE7CQkJCTx0aXRsZSBpZD0idGl0bGU0NTI1MiI+cG9seWdvbjE1OTE0PC90aXRsZT4mI3hhOwkJCQk8cGF0aCBpZD0icGF0aDQ1MjU0IiBpbmtzY2FwZTpjb25uZWN0b3ItY3VydmF0dXJlPSIwIiBzdHlsZT0iZmlsbDojNTVEMkY2OyIgZD0iTTEwLjY2LDQwLjgySDBWMzAuNjdMMTAuNjYsNDAuODJ6Ii8+JiN4YTsJCQk8L2c+JiN4YTsJCQk8ZyBpZD0ic2hhcGU0NTczLTE5Ij4mI3hhOwkJCQk8dGl0bGUgaWQ9InRpdGxlNDUyNTciPnBhdGgxNTkxNjwvdGl0bGU+JiN4YTsJCQkJJiN4YTsJCQkJCTxwYXRoIGlkPSJwYXRoNDUyNTkiIGlua3NjYXBlOmNvbm5lY3Rvci1jdXJ2YXR1cmU9IjAiIHN0eWxlPSJmaWxsOm5vbmU7c3Ryb2tlOiM1NTZBOEE7c3Ryb2tlLXdpZHRoOjEuNTtzdHJva2UtbWl0ZXJsaW1pdDozOyIgZD0iICAgICAgTTEzLjM5LDkuMzVIMC43NEMwLjQ3LDkuMzUsMCw5LjMxLDAsOS41OHYzMC41YzAuMDksMC4zNiwwLjM4LDAuNjUsMC43NCwwLjc0aDIyLjM4YzAuMjcsMCwwLjIzLTAuNDcsMC4yMy0wLjc0VjE4LjkzICAgICAgTDEzLjM5LDkuMzV6Ii8+JiN4YTsJCQk8L2c+JiN4YTsJCQk8ZyBpZD0ic2hhcGU0NTc0LTIxIiB0cmFuc2Zvcm09InRyYW5zbGF0ZSgwLjUwNzY5MiwtMC41MDc2OTIpIj4mI3hhOwkJCQk8dGl0bGUgaWQ9InRpdGxlNDUyNjIiPnJlY3QxNTkxODwvdGl0bGU+JiN4YTsJCQkJPHJlY3QgaWQ9InJlY3Q0NTI2NCIgeD0iMCIgeT0iMTAuMzYiIHN0eWxlPSJmaWxsOiNFNUU1RTU7IiB3aWR0aD0iOC4xMiIgaGVpZ2h0PSIzMC40NiIvPiYjeGE7CQkJPC9nPiYjeGE7CQkJPGcgaWQ9InNoYXBlNDU3NS0yMyIgdHJhbnNmb3JtPSJ0cmFuc2xhdGUoMTIuNjkyMywtMjEuMzIzMSkiPiYjeGE7CQkJCTx0aXRsZSBpZD0idGl0bGU0NTI2NyI+cG9seWxpbmUxNTkyMDwvdGl0bGU+JiN4YTsJCQkJPHBhdGggaWQ9InBhdGg0NTI2OSIgaW5rc2NhcGU6Y29ubmVjdG9yLWN1cnZhdHVyZT0iMCIgc3R5bGU9ImZpbGw6bm9uZTsiIGQ9Ik0wLDMwLjY3djEwLjE1aDEwLjY2TDAsMzAuNjd6Ii8+JiN4YTsJCQkJJiN4YTsJCQkJCTxwYXRoIGlkPSJwYXRoNDUyNzEiIGlua3NjYXBlOmNvbm5lY3Rvci1jdXJ2YXR1cmU9IjAiIHN0eWxlPSJmaWxsOm5vbmU7c3Ryb2tlOiM1NTZBOEE7c3Ryb2tlLXdpZHRoOjEuNTtzdHJva2UtbWl0ZXJsaW1pdDozOyIgZD0iICAgICAgTTAsMzAuNjd2MTAuMTVoMTAuNjYiLz4mI3hhOwkJCTwvZz4mI3hhOwkJCTxnIGlkPSJzaGFwZTQ1NzYtMjYiIHRyYW5zZm9ybT0idHJhbnNsYXRlKDMuNTUzODUsLTIwLjgxNTQpIj4mI3hhOwkJCQk8dGl0bGUgaWQ9InRpdGxlNDUyNzQiPmxpbmUxNTkyMjwvdGl0bGU+JiN4YTsJCQkJJiN4YTsJCQkJCTxwYXRoIGlkPSJwYXRoNDUyNzYiIGlua3NjYXBlOmNvbm5lY3Rvci1jdXJ2YXR1cmU9IjAiIHN0eWxlPSJmaWxsOm5vbmU7c3Ryb2tlOiNBN0E5QUM7c3Ryb2tlLXdpZHRoOjEuNTtzdHJva2UtbWl0ZXJsaW1pdDozOyIgZD0iICAgICAgTTAsNDAuODJoNi42Ii8+JiN4YTsJCQk8L2c+JiN4YTsJCQk8ZyBpZD0ic2hhcGU0NTc3LTI5IiB0cmFuc2Zvcm09InRyYW5zbGF0ZSgzLjU1Mzg1LC0xNi4yNDYyKSI+JiN4YTsJCQkJPHRpdGxlIGlkPSJ0aXRsZTQ1Mjc5Ij5saW5lMTU5MjQ8L3RpdGxlPiYjeGE7CQkJCSYjeGE7CQkJCQk8cGF0aCBpZD0icGF0aDQ1MjgxIiBpbmtzY2FwZTpjb25uZWN0b3ItY3VydmF0dXJlPSIwIiBzdHlsZT0iZmlsbDpub25lO3N0cm9rZTojQTdBOUFDO3N0cm9rZS13aWR0aDoxLjU7c3Ryb2tlLW1pdGVybGltaXQ6MzsiIGQ9IiAgICAgIE0wLDQwLjgyaDE2LjI1Ii8+JiN4YTsJCQk8L2c+JiN4YTsJCQk8ZyBpZD0ic2hhcGU0NTc4LTMyIiB0cmFuc2Zvcm09InRyYW5zbGF0ZSgzLjU1Mzg1LC0xMS42NzY5KSI+JiN4YTsJCQkJPHRpdGxlIGlkPSJ0aXRsZTQ1Mjg0Ij5saW5lMTU5MjY8L3RpdGxlPiYjeGE7CQkJCSYjeGE7CQkJCQk8cGF0aCBpZD0icGF0aDQ1Mjg2IiBpbmtzY2FwZTpjb25uZWN0b3ItY3VydmF0dXJlPSIwIiBzdHlsZT0iZmlsbDpub25lO3N0cm9rZTojQTdBOUFDO3N0cm9rZS13aWR0aDoxLjU7c3Ryb2tlLW1pdGVybGltaXQ6MzsiIGQ9IiAgICAgIE0wLDQwLjgyaDE2LjI1Ii8+JiN4YTsJCQk8L2c+JiN4YTsJCQk8ZyBpZD0ic2hhcGU0NTc5LTM1IiB0cmFuc2Zvcm09InRyYW5zbGF0ZSgzLjU1Mzg1LC03LjEwNzY5KSI+JiN4YTsJCQkJPHRpdGxlIGlkPSJ0aXRsZTQ1Mjg5Ij5saW5lMTU5Mjg8L3RpdGxlPiYjeGE7CQkJCSYjeGE7CQkJCQk8cGF0aCBpZD0icGF0aDQ1MjkxIiBpbmtzY2FwZTpjb25uZWN0b3ItY3VydmF0dXJlPSIwIiBzdHlsZT0iZmlsbDpub25lO3N0cm9rZTojQTdBOUFDO3N0cm9rZS13aWR0aDoxLjU7c3Ryb2tlLW1pdGVybGltaXQ6MzsiIGQ9IiAgICAgIE0wLDQwLjgyaDE2LjI1Ii8+JiN4YTsJCQk8L2c+JiN4YTsJCTwvZz4mI3hhOwk8L2c+JiN4YTs8L2c+JiN4YTs8L3N2Zz4=;" vertex="1" parent="MFDmtG4y0ROqI6nAq0eG-56">
          <mxGeometry x="53" y="208" width="34" height="39" as="geometry" />
        </mxCell>
        <mxCell id="MFDmtG4y0ROqI6nAq0eG-53" value="&lt;b&gt;CSV Files&lt;/b&gt;" style="rounded=0;whiteSpace=wrap;html=1;" parent="MFDmtG4y0ROqI6nAq0eG-57" vertex="1">
          <mxGeometry y="320" width="150" height="40" as="geometry" />
        </mxCell>
        <mxCell id="MFDmtG4y0ROqI6nAq0eG-60" value="" style="group" parent="1" vertex="1" connectable="0">
          <mxGeometry x="530" y="240" width="150" height="360" as="geometry" />
        </mxCell>
        <mxCell id="MFDmtG4y0ROqI6nAq0eG-8" value="" style="rounded=0;whiteSpace=wrap;html=1;" parent="MFDmtG4y0ROqI6nAq0eG-60" vertex="1">
          <mxGeometry width="150" height="320" as="geometry" />
        </mxCell>
        <mxCell id="MFDmtG4y0ROqI6nAq0eG-28" value="Table" style="swimlane;fontStyle=0;childLayout=stackLayout;horizontal=1;startSize=30;horizontalStack=0;resizeParent=1;resizeParentMax=0;resizeLast=0;collapsible=1;marginBottom=0;whiteSpace=wrap;html=1;" parent="MFDmtG4y0ROqI6nAq0eG-60" vertex="1">
          <mxGeometry x="40" y="60" width="70" height="60" as="geometry" />
        </mxCell>
        <mxCell id="MFDmtG4y0ROqI6nAq0eG-29" value="Field" style="text;strokeColor=none;fillColor=none;align=left;verticalAlign=middle;spacingLeft=4;spacingRight=4;overflow=hidden;points=[[0,0.5],[1,0.5]];portConstraint=eastwest;rotatable=0;whiteSpace=wrap;html=1;" parent="MFDmtG4y0ROqI6nAq0eG-28" vertex="1">
          <mxGeometry y="30" width="70" height="30" as="geometry" />
        </mxCell>
        <mxCell id="MFDmtG4y0ROqI6nAq0eG-48" value="" style="group" parent="MFDmtG4y0ROqI6nAq0eG-60" vertex="1" connectable="0">
          <mxGeometry y="320" width="150" height="40" as="geometry" />
        </mxCell>
        <mxCell id="MFDmtG4y0ROqI6nAq0eG-49" value="&lt;b&gt;RAW Layer&lt;br&gt;(Allianz/Source schema)&lt;/b&gt;" style="rounded=0;whiteSpace=wrap;html=1;" parent="MFDmtG4y0ROqI6nAq0eG-48" vertex="1">
          <mxGeometry width="150" height="40" as="geometry" />
        </mxCell>
        <mxCell id="MFDmtG4y0ROqI6nAq0eG-58" value="Table" style="swimlane;fontStyle=0;childLayout=stackLayout;horizontal=1;startSize=30;horizontalStack=0;resizeParent=1;resizeParentMax=0;resizeLast=0;collapsible=1;marginBottom=0;whiteSpace=wrap;html=1;" parent="MFDmtG4y0ROqI6nAq0eG-60" vertex="1">
          <mxGeometry x="40" y="170" width="70" height="60" as="geometry" />
        </mxCell>
        <mxCell id="MFDmtG4y0ROqI6nAq0eG-59" value="Field" style="text;strokeColor=none;fillColor=none;align=left;verticalAlign=middle;spacingLeft=4;spacingRight=4;overflow=hidden;points=[[0,0.5],[1,0.5]];portConstraint=eastwest;rotatable=0;whiteSpace=wrap;html=1;" parent="MFDmtG4y0ROqI6nAq0eG-58" vertex="1">
          <mxGeometry y="30" width="70" height="30" as="geometry" />
        </mxCell>
        <mxCell id="MFDmtG4y0ROqI6nAq0eG-61" value="" style="group" parent="1" vertex="1" connectable="0">
          <mxGeometry x="800" y="240" width="150" height="360" as="geometry" />
        </mxCell>
        <mxCell id="MFDmtG4y0ROqI6nAq0eG-62" value="" style="rounded=0;whiteSpace=wrap;html=1;" parent="MFDmtG4y0ROqI6nAq0eG-61" vertex="1">
          <mxGeometry width="150" height="320" as="geometry" />
        </mxCell>
        <mxCell id="MFDmtG4y0ROqI6nAq0eG-63" value="Table" style="swimlane;fontStyle=0;childLayout=stackLayout;horizontal=1;startSize=30;horizontalStack=0;resizeParent=1;resizeParentMax=0;resizeLast=0;collapsible=1;marginBottom=0;whiteSpace=wrap;html=1;" parent="MFDmtG4y0ROqI6nAq0eG-61" vertex="1">
          <mxGeometry x="40" y="60" width="70" height="60" as="geometry" />
        </mxCell>
        <mxCell id="MFDmtG4y0ROqI6nAq0eG-64" value="Field" style="text;strokeColor=none;fillColor=none;align=left;verticalAlign=middle;spacingLeft=4;spacingRight=4;overflow=hidden;points=[[0,0.5],[1,0.5]];portConstraint=eastwest;rotatable=0;whiteSpace=wrap;html=1;" parent="MFDmtG4y0ROqI6nAq0eG-63" vertex="1">
          <mxGeometry y="30" width="70" height="30" as="geometry" />
        </mxCell>
        <mxCell id="MFDmtG4y0ROqI6nAq0eG-65" value="" style="group" parent="MFDmtG4y0ROqI6nAq0eG-61" vertex="1" connectable="0">
          <mxGeometry y="320" width="150" height="40" as="geometry" />
        </mxCell>
        <mxCell id="MFDmtG4y0ROqI6nAq0eG-66" value="&lt;b&gt;STG Layer&lt;br&gt;(Allianz/Stg schema)&lt;/b&gt;" style="rounded=0;whiteSpace=wrap;html=1;" parent="MFDmtG4y0ROqI6nAq0eG-65" vertex="1">
          <mxGeometry width="150" height="40" as="geometry" />
        </mxCell>
        <mxCell id="MFDmtG4y0ROqI6nAq0eG-67" value="Table" style="swimlane;fontStyle=0;childLayout=stackLayout;horizontal=1;startSize=30;horizontalStack=0;resizeParent=1;resizeParentMax=0;resizeLast=0;collapsible=1;marginBottom=0;whiteSpace=wrap;html=1;" parent="MFDmtG4y0ROqI6nAq0eG-61" vertex="1">
          <mxGeometry x="40" y="170" width="70" height="60" as="geometry" />
        </mxCell>
        <mxCell id="MFDmtG4y0ROqI6nAq0eG-68" value="Field" style="text;strokeColor=none;fillColor=none;align=left;verticalAlign=middle;spacingLeft=4;spacingRight=4;overflow=hidden;points=[[0,0.5],[1,0.5]];portConstraint=eastwest;rotatable=0;whiteSpace=wrap;html=1;" parent="MFDmtG4y0ROqI6nAq0eG-67" vertex="1">
          <mxGeometry y="30" width="70" height="30" as="geometry" />
        </mxCell>
        <mxCell id="MFDmtG4y0ROqI6nAq0eG-71" value="" style="group" parent="1" vertex="1" connectable="0">
          <mxGeometry x="1080" y="562.5" width="480" height="40" as="geometry" />
        </mxCell>
        <mxCell id="MFDmtG4y0ROqI6nAq0eG-72" value="&lt;b&gt;DataVault Layer&lt;br&gt;(Allianz/datavault schema)&lt;/b&gt;" style="rounded=0;whiteSpace=wrap;html=1;" parent="MFDmtG4y0ROqI6nAq0eG-71" vertex="1">
          <mxGeometry width="480" height="40" as="geometry" />
        </mxCell>
        <mxCell id="MFDmtG4y0ROqI6nAq0eG-73" value="" style="group" parent="1" vertex="1" connectable="0">
          <mxGeometry x="1680" y="240" width="150" height="360" as="geometry" />
        </mxCell>
        <mxCell id="MFDmtG4y0ROqI6nAq0eG-74" value="" style="rounded=0;whiteSpace=wrap;html=1;" parent="MFDmtG4y0ROqI6nAq0eG-73" vertex="1">
          <mxGeometry width="150" height="320" as="geometry" />
        </mxCell>
        <mxCell id="MFDmtG4y0ROqI6nAq0eG-75" value="View" style="swimlane;fontStyle=0;childLayout=stackLayout;horizontal=1;startSize=30;horizontalStack=0;resizeParent=1;resizeParentMax=0;resizeLast=0;collapsible=1;marginBottom=0;whiteSpace=wrap;html=1;" parent="MFDmtG4y0ROqI6nAq0eG-73" vertex="1">
          <mxGeometry x="40" y="60" width="70" height="60" as="geometry" />
        </mxCell>
        <mxCell id="MFDmtG4y0ROqI6nAq0eG-76" value="Field" style="text;strokeColor=none;fillColor=none;align=left;verticalAlign=middle;spacingLeft=4;spacingRight=4;overflow=hidden;points=[[0,0.5],[1,0.5]];portConstraint=eastwest;rotatable=0;whiteSpace=wrap;html=1;" parent="MFDmtG4y0ROqI6nAq0eG-75" vertex="1">
          <mxGeometry y="30" width="70" height="30" as="geometry" />
        </mxCell>
        <mxCell id="MFDmtG4y0ROqI6nAq0eG-77" value="" style="group" parent="MFDmtG4y0ROqI6nAq0eG-73" vertex="1" connectable="0">
          <mxGeometry y="320" width="150" height="40" as="geometry" />
        </mxCell>
        <mxCell id="MFDmtG4y0ROqI6nAq0eG-78" value="&lt;b&gt;Validation Layer&lt;br&gt;(Allianz/Validation schema)&lt;/b&gt;" style="rounded=0;whiteSpace=wrap;html=1;" parent="MFDmtG4y0ROqI6nAq0eG-77" vertex="1">
          <mxGeometry width="150" height="40" as="geometry" />
        </mxCell>
        <mxCell id="MFDmtG4y0ROqI6nAq0eG-79" value="View" style="swimlane;fontStyle=0;childLayout=stackLayout;horizontal=1;startSize=30;horizontalStack=0;resizeParent=1;resizeParentMax=0;resizeLast=0;collapsible=1;marginBottom=0;whiteSpace=wrap;html=1;" parent="MFDmtG4y0ROqI6nAq0eG-73" vertex="1">
          <mxGeometry x="40" y="142" width="70" height="60" as="geometry" />
        </mxCell>
        <mxCell id="MFDmtG4y0ROqI6nAq0eG-80" value="Field" style="text;strokeColor=none;fillColor=none;align=left;verticalAlign=middle;spacingLeft=4;spacingRight=4;overflow=hidden;points=[[0,0.5],[1,0.5]];portConstraint=eastwest;rotatable=0;whiteSpace=wrap;html=1;" parent="MFDmtG4y0ROqI6nAq0eG-79" vertex="1">
          <mxGeometry y="30" width="70" height="30" as="geometry" />
        </mxCell>
        <mxCell id="MFDmtG4y0ROqI6nAq0eG-100" value="Table" style="swimlane;fontStyle=0;childLayout=stackLayout;horizontal=1;startSize=30;horizontalStack=0;resizeParent=1;resizeParentMax=0;resizeLast=0;collapsible=1;marginBottom=0;whiteSpace=wrap;html=1;" parent="MFDmtG4y0ROqI6nAq0eG-73" vertex="1">
          <mxGeometry x="40" y="221" width="70" height="60" as="geometry" />
        </mxCell>
        <mxCell id="MFDmtG4y0ROqI6nAq0eG-101" value="Field" style="text;strokeColor=none;fillColor=none;align=left;verticalAlign=middle;spacingLeft=4;spacingRight=4;overflow=hidden;points=[[0,0.5],[1,0.5]];portConstraint=eastwest;rotatable=0;whiteSpace=wrap;html=1;" parent="MFDmtG4y0ROqI6nAq0eG-100" vertex="1">
          <mxGeometry y="30" width="70" height="30" as="geometry" />
        </mxCell>
        <mxCell id="MFDmtG4y0ROqI6nAq0eG-81" value="" style="group" parent="1" vertex="1" connectable="0">
          <mxGeometry x="1080" y="242.5" width="480" height="320.00000000000006" as="geometry" />
        </mxCell>
        <mxCell id="MFDmtG4y0ROqI6nAq0eG-70" value="" style="rounded=0;whiteSpace=wrap;html=1;" parent="MFDmtG4y0ROqI6nAq0eG-81" vertex="1">
          <mxGeometry width="480" height="320" as="geometry" />
        </mxCell>
        <mxCell id="Y4VW1V2xxWTK7mL-d7kX-4" value="" style="shape=image;verticalLabelPosition=bottom;labelBackgroundColor=default;verticalAlign=top;aspect=fixed;imageAspect=0;image=data:image/png,iVBORw0KGgoAAAANSUhEUgAAAyMAAAJnCAYAAACEbYwLAAAKtGlDQ1BJQ0MgUHJvZmlsZQAASImVlwdUk9kSgO//p4cEAoFIJ9RQpAsEkBJ6KNKrqIQkkFBCDAQVGyKLK7gWRERAWdFFAQVXpchaEFFsi2AB+4IsCuq6WLCh8n7gEHb3nffeeZMzme/MP3dm7j3/zZkAQKZzxOI0mAJAuihLEubrQY+JjaPjRgEeqAN5oA3UONxMMSskJBAgMmv/Lu/7ADRlb5lP5fr35/9VFHn8TC4AUAjCibxMbjrCJxH9zBVLsgBAHUP8+iuyxFN8G2FlCdIgwiNTnDzDX6Y4cZrRlOmYiDBPhA0AwJM4HEkyACQrxE/P5iYjeUhTtaxEPKEI4VyEXdPTM3gItyNsjMSIEZ7Kz0z8S57kv+VMlOXkcJJlPLOXacF7CTPFaZxV/+dx/G9JT5PO1mAgShJI/MIQS0PO7PfUjAAZixIXBc+ykDcdP80CqV/kLHMzPeNmOTMtnD3LPI5XgCxP2qLAWU4S+shihFnsiFnmZ3qHz7IkI0xWN0niyZpljmSuB2lqpMwv4LNl+XMEEdGznC2MWiTrLTU8YC7GU+aXSMNke+GLfD3m6vrIziE98y97F7Jla7MEEX6yc+DM9c8XseZyZsbIeuPxvbznYiJl8eIsD1ktcVqILJ6f5ivzZ2aHy9ZmIS/n3NoQ2RmmcPxDZhl4AW8QiHzoIATYAFtgDRwB0m0Wf2XW1GY8M8SrJMJkQRadhdw4Pp0t4lrMp9tY2dgBMHV/Z16Pt3en7yVEw8/5BBcBsOtEnKpzvqSdALS8R65i/pyPsRYAJR8A2rdzpZLsGR966gsDiEABKAM15LdBHxgDc6Q/e+AM3JGO/UEwiACxYCngAgFIBxKwAqwBG0ABKALbwS5QDqrAAXAYHAXHQQs4Dc6DS+Aa6AF3wAMwAIbBCzAG3oMJCIJwEBmiQmqQDmQImUE2EBNyhbyhQCgMioUSoGRIBEmhNdBGqAgqhsqh/VAt9DN0CjoPXYF6oXvQIDQKvYE+wyiYBCvDWrARbAkzYRYcAEfAS+BkeDmcA+fDW+EyuBo+AjfD5+Fr8B14AH4Bj6MASg5FQ+mizFFMlCcqGBWHSkJJUOtQhahSVDWqAdWG6kLdQg2gXqI+obFoKpqONkc7o/3QkWguejl6HXoLuhx9GN2M7kTfQg+ix9DfMGSMJsYM44RhY2IwyZgVmAJMKaYG04S5iLmDGca8x2KxNCwD64D1w8ZiU7CrsVuwe7GN2HZsL3YIO47D4dRwZjgXXDCOg8vCFeD24I7gzuFu4oZxH/FyeB28Dd4HH4cX4fPwpfg6/Fn8Tfwz/ASBQjAkOBGCCTzCKsI2wkFCG+EGYZgwQVQkMoguxAhiCnEDsYzYQLxIfEh8KycnpyfnKBcqJ5TLlSuTOyZ3WW5Q7hNJiWRK8iTFk6SkraRDpHbSPdJbMplsRHYnx5GzyFvJteQL5Mfkj/JUeQt5tjxPfr18hXyz/E35VwoEBUMFlsJShRyFUoUTCjcUXlIIFCOKJ4VDWUepoJyi9FPGFamK1orBiumKWxTrFK8ojijhlIyUvJV4SvlKB5QuKA1RUVR9qieVS91IPUi9SB1WxiozlNnKKcpFykeVu5XHVJRUFqhEqaxUqVA5ozJAQ9GMaGxaGm0b7Titj/Z5ntY81jz+vM3zGubdnPdBVUPVXZWvWqjaqHpH9bMaXc1bLVVth1qL2iN1tLqpeqj6CvV96hfVX2ooazhrcDUKNY5r3NeENU01wzRXax7QvK45rqWt5asl1tqjdUHrpTZN2107RbtE+6z2qA5Vx1VHqFOic07nOV2FzqKn0cvonfQxXU1dP12p7n7dbt0JPYZepF6eXqPeI32iPlM/Sb9Ev0N/zEDHIMhgjUG9wX1DgiHTUGC427DL8IMRwyjaaJNRi9EIQ5XBZuQw6hkPjcnGbsbLjauNb5tgTZgmqSZ7TXpMYVM7U4FphekNM9jM3kxottesdz5mvuN80fzq+f3mJHOWebZ5vfmgBc0i0CLPosXilaWBZZzlDssuy29WdlZpVgetHlgrWftb51m3Wb+xMbXh2lTY3LYl2/rYrrdttX29wGwBf8G+BXftqHZBdpvsOuy+2jvYS+wb7EcdDBwSHCod+pnKzBDmFuZlR4yjh+N6x9OOn5zsnbKcjjv96WzunOpc5zyykLGQv/DgwiEXPReOy36XAVe6a4Lrj64DbrpuHLdqtyfu+u489xr3ZywTVgrrCOuVh5WHxKPJ44Onk+daz3YvlJevV6FXt7eSd6R3ufdjHz2fZJ96nzFfO9/Vvu1+GL8Avx1+/WwtNpddyx7zd/Bf698ZQAoIDygPeBJoGigJbAuCg/yDdgY9XGS4SLSoJRgEs4N3Bj8KYYQsD/klFBsaEloR+jTMOmxNWFc4NXxZeF34+wiPiG0RDyKNI6WRHVEKUfFRtVEfor2ii6MHYixj1sZci1WPFca2xuHiouJq4sYXey/etXg43i6+IL5vCWPJyiVXlqovTVt6ZpnCMs6yEwmYhOiEuoQvnGBONWc8kZ1YmTjG9eTu5r7gufNKeKN8F34x/1mSS1Jx0kiyS/LO5FGBm6BU8FLoKSwXvk7xS6lK+ZAanHoodTItOq0xHZ+ekH5KpCRKFXVmaGeszOgVm4kLxAPLnZbvWj4mCZDUZEKZSzJbs5SRQem61Fj6nXQw2zW7IvvjiqgVJ1YqrhStvL7KdNXmVc9yfHJ+Wo1ezV3dsUZ3zYY1g2tZa/evg9YlrutYr78+f/1wrm/u4Q3EDakbfs2zyivOe7cxemNbvlZ+bv7Qd77f1RfIF0gK+jc5b6r6Hv298Pvuzbab92z+VsgrvFpkVVRa9GULd8vVH6x/KPthcmvS1u5t9tv2bcduF23v2+G243CxYnFO8dDOoJ3NJfSSwpJ3u5btulK6oLRqN3G3dPdAWWBZ6x6DPdv3fCkXlN+p8KhorNSs3Fz5YS9v78197vsaqrSqiqo+/yj88e5+3/3N1UbVpQewB7IPPD0YdbDrJ+ZPtTXqNUU1Xw+JDg0cDjvcWetQW1unWbetHq6X1o8eiT/Sc9TraGuDecP+Rlpj0TFwTHrs+c8JP/cdDzjecYJ5ouGk4cnKJmpTYTPUvKp5rEXQMtAa29p7yv9UR5tzW9MvFr8cOq17uuKMypltZ4ln889Onss5N94ubn95Pvn8UMeyjgcXYi7c7gzt7L4YcPHyJZ9LF7pYXecuu1w+fcXpyqmrzKst1+yvNV+3u970q92vTd323c03HG609jj2tPUu7D170+3m+Vtety7dZt++dmfRnd6+yL67/fH9A3d5d0fupd17fT/7/sSD3IeYh4WPKI9KH2s+rv7N5LfGAfuBM4Neg9efhD95MMQdevF75u9fhvOfkp+WPtN5VjtiM3J61Ge05/ni58MvxC8mXhb8ofhH5SvjVyf/dP/z+ljM2PBryevJN1veqr099G7Bu47xkPHH79PfT3wo/Kj28fAn5qeuz9Gfn02s+IL7UvbV5Gvbt4BvDyfTJyfFHAlnehRAIQonJQHw5hAA5FgAqD0AEBfPzNfTAs38J5gm8J94ZgafFnsAatoBiMoFIBTRSoSNEKUgGuIOQIQ7gG1tZTo7C0/P7VNCOQJAT5+Ng19gf1XNGPiHzMz0f+n7nxbIsv7N/gsraA4QI7ZvqQAAAFZlWElmTU0AKgAAAAgAAYdpAAQAAAABAAAAGgAAAAAAA5KGAAcAAAASAAAARKACAAQAAAABAAADI6ADAAQAAAABAAACZwAAAABBU0NJSQAAAFNjcmVlbnNob3Sh6x6eAAAB1mlUWHRYTUw6Y29tLmFkb2JlLnhtcAAAAAAAPHg6eG1wbWV0YSB4bWxuczp4PSJhZG9iZTpuczptZXRhLyIgeDp4bXB0az0iWE1QIENvcmUgNi4wLjAiPgogICA8cmRmOlJERiB4bWxuczpyZGY9Imh0dHA6Ly93d3cudzMub3JnLzE5OTkvMDIvMjItcmRmLXN5bnRheC1ucyMiPgogICAgICA8cmRmOkRlc2NyaXB0aW9uIHJkZjphYm91dD0iIgogICAgICAgICAgICB4bWxuczpleGlmPSJodHRwOi8vbnMuYWRvYmUuY29tL2V4aWYvMS4wLyI+CiAgICAgICAgIDxleGlmOlBpeGVsWURpbWVuc2lvbj42MTU8L2V4aWY6UGl4ZWxZRGltZW5zaW9uPgogICAgICAgICA8ZXhpZjpQaXhlbFhEaW1lbnNpb24+ODAzPC9leGlmOlBpeGVsWERpbWVuc2lvbj4KICAgICAgICAgPGV4aWY6VXNlckNvbW1lbnQ+U2NyZWVuc2hvdDwvZXhpZjpVc2VyQ29tbWVudD4KICAgICAgPC9yZGY6RGVzY3JpcHRpb24+CiAgIDwvcmRmOlJERj4KPC94OnhtcG1ldGE+CiREhzkAAEAASURBVHgB7J0JvEzl/8e/SiktSlokkUg/CtFu6Ve0kJQWRau0ibSHtp82tGpVUtqQijZUEn4lKRVtJKWN+imirCH87/vp/0znjpl7Z+bO3Dtz5vN9vebOmXOe8yzvM3Pu8z3f5Sm3oUBMIgIiIAIiIAIiIAIiIAIikJME1q9fb4sXL7bNNtvMKlWqlFNj2CSneqvOioAIiIAIiIAIiIAIiIAIhIaAlJHQXEoNRAREQAREQAREQAREQARyi4CUkdy6XuqtCIiACIiACIiACIiACISGgJSR0FxKDUQEREAEREAEREAEREAEcouAlJHcul7qrQiIgAiIgAiIgAiIgAiEhoCUkdBcSg1EBERABERABERABERABHKLgJSR3Lpe6q0IiIAIiIAIiIAIiIAIhIaAlJHQXEoNRAREQAREQAREQAREQARyi4CUkdy6XuqtCIiACIiACIiACIiACISGgJSR0FxKDUQEREAEREAEREAEREAEcouAlJHcul7qrQiIgAiIgAiIgAiIgAiEhoCUkdBcSg1EBERABERABERABERABHKLgJSR3Lpe6q0IiIAIiIAIiIAIiIAIhIaAlJHQXEoNRAREQAREQAREQAREQARyi4CUkdy6XuqtCIiACIiACIiACIiACISGgJSR0FxKDUQEREAEREAEREAEREAEcouAlJHcul7qrQiIgAiIgAiIgAiIgAiEhoCUkdBcSg1EBERABERABERABERABHKLgJSR3Lpe6q0IiIAIiIAIiIAIiIAIhIaAlJHQXEoNRAREQAREQAREQAREQARyi4CUkdy6XuqtCIiACIiACIiACIiACISGgJSR0FxKDUQEREAEREAEREAEREAEcouAlJHcul7qrQiIgAiIgAiIgAiIgAiEhoCUkdBcSg1EBERABERABERABERABHKLgJSR3Lpe6q0IiIAIiIAIiIAIiIAIhIaAlJHQXEoNRAREQAREQAREQAREQARyi4CUkdy6XuqtCIiACIiACIiACIiACISGQPmSjuTwww8vaRU6XwRylsCkSZNytu/quAiIgAiIgAiIgAiUNYESKyMMQBOysr6Mar8sCEgRLwvqalMEREAEREAERCBMBOSmFaarqbGIgAiIgAiIgAiIgAiIQA4RkDKSQxdLXRUBERABERABERABERCBMBFIi5uWB/LCqxNtyy02tw0FO8oVvILvlbbZylocsp8vqncREAEREAEREAEREAEREIE8J5BWZQSWTRrUsYpbblEI6w/zf7Hfl64otE8fREAEREAEREAEREAEREAE8ptAWpWR9RvW25o1a23TTTaxcgWmEW8ZWfvXX7Z+PZ8kIiACIiACIiACIiACIiACIvA3gfQqI+vW2/IVK+zUDqcU4nvXgIds3bp1hfbpgwiIgAjkOoH//ve/uT4E9V8EUibw73//O+VzdaIIiIAIeAJpVUZQOFYsX2mDBg329bv3hYuX2jrLj1j59evX21tvvWUNGza0nXfeuRCHdHzIdP3J9vHPP/+0gQMH2vz58+3444+3ww47LNkqVF4EcpbA22+/bSgkmpTl7CVUx0tAgO//f/7znxLUoFNFQAREwCy9ykjBRHz58hW2erN/qiWQfeWqP6385hVCwfv333+37bbbrtBYVq5caRUrVnT7/ipwSTv66KPt5ZdfdpPzQgUDH9asWWObbrqpewV2x9wMthmr/rVr1zrL0xZbFI7VoSxSvnx5Q2nYfPPNbZMCFzovy5Yts2222cZ/jLyvWrXKttxyy8jnojb69u1rt9xyi5uMDRgwwH766SfbddddizpFx0QgVASYjEkZCdUl1WASIIASjjIiEQEREIGSEvhnZlrSmgrOX19gGZk592f7ZPaPkdeMgu0ffl6U825ac+fOddaO7bff3qpXr27ffPONzZ4929q0aWNbbbWV20eZLl26OJInnHCCsxbEwnrTTTdZlSpVjLoeffRRV6RcQZDNE0884bb33HNPY5Ifq83o+im322672U477WTXXnut43ziiSda/fr1rXLlyu7VtWtXp1zUqVPHFi1aZPPmzbN27drZtttu6/o9a9Yse+ihh5wlh/N8n4J9X7p0aUEcUDm7++673W4sP9Q7efJk69Onj7MGcWDGjBnB07QtAiIgAiIgAiIgAiIgAnEJ/GPCiFsk8QOdO7VLvHCOlXzmmWfsu+++swkTJtg777xjM2fONCwItWvXtk8//dSaNWtmgwcPtgceeMCGDh3qXrEsBCgYTN4feeQRW7JkiT322GN27rnnOhobNvwT5M92rDaD9f/xxx923XXX2fDhw51i0bZtW6cceYvImDFjnNsUbY4ePdqOO+449yRrzpw5TtH57LPPnPKEEsNq4r/++qt16tTJlYu+PCguHTp0MOrknXPvu+8+dx7nYOVBKYLFscceG326PotAXhB44tkxMcfJL/vcjm1jHtNOERABERABEchnAmlVRsIMEmsDykHLli2dFeKpp56yrbfe2l566SX3YuwrCoL3vbsWx4IuUZ6NN2uff/757nivXr38ocg7LlxIrDaD9b/77ruu3CmnnOJcsXC5wnSONGnSxFq0aGG1atVyLiRHHHGE249L15tvvmlYQ1q1auX24b7lBVereHLGGWc4i8oLL7zgGDRv3tzVv3z5cncKyhEWGokI5CuBGrvt4tKbY0XkgYJ/H/Xa5HxFonGLgAiIgAiIQJEE0uqmVWRLOX5w2rRpdvbZZ7sn/1gA7r//fueyhFsTE3uE4HIvxJHEkgYNGrjdWCqwcuDuhCWDSfyHH37o3J0IBkditekOFPyh/qZNm7qPr776qrPYEAOCglCUMDlCCalXr55zM7v11lvtoosucqcUp0gcddRRLsbkyiuvdBYVrCEHH3ywjR8/3lmLaL9Ro0ZFNa9jIhBqAuvXr3O/Z5R+ftf+vUAzCfW4NTgREAEREAERSJWAlJEEyTF5J64C5QFl4eKLL7aTTz7Zxo0b51y1dtxxR+fGtdlmmxkKB65LxGZES+PGjQ2rCDElPXr0cIoAAeYoBcOGDbPTTz89ElQeq81g/ZUqVbIbbrjBzjnnHGvfvr1dfvnlEQUlul2UEC9nnnmmi1chpmTIkCGu//5YUe8VKlRwChllOnbs6IoSw/L66687dzAUIa9sFVWPjolAWAmsLlhn6dZbbzNcJv1r/PgJhR5UhHXsGpcIiIAIiIAIpEKgXIErQYke2RFrMGnSpFTazrlzeNJJtqjdd9/duV8wADJdEcCOkuAFCwkuW7hM/fbbb363eye2hDgTXJqwLODO5YUYFOpBOfESq01fP+eiZJApi33ehcufW9z74sWLXYB7dLmPPvrIvvjii0K7CaqPZ3VZvXq1i3/ZZZddCp0T9g/59N0P+7VMdXwkoyCdtc+m9dKYiVa7xsa/g/dmfGUXntU+1WZ0nghkHQH+vym1b9ZdFnUojwkwD2RexzySh9W5JP/MenOp12XUV5SEGjVqFGo9Os0vB4kVIX6DuA0m6kEhixYS64sSK51urDZ9/b7e6JS+fn9x71hGYgmKxw477FDoUFBpKnSg4AMWk3xTRKIZ6LMIQGB1QbzXsoL05tHCP4l8F/5J8qADxS0Yp1YSLr1797a6des663BJ6knk3BEjRtjUqVPdff2ss85K5BSVEQEREAERSICAlJEEIKVaJFY2rVTrKs3zSDnMSyICIpAcgRUr/7Qv5/600Unr15XIAL1Rfdm4I7geku9fcA0mMvCxBtPChQtdanNfJvo9kXWTSPLBQxmyGwYf+BS3dpK3KsdaXym6H8HPLGSLa2rr1q1dvCAPZ0gwIhEBERABESg5AcWMlJyhahABERABR6DLGSdYrFe3LieHllCs9ZBircF06qmnOgZkJIwn8dZNwsqMJReF5umnn3brI/GZdpBE1k4iLXnVqlVdGnQyDaL0xBKOEe+DXHXVVYalGIsICUNee+01p5B88MEHsU7VPhEQAREQgRQISBlJAZpOEQEREAER+JtAcD0kElqwBtMnn3wSWYOJ+DjWYHr88cfdCaRDjyVffvmlWzfp3nvvtWeffdb69evnlACsGV9//bURn4ObbPfu3d1aRyT8wBKCsLYTShHKCgoHaycRb8faSWQBZI2l/v37O5cuYh3I+sd6S7GE5CNjx451GQvpK1kUWczVu+hi8cbdTCICIiACIpAeAlJG0sNRtYiACIhAXhLAXYlsglg8Hn74YRdDxmcm8n4BVBJ6+LgzFlCNJSwmi7BuEucF100iHTnZAkkgggJCzAYKBusoIcG1k3744QdbtGiR288f1k6iXNeuXZ2SRMzKlClTLFaMHuVPOukk3pwC9e233xoWnZ133jmi+DAWxcg5RPojAiIgAmkhIGUkLRhViQiIgAjkJ4FY6yHdfffdluwaTEWtm+QVmTp16jjIrNNEuygLSCJrJ3388ccu3mPy5Mk2ffp0GzVqlDs3+g+KFIrOZZddZgcccICzpuAmhmsWddDu/vvvH32aPouACIiACKRIQMpIiuB0mgiIgAiIgLkFVBNZg2mPPfZw1g5SYseSffbZp9h1k7BmsODsLbfc4hQQv1BrImsnEfvRuXNnl6KcNZxYJyqeUB9CeYTAdTKAoYQsX77cjj/+eLdff0RABERABEpOoMTrjGCuPuSQQ0rekxg14GscKwVujKKluis67W2pNp6ljUWvp5Kl3Uxrt/CL/+6779JapyrLLQLR64zkVu/T19tY6yHFWoOJoHEyYbE2VdCVip74NZgSWTcJVy2UA9KKByXe2km+DIoEL/5v4fI1fvx4f8i9s2YUbmKxhNiVBQsWOJct1ojKd9E6I/n+DdD4s40A96i8XWdk7733jmvuLsmFYjElXjfeeGNJqtG5IpAxAkcccUTG6lbFIpBLBGKthxRrDSYW4+LVuHHjQil5GatfgymRdZPipeaNt3aSZ4m7l3f5In05C1YGJbjgbHA/26QSztV07dFj0WcREAERyCYCJV5nhBXAuUmnW6g3U3Wnu6+qLz8J8P2UiIAIJE8gGyb1FStWNFzHJCIgAiIgAmVLIP1aRNmOR62LgAiIgAiIgAiIgAiIgAjkCAEpIzlyodRNERABERABERABERABEQgbASkjYbuiGo8IiIAIiIAIiIAIiIAI5AgBKSM5cqHUTREQAREQAREQAREQAREIG4ESB7CHDYjGIwIiIAKJEiCl9YwZM4yUihIRyCcCn376qZHSWSICIiACJSWQEWWEVWr79evn+kY+9pYtW9ppp51mc+bMsf79+9sjjzxirNXBwlVffPGFK8uCVKUl33zzjf3666926KGHllaTrp0ff/zRevbsaaxOHMwmc+edd7r1VC644IJS7Y8aEwERKBmBFStW2Oeff268p1smTpxoNWvWtFq1aqW7atUnAiUm8P333xuLUEpEQAREoKQEMqKMsDDUqFGjrHv37q5/F154oS1ZssSt1Mv+AQMG2PXXX299+/a1ESNGWKqKyMqVK430jMUJi2ghPn/98OHD7bnnnrOZM2dGTl26dKltu+22kc9+Y9WqVZEbbnR7PBViEa/oG3J0OV8Xizgy3v/85z+u3z4P/5QpU4yVhKWMeFK580563z59+rhrGt3rIUOGuKfmXFtWbG7QoEF0EX3OcQK77767W6vi3//+d9pHsm7duozVnfbOqsK8I+AXPcy7gWvAIiACaSeQ0ZiRyy67zB544AE7+uij7eWXX450HiWE17PPPmunnnpqZH+iGyg255xzjrFaLorMBx98YPfcc49bGZc6UDSYJKIs3HzzzW6ij8LQq1cvZ4lBGZg1a5ZdccUV7qlm27ZtnWUCCw51TZ8+3Z1/4IEHOqWhQ4cOVrduXdceihQyaNAgq1atmjt+1VVXuX202aJFC7e6r9sR589JJ51kLLjVsGFDtxqwL/bWW2+5dqlbkhsENmzY4DrKtWc1bi933XWXW625R48edsABB9gll1xi8+fP94f1LgIiIAIiIAIiIAIiUEAgI5YRT5bV0/GlHjdunHt67PfjpoXsv//+fldS76NHj7YXX3zR1fvMM8/Y0KFDjSeUXvwEEdcJFA+UoqZNmxoWiBo1ajilhPNvvfVWO//88+333393VhKUimuvvdZuv/12V9XZZ59tBx10kD344IP2wgsv2NNPP+1czLD0XHTRRTZw4ECnoFCuU6dO7pxffvnFKSq+L7HeTznlFNtnn32M9w8//NAV+eSTT5zVBDcu6pfkBgGvgGAd8S+sfnznp02b5gZRp04dwzXw0ksvLWQdYfXnTDxRzw1y6qUIiIAIiIAIiIAImGXUMoIiUrVqVRs5cqRdffXVEd5YK7bZZhs3gV+zZk1kf6IbWBCI9zjqqKMMZQTrS1B8UB2WE55M33vvvW7iP2/ePOdShZWkfPnyzqqBYoNlpF69es6VBj9t36dWrVo5JYa627dvb/vtt5+ztngFAsWBceGG4596017Hjh2D3dloG8sIFhRk9erV7p06ly1bZtWrV3ef9Sc3CKBQ+BfKCIKVpEKFCm7b/+G3wHfMl+X97bffdtaUww8/3Hh5xcafo3cREAEREAEREAERCDuBjFpGsDzEigfBxQr/+RNOOMHFjtxxxx1JcUYpIBCebB4oGsSC4ApDUPpHH30UcQlbuHChi1VBwZg9e7ZdfPHF7jiNEUeC0tK6dWv3FBtXrLFjx7on1ZtvvnmR/WnSpIk7/tBDDzkFBWWrcePGbl90/EisijbbbLONdtMPWPXu3dspTig4kuwngGUD32kUCba9VY4kBSjdKJ5z5851igcWwR133DEyKMojWO8Q6kEpYb/f5w7ojwiIgAiIgAiIgAiElMAmZTUuAnoJ2CaT1JtvvplUN3BvQiFo1KiRC5THTYq4FF4oJV9++aWrj4kfQaBHHHGEU0SOPfZY5xq277772rfffuv8+Ikj2WSTTZwigPJChi8v7A8KT7yRrbfe2ogJ6Natm1EXFg2fHcuXCZ5X1LZvA4vIDTfc4Iri5iPJDQIoD1g4Jk2aVEiBuPLKK6127do2ePBg5wJ42223FVJEYo0OJYR6EOpFOZGIgAiIgAiIgAiIQJgJlCt4kvt3BG6Ko2TS5CdQKVYR8zQmYkzyinpCjCWEQPCgpQHFABewoFAO60kwWxZZslAcfIatxYsXW+XKlYOnFbuNixXWFdzBomXMmDG2aNGiQrubNWvmJqiFdupDzhLI1HffA8l0/b4dvadOAIsYLncokumWTNad7r6qvvwjkMj/6PyjohGLQNkRwB2cuSxz4kqVKpVdR1JoOaNuWin0p9hTWKuETFxBSdYaETw3U9uk9+WLERRiXYKKU/BYtE748MMPb5QyOFhe2+EngCIuhSQ3rzPxZLjnISTXIGsgyTC8xaxr164uox9JPsjad80112R0oLh/khEQF9lUBOv1Sy+9ZNyXgnLWWWe5JCDNmzcP7tZ2nhHggSRrhpE1UCICIiACyRLIOWWEtTlw0wq7sFikJL8J8LTdB7kXZSHMb0rZOXoePBCXRszQ+PHj3dpKZPdjPw8qcBNF0WRBQzLzpSrFrY9EMg5cQSdMmBBJlkFb9IEkC9H3mXhrJKFYDRs2zIiTW758ecTKTAIR3GMl+U0ALwG+FxIREAERSIVAzikjBHYT+yERgXwg4K0jmXIFygeGZTVGLB4kMTjmmGNcVr733nvPdeW7776zI4880ikib7zxRmRin0w/WbeJ78Znn31mZ555pkvogeWC9qpUqeLi8XBhJdsfLqkIbqLE0JHxj7TkyPPPP+9cR0nAQWwdLq7BNaFcof//gwvsv/71L8M63aVLF3vssccih4m1I/6PJ+Q+wUfkoDZEQAREQAREoAgCOaeMFDEWHRKBUBJg0umzdYVygCEd1DvvvOMSZ2CVQPwknTVoECwKqfj1olCwFhFrG7H2ESnO9957bxe7Rnwc+9u0aePaI7kHx9u1a+fafP/9950iMnXqVJcWHaUCyw2CC2lx7mIsLou1DsUDKwkyZMgQI2MhadL9GN0B/Qk9AdKZEzuCnzrKarLJaHyslR62hP6rogGKQJEEpIwUiUcHRaDsCfAPG2WEf/r+n3fZ90o9SIQAsWBM+LHmYqlA9tprL6eIsD4SigIpzpMR0pSjdOCu2rBhQ/edQOHxCseAAQOcxYTJITEdZBjEHQxBaUDIZoiQihxXL4TFXqkvnmA1YRx+HSb/7uusVq1avFO1P6QEUEZ4WIKFb8aMGS41fTJD5Z6GoODitujrczv1RwREIG8IbJI3I9VARSCHCXjrSA4PIe+6zsKmBHxjbahfv35k/LhDsQ4NSgLKwo8//hg5lsgGgegoBq+88op99dVXhvuXV1L9+kR16tRxVWGtmDZtmotRYYcvh9UGiwYuW15J8pkFE+lDsAwJRVjQk+Dl6EQcwXLaFoFoAnwfeXF/898dlBKJCIhAfhGQMpJf11ujzVECfhLpnyTm6DDU7f8ngEsUwd9YL3CrwvUqUSlfvrxbv4bYDtyzDjnkEOvcuXOh07F43H///W7dpFatWplXUpo2bWqnnXaaO4/AeawZfq0j/16ooiI++CyGNWvWdAH6U6ZMseHDhxdxhg6FlUC6gtdRSvTgJazfEo1LBOITKPE6I/xD8hOl+M3oiAiEjwCKgX+aVxqjoz3ctTKxrk9p9D+MbWRyLZB4daPAkAWL794ff/xhZBiMJ0wSUXzInBUUzmPx1uhsWqybNGLEiGBRt40rGeUTkYoVKyZSTGVynAD3o+LWAkt1iPG++6nWp/NEIB8I5PU6IygimZgcZfJGlw9fSo0x8wRK252A3xr/pPlt6AFA5q9vtraAX/3IkSMz1j0Ukmi57bbbonfF/EwGsRdeeCHmMe0UgUQJYB3h/qr7XKLEVE4EcpuAAthz+/qp93lGwLsw6J90nl34wHCJN+GVjRK90Gs29lF9EgEREAERyC4CihnJruuh3ohAkQS8EoJ1RCIC2UYg2biTbOu/+pM9BHjwovtc9lwP9UQEMklAykgm6apuEcgAAW8dyUDVqlIEREAEsoYAbqkSERCB8BOQMhL+a6wRhoyArCMhu6AajgiIwEYE/H1uowPaIQIiEDoCUkZCd0k1oHwgIOtIPlxljVEEREAEREAEwk9AAezhv8YaYQgJ8NSQtJr4VOsJYtleYK5DpiSTdWeqz6o3Pwjou5kf11mjFIHSICBlpDQoqw0RyAABrCNKf5kBsElWmakg20zVm+TwVFwEyowAD1r0wKXM8KthESg1AlJGSg21GhKB9BPQP+v0M022RpTCTFmnDjvssIzVnew4VV4EggRQEjJtHeH7LxEBEQg/AcWMhP8aa4QhJqDYkRBfXA1NBETALfQqDCIgAuEmIGUk3NdXo8sDAt46kgdD1RBFQATyiECmLI55hFBDFYGcICBlJCcukzopAvEJyDoSn42OiIAIiIAIiIAIZDeBnFRG/vrrL1u2bJkju3TpUuNzcF92I1fvRCD9BGQdST9T1SgCIiACIiACIpB5AjmpjEydOtXatWvn6LRv397ee+89C+7LPDa1IALZRUDWkey6HuqNCIhA+ggos1z6WKomEchGAjmZTat58+Y2adIkx3PChAkRrn5fZIc2RCCPCHjriPys8+iia6giEHICPGiRiIAIhJtATlpGwn1JNDoRSI2ArCOpcdNZIiAC2U0g0ymEs3v06p0IhJ+AlJHwX2ONMI8IeOtIHg05L4caK1bO78tLIBp0qAnITSvUl1eDEwGTMqIvgQiEiICsIyG6mEUMJVasnN9XxGk6JAI5R0Bupzl3ydRhEUiaQE7GjCQ9Sp0gAnlEwFtH9E88vBc9VqxccF94R66RiYAIiIAIhI2ALCNhu6IaT94TkHUk778CAiACoSMgV63QXVINSAQiBKSMRFBoQwTCQ8BbR8IzIo1EBEQgXwnIypuvV17jzhcCUkby5UprnHlFQNaRvLrcGqwIhJrAYYcdZsqoFepLrMHlOYGsVka4AUlEQARSIyDrSGrcsuUs7n96IpwtV0P9KGsCctMq6yug9kUgcwSyVhnhn7D+EWfuwqvm8BOQdSS3r7Huf7l9/dT79BHQbyF9LFWTCGQjgaxVRrIRlvokArlGAIVETxRz7aqpvyIgAiIgAiKQPwSkjOTPtdZI85AATxTla52HF15DFgEREAEREIEcISBlJEculLopAqkSIPbgpptuSvV0nScCIiACZU6AByuy8pb5ZVAHRCAjBKSMZASrKhWB7CGgf+LZcy3UExEQgdQIKKFNatx0lgjkAgEpI7lwldRHESghAQWzlxCgThcBEShzAnI5LfNLoA6IQEYIlE9HrTKdpoOi6hCBzBHAOoKrFkqJJL0ENEFKL0/VlhsESvt7n+33MM2DcuN7G+ZebtiwwZYuXWrly5e3rbbaqlSHyu+zJFJiZYQOlPZNqSQD1rkikC4CJf3xpasfidbjrSNSSBIlVnw5XEe4/+keWDwrlQgfAblO/XNNDz/8cOvTp88/O7QlAmVAAIUEKVeuXKm1jiJe0vlQuYKO/93zUuu2GhIBESgrAvzDnDRpUlk1r3ZFQAREIGUC2Xz/yua+pQxcJ4pAAgTS8d1XzEgCoFVEBMJCwFtHwjIejUMERCC/CMgdKr+ut0abHwRK7KaVH5g0ShEIBwFMqYodCce11ChEIN8IlNQVpLR4vfDqxLhNndLuiLjHdEAE8pWALCP5euU17rwlIOtI3l56DVwEcpqAj9HK9kEsX7HSmh1Yf6PXFltsnu1dV/9EoEwISBkpE+xqVATKjgBPF+XqUHb81bIIiEDqBHLl3lVxyy0s+pX6qHWmCISbgNy0wn19NToRiEnAW0eUWSsmHu0UARHIQgLezTQLu1aoS+vWr7c33xxv778/NbL/4IMPsU0r7hD5rA0REIF/CMgy8g8LbYlA3hCQdSRvLrUGKgIiUMoE1q9bb/vs08AaNtwv8lq16k9bu3ZtKfdEzYlAbhCQMpIb10m9FIG0E/DWkbRXrApFQAREII8JrFu/zpYtW257712v0Gvtmr9CTaVz5872+uuvxx3jWWedZZMnT457PNUDM2bMsA4dOhQwX5ZqFQmfN2/ePLd48HXXXWdz585N+DwVLJqAlJGi+eioCISWgKwjob20GpgIhJZALty3sIzMX7Boo1fYLSOjRo2y7777rtB3b+XKlZHPzzzzjP3444+Rz8VtsJp4LAnWyfYvv/xiL7zwgq1evdoV/+uvv2zVqlUbncp+XgiKy/oCd7pkBaVn6NChNnLkSGvTpk2yp6t8HAJSRuKA0W4RyAcCso7kw1XWGEUgPARyYdX33Xbd0TbdbPONXpUrVwrPhShiJIMHD7Ztt93W6tata1tttZX17t27UOlbbrnFHf/4448L7fcfPv/8c2vbtq1VqlTJWrZsaR988IE7xKriLVq0sF122cUWLFhgJ554oqv/yiuv9KfaoEGDrFq1alaxYkW76qqr3H7KNWnSxCpXrmxYUdq1a+fa32677ZxSETk5sDFx4kS3ijltL1y40G2jTL3//vvG+J566imbM2eOLVmyJHCWNlMloAD2VMnpPBEIAQEfEKpA9hBcTA1BBPKEwNtvv23cu7JVjm+dvX0rDWZYH7A8PPHEE06R6N+/v3Ntou0hQ4YYE/3Ro0c7BSFWfyj/+++/28yZM51Cce2119qECRNcUawgKBxYYd566y1X1913322zZs1y1pCLLrrIBg4c6JSUs88+2zp16uQsIF9//bVbY+t///ufa5u+rVixYiNLju8PSs9OO+1k48ePt9q1a7vde+yxh3uvWrWqbbnllm6bPjZr1syfpvcUCcgykiI4nSYCYSEg60hYrqTGIQLhJ5ALblrhvwrFj3Cbbbaxk046yZo2beoK//nnn+4dRQTBehFPUFSwjNSrV8+OP/54p3B4F6wePXpYx44dbdKkSc5Kcvjhh9sZZ5zhqsLqgfTs2dOuvvpqp0zMnz/f7WvVqpVdfvnlRnm+Q8S3dO/e3datW+eOR/8pX768nXnmmTZ27Fh77bXX3HaNGjVcMZQY7ypWpUqV6FP1OQUCUkZSgKZTRCBMBPTPPUxXU2MRAREQgewl0LdvX6dkXHLJJbZhw4aYHW3durWNGzfOvv32W6cM8D+qQoUKrqy3SBxwwAH24YcfGi5dlEUaNmzo3h966CFnSenatas1btzY7dt6663d+6effmq1atVyVpcuXbo4FzIfR+IKBP6g9OCWhXsWFpbq1asbShZB+m+88YYrWadOncAZ2kyVgJSRVMnpPBEIEQFZR0J0MTUUERABESgjAsR1BMV/9u81a9a0AQMG2JQpU2z48OHBopHtXr162SabbGJ77rmni9cgxsSLrwflAEWgQYMGNm3aNHeY+JS77rrLunXrZvvuu69zFdt11139qe69fv36TsHg/fnnn7c+ffoYVpBYQpzJXnvt5RQQLCsI8S833nijEafC9qabbhrrVO1LkkC5As00tmqaZEUqLgIikNsEMF+jlPAUSiICIiAC2UogG+9V9AnXIUniBH766ScXkxE8A4XilFNOcbsWL17sgs6Dx6O3Fy1aZNGuUrh0Ye2grnhCVi8C4TfffHMbM2aMUU9QiAPxsSLB/Wz/8ccfzqpDALzEnOtbSb/7sdVB0RUBEcg7At46ImUk7y69BiwCOUVA96iculxxO7v99ttbdHa0oJWC7FfFSbQiQnlcurxbV7zzd99998ghXLl8TIrfGatef4wsX5L0EpAykl6eqk0EcpYA/+Bvuukm++9//2v6Z5+zl1EdF4HQE2ACm+0ZtUJ/EdIwQNLv+gxVaagu5SqiXblSrkgnpkxAMSMpo9OJIhA+At46Er6RaUQiIAJhIsBDE4kIiEA4CEgZCcd11ChEIC0EvEVE/+jTglOViIAIZICAv09loGpVKQIiUAYEpIyUAXQ1KQLZTEDWkWy+OuqbCIiACIiACISLgJSRcF1PjUYESkzAP3WUdaTEKFWBCIiACIiACIhAMQQUwF4MIB0WgXwk4K0jXjHJRwYaswiIQPYS4N7EA5NsuUctWLDAnnrqqewFpp6JQIYI8N0vqUgZKSlBnS8CISTAP3hl1grhhdWQRCAkBKJTwpb1sFiyLd5K3iXt25133mlXX311SavR+SEnwHdwxYoVbiFGv1J9aQw5HcsVShkpjSulNkQgBwnIOpKDF01dFoE8IpBN6X2rVq1qXbp0yQj9oUOHZqzujHRYlZYJgfXr1xsLRW622WZWmmuh8P0sqShmpKQEdb4IhJSAd39Q7EhIL7CGJQI5TID7k+5NOXwB1XURCBCQMhKAoU0REIHCBLx1pPBefRIBERABERABERCB9BCQMpIejqpFBEJJQNaRUF5WDUoEREAEREAEsoaAlJGsuRTqiAhkJwFZR7LzuqhXIiACJlctfQlEIAQEpIyE4CJqCCKQSQKyjmSSruoWARFIlQAPSiQiIAK5T0DKSO5fQ41ABDJOQNaRjCNWAyIgAikQIKOWRAREILcJSBnJ7eun3otAqRCQdaRUMKsRERCBJAlkc0atjz/+2E4++WT3OvXUU+3RRx+1pUuXurUg2D958mQ32pEjR7oyY8eOTWr0b775pp155plxz/n222+tY8eOtnDhwrhlUj3Qu3dve/LJJ1M9PeZ5jKdr164bHTvrrLMirDY6qB2hICBlJBSXUYMQgcwTkHUk84zVggiIQOIE/EOSxM8o3ZKsTD1q1ChjDZKddtrJLrzwQnv44Ydt9erVbv9PP/1kKCCnnHKKK9OmTZukOvjDDz/YK6+8UuicVatWmV+E7vfff7cRI0bYypUrC5WJ92Ht2rX2559/xjxMvciaNWvc4o4TJkywzz77LFJ22bJlke3ghm+bNTDilfHl586da8OGDTPKorR5eeaZZ+zHH3/0H/UeQgJSRkJ4UTUkEcgEAf+PP5ufRGZi3KpTBERABEpC4LLLLrMHHnjAjj76aHv55ZcjVY0bN87atm1r3bt3t/vvv9/KlSsXOZbsxrbbbmsHHnigVaxY0XbffXf75ptvIlWgQKDo1K9f35YsWRLZH9zo27ev7bbbbk5puvbaa23dunX20EMP2c477+zOw6rz9NNPW/Xq1a1y5co2e/Zsd/q8efOsXbt2RvscmzVrls2YMcONpWXLltapUycbM2aMU7Yo06JFC0PpiScoLP/617/con3nnXdeoWK33HKLaweLkyRcBKSMhOt6ajQikFECso5kFK8qFwERSIFAtj8gufHGG527FMrHMcccExmhd3Nq1qxZiRQRX+F2221n77//vv3xxx+G65eXiy66yJjAjx492rbffnu/O/L+5Zdf2nXXXWf33nuvPfvss9avXz+bOnWqs4D8+uuvdtRRRzllBqWpQ4cOznrhrRysvo1FAysJFiAUGW+ZYSXwa665xvr3729169Z1mc8aNWpkc+bMibQda+Oee+6xq6++2h5//HFnRaLMkCFDDI7Dhw+3Jk2axDpN+3KYgJSRHL546roIlDYBWUdKm7jaEwERKIqAvycVVaasj+F2xEQdBYFJthesBs2bN7fzzz/fvvvuO7875feTTjrJDjroIGehwEXLy8SJE90mVo5Y8s4777jduIsde+yxts022zjFwZcdMGCA4aaFAkL8xnHHHWe1atVyh4nzwBrSqlUrw21s0aJF/jS7/fbb7dBDD3VxIJ988olxraZMmWJbbrllpEz0Bm3Th0MOOcQdwqqD+DFUq1bNfdafcBGQMhKu66nRiEDGCcg6knHEakAERCBBAocddliCJcuu2K233mo87UdZwI3KC5N64iEQFJOi3Jf8OUW9b7rppjEPY+3AwoFyEEuaNm3qdr/66qtGLAhKB0oSQqwLUqdOHfeOdWXatGlGcDyCElKvXj3ntsU4scJ42WKLLdwmVhnc0AjYnz59uouX8WUSfceNjHYuueSSiOUl0XNVLvsJSBnJ/mukHopAVhHwTyKz3TUiq6CpMyIgAhkjcNNNN2Ws7kxXXKNGDRs0aJBzr7r55psz0hzWieuvv96IuQjGkvjG9tlnH7vhhhvsnHPOsfbt29vll19uXkHxZbBmoFBQBwqIV1LI5oXrF3EkuFLVrl3bn2KbbPL3FHPPPfe0zp07OwUHhYJMYomKj6OpWbOmYaHBsoKrliRcBMoV+PZtCNeQNBoREIFME0ARYQIwadKkTDel+kVABESgSAKHH354md+LMtmHeHXPnDmzSC6xDrIuS3QQe+PGjV3QO1m+mBJ6i0as81esWGHEgmy++eaFDhOnUqlSpUL7gh/IqsWrSpUqLjgeC0u0HHnkkbbVVltF7475mWB8SWECuAMuXrzYXZ+irkXhs0r+Kd73M5mayydTWGVFQAREAAJYR1BGUErYloiACIiACJQeAWJCunXrlnSDxGAwaQ3KG2+8YfFcvILl0rkdK4Uw8SfeElJUW2TlwqVMEh4CUkbCcy01EhEoVQI+dkTKSKliV2MiIAIiYGTO4mGQRATCQOBvh74wjERjEAERKFUCXgnRP8RSxa7GREAEoghwL9J9KAqKPopADhGQMpJDF0tdFYFsI+CtI9nWL/VHBEQgfwjkQkat/LkaGqkIJE9AykjyzHSGCIjA/xOQdURfBREQgWwgQGC2RAREIDcJSBnJzeumXotA1hCQdSRrLoU6IgJ5SUBuWnl52TXoEBFQAHuILqaGIgJlQYCJgDJrlQV5tSkCIpBNBDK53kkm684mhupL6gRIy7xq1Sq3vktR6ZlTbyH2memI15IyEput9oqACCRBwFtHvNtWEqeqqAiIgAiEgkCmYleY7GWq7lCA1yAcAZSRpUuXWvny5RNeryUd6NLxf1/KSDquhOoQgTwnwM0In23+aabjxpTnODV8ERCBFAiU9f0nU/c+rCKZqjsFzDolSwmU1aKH6bDaKWYkS79U6pYI5BoBbx3JtX6rvyIgArlPQJP13L+GGkH+EpAykr/XXiMXgbQTYELA00mJCIiACJQmAdyYlFGrNImrLRFIHwEpI+ljqZpEIO8JyDqS918BARCBMiOgByFlhl4Ni0CJCEgZKRE+nSwCIhBNQNaRaCL6LAIikGkCctPKNGHVLwKZIyBlJHNsVbMI5CUBWUfy8rJr0CIgAiIgAiKQEoESZ9M6/PDDU2pYJ4lAGAhMmjQpDMNI+xi8dURPK9OOVhWKgAiIgAiIQKgIlFgZgYYmZKH6TmgwCRKQIh4fFNYR+EgZic9IR0RABNJLIN8egsyYMcPuuOMOB5FF7g4++GDr0qWL/fDDD3bffffZ/fffHwF877332j777GOtWrWK7PMbTz75pO25557WvHlzv8u9f/XVV9a/f3/77LPP3PGLL7640D196NCh9vXXX7tFbzlh5cqVrn22Weuibt261rVrV9thhx3YtZHE6z/nIitWrLALLrjAevbsaQ0aNLBu3brZ4sWLC9Vz4okn2uzZs23WrFmF9t9444128803F9rHh+uuu84efvhh69evnz3//PPuvHvuuSdSbsCAAW6tDv6H3XLLLRvV+8ADD1iVKlUi5bWRHgJpUUbS0xXVIgIiECYC+TYxCNO101hEIBcJ5NvCgAsWLLAlS5bY3Xffbd988417R4FAQXnuuefc5B2FYM2aNcbk/Isvvoh5WVEKUACCygiT/gMOOMApAr169bKJEyfaqaeeam+88Ybtt99+xpoWTNgXLlxoF110kVWtWtX++usvGzFihGuHfj3++ON2xBFH2Keffhqz3Xj998rByy+/bKNHj7addtrJUBJQRmjjmmuusWOPPdYtBLnjjjvawIED7bzzznPKj29ot912s969e7uPzZo1s9dee8223XZbq1Gjho0cOdLx+Pjjj+2RRx4xlKzatWvbn3/+aVdccYXjwNgYc3S91CFJP4G0KiMfTJ9pvy3+I2Yv96ixq/2rTs2Yx7RTBEQgfARkHQnfNdWIRCDbCZDelwch+SKVKlWy+vXru9eBBx5ojRo1srvuusvOPfdce/HFF92EnCxjKBa77757wlgmTJhgTOKxJCAoNfPnz3fKAcrIe++959rEojJq1Cjr3r27K7fNNtu4/XzgfM7DcrH33nu749F/4vV/k002sSFDhtiwYcPs9NNPt9tvv93q1avnTuecWrVqOWuJr2/fffct9Jn9WFO8YBXabrvt/MfIO8oSnFBwGDOf165dGzkeq97IQW2kjUBaA9h/nP+L1d2zesFrt0Lvu1WtYgsXLUlbp1WRCIhAbhDw1pHc6K16KQIikMsE8v1+g3Vi6623dq5THTt2NNyoECwBZ599dlKXFqvAcccdV+gcJup+LRdcu8466yw75ZRT7IknnihULvgBt7ApU6YEd8XdDvb/u+++c8oPfcD9bPz48XHP4wCWEhQjXu3atSuybPBghw4dnMLDPjiddtppwcMp11uoEn0olkBaLSO0VnHLzQteWxRqeMXKVYU+64MIiEB+EJB1JD+us0YpAiJQ9gTWrVtny5cvN1yUttpqK+d6hQvWK6+8YnfeeWdSHcSS8P333xc6h7iMpk2bujZwwfrwww+tQoUKNn36dJs5c6ZVr169UHk+/P7771azZs2N9sfaEew/MS7/+9//7JBDDrFvv/3Wnn76aacYxDqPfWPHji1kCYlXLnp/tWrVbOeddzY4vfPOO85C8swzz0SKpVpvpAJtJEQgrcoIX6SVBYrHXQVf+nLlzDYUdKHgzTp0PNs4JhEBEcg/Av5pJe8SERABERCBzBAgMLthw4ZOEaEFXLUuvPBCO+qoowzXpmSkbdu2zs0KFyncnQhOZ5JOUDyxHNRNe0jfvn1drMjVV19dqIn333/f3nrrLXvooYcK7Y/3wfd/yy23dLEcxHQQ44GChUJDHMr2228f7/SU92MNOeecc+yEE04w3MMkpU8grdTXFQQ0LVu20gVLrV69xtYUvHhftWqV/SVlpPSvrloUgSwggHXkpptuyoKeqAsiIAL5QCCfVmInI5R3T2LiH3yqjwsV1gsUiuKEIG4sG7wI2kYJuPTSS51y06RJExf70b59ezvooIOcW9YZZ5xhm2++uXudfPLJ9uijj7qg9mXLlkX6QxzGSy+9FDNWw/cnVv9x69pjjz2sTp06rv7KlStb69atnYWH81AYgkoD20ceeWSk/4yBQP5EpFzBk3PcusgYBq901ZtI2yrzD4FyGwrkn4/Jb5G+06f2feb516zWbjsVfHk2LbCIlCuwjGxw74uWLDXbdDM75ohDkm8gTWeQ+YEfKk8NMMmlWzJdf7r76+vDvEqqupNOOsl4EpKq8GSELBdk7MiEkOWCjBkE0B1//PEui0Ym2kmmzuB3P5nz8rEsygiZbv4t60g+Xn6NWQRKjUBZ3Wsy+f8gXXXz/5N5UFBw52ISHk/IxDVv3jw30Uf5SEVSaTeVdvL9HOahZEHbbLPNkraElYRdOr6faXbTWm9L/ihQPCIOWn87aq1d+5dtvmVajTAbccMvMTpTAmbFihUrurJMlI8++mhnXmQyG0/44W266abuFa+M3x9sM1b9ZGTAPY3830GhLEIqPSbZ/MCD2jhPFshIES1YmDBfxhPqRcun/0EJcsDcyc2HcggZKggUI3UfQh30O9gOX3DyfQf7FL2PJxjRrnhLly51qfRcxYE/wf4Edhe5ibJDzm8ms6T4++mnn2zXXXct8hwdzB4Cih3JnmuhnohAmAnw0CPfMmolej2xMESnP/ZresSrg/kJlpeSSCrtlqQ9nZt7BNKqIWxfaStbtnJNwWttofc/1663LStslhE6c+fOddYO/AgxzZFrmzRybdq0cZNu9lGGhYAQfALR0mMJT1RYzIa6MDkiTNp9pgh+kEyKY7UZXT/lCCIjP/a1117rJuoszkMKPn6YvFgMiEk/E/lFixa5pw+YC8ljTb8JFsPXEksO5/k+Rfedc3y9e+21l8sDTjAWfW/ZsqV16tTJ+VriO4pCQYo9smw89thjbtEfzLhYtwYNGmQEc6HAXXXVVa6ZMWPGuPzh9KlFixZOUYm1Dx9S0uMhbGOBwkeVbBs///yzDR482I2LNH8oQz7/tzsh8AcFhn6TNx2hHjhNnjzZ+vTpE3mqw/gkuUUARfK/BSkmJSIgAiKQSQK6z8Smy/923J+CL+YamZayajfT41L96SOQVmXk+DaHW8eTjon5OqLFQenrdaAm/CN5sk9+aBQCMjp88sknbgEbFtr5448/3EQYVySESXisJ+ooGEx2yTiB8sBE3Vswgp5sbMdqM1g/bZKbm2wQzz77rFvpc+rUqZH6mMxj/aBNFvQhUwRPcugb+/BdJMUd/aAPv/76qwtAi06z5zFQBmVm+PDh7gnGrbfear7PmOvw2yRlHX356KOPXOq6M8880/DzJFUfgVsEcLFwEQyeeuoppwzgwsXqqygQ3NzJXz5nzpyY++gDL6wjKD3Uy3UYN26ckQKQY4wZJY0gN+rFKhQtKD2k2oMRpmFYsNAS7XPdsPqg5MVbRCm6Pn3OHgKKHcmea6GeiEBYCcgVNKxXVuMKM4G0KiNlAQprAytwYgEgEwNp5vhM0BR5pxFcjLy7Fjm4gy5Rvs8+d/b555/vXJamTZvm3Kj8cd5x4UJitRms/91333Xl8MOkD1gjmEwjBIJhYWDBHm6aTNoRXKPefPNNZw0hL/cPP/zgFAx3sOAPrkmcE0+I9+DFRJ7gL79oD25Yhx56qLMokKub9imDMNFHWcGNzE/ue/bs6ZQFLDpYkLBKoFTQV+rFkhNrn+8XVimUJ8aOVYPzUBQROBCbQmpAJJYywn4C4+D1wgsvOMsSq8IydlzMEJQ9+ifJPQIoJP63kHu9V49FQAREQAREQATSTWCTdFdY2vWhNLCYD5NpnpiTdg4XH9yWcHNCiG/wQrxCLPErdWKpwMrBRJqn+Ux6cWMi6Mu7d8Vq09dJ/X6y/eqrr7qJOBYBJtRFCa5JKCGsMMqEHusGlgokkYk3lgRc1HinLZQMxMerEGBEmj2YoKghKCZe/DZuYSgPKByNGzc2UuvBFDcpLCWstBprn68HKwpKB3nNyWbBKq0oJMkIaQip48orr3TWLqwhftEj8oDDEyuNJPcI8F3win/u9V49FgEREAEREAERSDeBnFdGmLwzgUZ5QFkgPR3uR7gH1a5d21lJcONico7CQfwE7j/RwsQbqwgxJT169HCKAIFdKAXDhg1zqfGYICOx2gzWT6zEDTfc4NyfSIV3+eWXRxSU6HZRQrzgOkW8CvEkQ4YMcf33x4p7J8iM2BMUhWA8hrcCYalgbChpxIbghkbshj+Oxeiuu+6ybt262b777usm/LhFESfTuXNnp+AwbtjG2ufrgRnxIcSNEJvCgkWcHxQ/Zv8ePMY21i2/WiyryCK44L3++usu+A5lyyuP7qD+5BQBAiiV6jenLpk6KwI5RYCHHrLA5tQlU2fznEBaU/uWFUssGGRX2n333SNZosh0xWTbWwjom88AxU3qt99+K9TdZs2auck/LkA8iWdy7oUsVtQTzDoRq01fP+cy0cYNiX3ehcvXV9w7qdlQSKKFeI8vvvii0G4Ug379+rmc4FiEUEqC/SxUuOAD46N/0Rm3fLnVq1c7ixDsvOAexWuXXXbxu9zn6H2RgwUbxKxwDYpaoCjeeOJZkegbix4F+xFss7S305HOrrT7nC3tiV22XAn1QwTCR8ArIsla5UtCIpP3tEzWXZIx69zsIsB8U6l9y/CaMPlmgZ6gRKf55RhP77Fu4JLExDYoZNFCYq1SGkxz68+J1aav35fxLlL+c6LvsRQRzkXx2GGHHQpVg2JBnwn8TkTpiTW+YIVYJXgFhTZ4BSXWvuBxlLGiFBHKxhtPsJ7gNv3KFkUk2C9tJ0/AB7PzLhEBERCBdBNQet90E1V9IpA5AuUzV3X21hwrm1b29vafnjG5jzXBJ0tWLkq88eTiWNTn5AjwxBJXLSkjyXFTaREQgeIJ6P5SPCOVEIFsIpDzMSPZBFN9EQERSJyAt44kfoZKioAIiIAIiIAIhI2AlJGwXVGNRwRyhABPL71vd450Wd0UAREQAREQARFIMwEpI2kGqupEQAQSJyDrSOKsVFIERCA5AnrYkRwvlRaBsiIgZaSsyKtdERABk3VEXwIREIFMEODeIhEBEcgNAlJGcuM6qZciEFoCso6E9tJqYCJQZgRYz0gLrJYZfjUsAkkRKHE2rS+//NJOO+20pBpNtHC89TYSPT+ZcrFSASdzvsomToD1R8Ig33//fRiGUeZj4AmmMmuV+WVQB0QgdARw01LGvtBdVg0ohARKrIzstdde9vjjj6cdzeTJk43Xtddem/a6VaEIpINA69at01GN6igg4K0jmjjo6yACIpAOAv4hRzrqytY6ZsyYYXfccYfrHuuaHXzwwdalSxf74Ycf7L777rP7778/0vV7773X9tlnH2vVqlVkn9945ZVXbMSIEe4j66XVrl3bLrvsMreUwC233GKzZs3yRd37Aw884I7Rxssvv+zW/+rQoYOddNJJbsHnZcuWGeehDLKGW/v27e388893555++uluMWg+sLgyx4499liLN5Z4izivXbvWHn30UXvxxRfdgtfnnHOOYQ1DXn/9dRs8eLDjsN9++9kNN9zg1qL77LPP7M0337SrrrrKlWORwLPPPtueeeYZt3g0xxEWuT7ooIPsoosucgtE8wCVB2ZTpkxx+xkDrEeNGmUjR4505/g/3bt3t6ZNm/qPek+QQImVEVbyDq7WnWC7xRbjh8Vq4pmou9jGVUAEEiAQbxX7BE5VkSgCfuIgZSQKjD6KgAiIQBwCCxYssCVLltjdd99t33zzjXv/6quvnILy3HPPWbdu3axu3bq2Zs0au/HGG+2LL76IWRPm4w9NAABAAElEQVTnsKDweeedZ+vWrbO77rrLLr30Unv66adt4sSJbj/1eGGRZRSRsWPHWv/+/d3CyxdeeKGxQDSKRbt27dzkf9CgQTZv3jynDNAH+jN8+PBIP3766Sc7+uijbfbs2RZvLPfcc49vttA7SsAHH3xgQ4YMsc8//9wuuOAC+/TTT+3999932yhDKAwoGvvuu68tXLjQvd59991CysjQoUNdGVz6zjjjDEN5WblypaHcMJ5zzz3X7Wdh7WHDhtn//vc/O/74411beAZVr17dUMS87LHHHn5T70kQKLEykkRbKioCIiACcQnIOhIXjQ6IgAikSICn8zzsCKtUqlTJ6tev714HHnigNWrUyCkTTKKxGvTu3dtZKA444ABnQYjHAWWEehCsFVgWvDCZb9Cggf/o3rGkPPjgg0abCJN6FI+ff/7Ztffnn39ahQoV3OSeh8u33nqrU0Yo69vhvV69euZdt+ONBWtNtOAmjbKwww47WNu2bZ0FZvny5c5agSKFMoHcdtttNn78eHvvvffc56L+1KpVK9K3o446yggVQNl75513bNGiRe4BeZ06dQxL0h9//OGqQknZf//9i6pWxxIgsPEVTuAkFREBERCBdBNgwvDfgomDRAREQATSQSDMSkgsPlWrVrWtt97avv76a+vYsaNTECiHFQF3pKIEi8VZZ51lJ554oit7xRVXRIpj7dhzzz3dC6sHVoYPP/zQmjRpEilTs2ZNa968uZu4n3LKKU4R8QebNWvm3O5xrUJohxeKDMpEsB5/TnAsfl/wHRcqrBTbbLONHX744YaVApew1157zVlbgmXbtGljU6dODe6KuX3zzTe7fh1zzDHOgoOlBIvJEUcc4RQRfxIWF28pQtnzbHhHeZEkT0CWkeSZ6QwREIEMEZB1JENgVa0I5CEBH0OQL0PHxQrrwG677eZc3Im3IBaDJ/l33nlnkRhatmzp3Jtwp8ISQWyFjy/BHStoGaEMgrVg5513dtvffvutTZs2zVk6otvCDYwJPLEYiI8FxrXsuOOOi1gZ3MH//xMcS3C/38YCQ8wGcR+4Xl188cUuJgY3qx9//NG5Zvmyn3zyiRHLQaIi4lm8rF692ikz/vOZZ57pFCPKkJgJhQtlCeUuKJMmTXJWGfb169cvYvEJltF2cgRkGUmOl0qLgAhkkICsIxmEq6pFIA8JEHicL/Lwww9bw4YNI7G2uGoRy4HLES5QRQlKxd577+2UDib2KArxhHheErjQHhN63KywEGzYsMGd/+uvv9qrr77q4k+og7gOLC5eaIcX7lUEe6M8REv0WKKPE4+CqxiuYFhGcJciZgQXM85FWUHmzp3rrCJYbWgTBQPlAiWGGJBDDz00UjXxHpTBpQ3LDYkAUMJwP0MhY3xwQbHBrU2SPgJSRtLHUjWJgAikgYC3jqShKlUhAiKQxwTywU3r+eefj7gJvfXWWy4Y219y3KWYfJP9qTgpV65cpMj222/vzvvrr7+cleTII490gdoEa/PC0sGEnyxbu+++u3thhSGbFvLEE0+4oG9ct3BnQjnp2rVrpP7gBq5VKBFIUWMJnsM2wfAoJChfLVq0MOJSsGagjND/atWq2SGHHGJ8B5588kmntJAQqW/fvkYWWJQXsmzx2UswNqVy5cr28ccfOyUOxQoLCFnGiBkh0J+xwQwlzHPhndgZSfIEyhVoehuSP+2fM9BIMVkFhQvIhUPIOIT5jy/JnDlzXOaFRx55xJm+yHZAdgfK4msXFHzH8dXLRHYdNFt+HEGNONh2Nm5jsiRjxkcffeR+sCXpI5kfuDmREaIkwtOMnj17un7tuuuukaow0fIUhuwWYZZY3/0wj7c0xya2pUlbbYlAeAmU1r0kk+2kq+758+cbCktQmKCjtKQqPpA72vKC5YE5Am5OxHWkKsx5orOAoRQQh4L88ssvrv6KFSsWamLp0qUuAB1lKahkUAg3M+aAKCxBJaxQBTE+cA7jxBqTjQJzgu5xh4u+Hpnsbzq+nxmxjJCiDV8+ApB22mknZyZEiybYiP2rVq2y66+/3ikaaNLRikii0Ei/loiQ1YGXFwK1fM5rv48vbiyhr16i2+OpQfB4vHJ+f/Ad02a0UB8vL8E+EZzFxB+/Sy9B38fgPr6QQaFccF/jxo0jfp6Uw8c0lk7K2GLt93VzE8JMSj99NgyOkYubG4hEBFIlIOtIquR0ngiIgAjEJsDTfuJogq/gnCL2WUXvZdIba+KLAoD1oCSKCC0zPwz2l20fPM5x3MuiFRH2k36Y9qMVEY7hZkZcTTKKCOcxn81WRYT+5bJkRBnxQFg0h8VxyCPNwjheMIvxevbZZ+3UU0/1uxN+J1sBadvQ6PmikmuaXNQ+kIr82nzJmNiTHYEvECngevXq5TRsJjqYF8kWQX5q/Bb5MWHBoa7p06e788n0wJccSwJfftobMGCA6yfmQbRqjvsFdGgTc2E8X0KCu3wZTIoES6Gh40tJNgluFCy6AytMj/QJv0V8H70V5/bbb3f+i2S04MeGWZCxMFa/jyAtsmfE2kfnYc8Y4Yg/KTcL/CS9eZF6/dh5qlCU7yj1oVBiFqXPKDZeeALDeGElEYFkCGBaxzrKSyICIiACJSGg+8jf9JivEBcRfDGHyGZhbhHsL9s77rhjNndZfUuBQEazabHIDk/kx40bZ3369Il0DzctJNXczKNHj3b5s6mXBW2YRDNp9uKf5q9YscJZX1CKCJLiiT1+gigl5N8m7zUWEp7qz5w50ykVZHlgwo+QCo9VOMml/cILL7gFgOg7E3jSyg0cONApKJTr1KmTOweTYbzJt7dOMGnHf5JzOJf9BFQRaFezQJMnMIxjLDhE4BmKAv3FbxOXOMZLUBaKC6ut0udLLrnE4IKvJuP+7rvvnJtb9D7XyYI/MEJhQSHEioFPJMqRDzJDoWHxINqkHMziCSZeVnb1/qmUI3sFVhOsOfCSiECyBLx1BMUkW0WTnGy9MupXaRDI5t+mH38mXL193XoXARFID4GMKiNMsnHVYjLLBHvChAmu11griCtgwk1KNkxmyQhP3LEUMFHnhQRTyXlXJywZPXr0sHvvvde9eIKPhYQXwVY8JWCyzmSehXeIoUDJ8GnrSGuHvyPKCEFRWFFQWggIQ5hoUxeWF3wxEdojv3dRcvnllxuL6zBJxxKD0Bb7qR+/RCb2KC3c7OFGnmsEKwYp97CG+LR78MOSQdnOnTu7csThxNrnDv7/HzhiosUqg6WG6+Ldq2CFIsZTk6ALVvB8v01Zb5Xy7meeUbY/dfFj0Hv2EeD7jILOhJ/tbBTi2rK5f9nITH0KD4FMxXWmmxD9zNZ7SLrHqvpEIBcJZFQZwfIQKx4EFyvSpZ1wwgkuduSOO+5Iih15pPv37+8yMKBoMJEmFRuTeCbT3iWMhXlwRZo4caLNnj3b5aH2k21iSFBaUJKwsOCKReo2bljFKUd+gZ6HHnrIrS6KskUcBoJyUpxgZcEqRCwHShUTdxYqQnAHQ+EgLziKEKuGRgeCo4QwVhQ52qZNslGg4NAnXNbI8EAmieh93qWMtgg6uuaaa5xi89JLL7ErsvgQiQcSFZ87PFgerlx7+oFihcImEYFkCeSCdYQ+aqKT7JVV+VwngBLOJD/bhd8mDzVkIcn2K6X+5TOBTcpq8FghmGRj0eBJfzLC5BaFoFGjRi4gHlcn4lJ4oZQQ7I3gV0gWKqwK5M1mFVGUgH333ddYoAfXJtyPCHBi4ozyQoYvL9GBT8Q/ICgOd911l0stR10oFT6blC/j64j1/uijjzqrBgoQ7mNBwWIzePBgp1DhnoVC4a0dvhzuVPhREmNC/m4yS9SvX9+5VfFOejzc4lD4cLUK7qN+L3BEIeQ4rmWPPfZYJD+5L5Psu2eGRYS0eQjJCiQikAoBP8ln4iMRAREQAREQAREIH4GMpPZNByb/1KWopxlYB5iUB5/MoxhEZ2+gHNYTArO9kCkKxYH9COnQmNwnI7gkYV3BHSxaxowZ41YnDe5HiUEBYAEd+hgrA4UvT0wH7lGML57E6jOp9AigD1p3Yu0L1klWLPpWlDUk1nhIrYcilK+SjnR2+coumXFzL+DJZnQK8WTqyFRZ+kV2F680TXz3I6u4RYWCewtxWebereB95tc/2Lkd22aqG6pXBEqdQCL/o0u9U3EaLI17dSbbyGTdcZBpdw4SIDQiV1P7/vOYPEfA86SfoPVEJRFLRaJ1JVOOIHKsMkEhWB53JawH1113XfBQ1m/HGg8uZEFFsKhB3HfffS5Op6gyOiYCsQgw0c/22JFIvws0kH/V+SeZht+PMiIRAREoOwIoT/6hQdn1Qi2LgAjEIpBzygi5oXP1htK8eXO3QA8Xgqep+SRYkIIuYvk0do215ARyIXaEUa4t+J5PmDCx0ICJC9uwvsA8IhEBESgTArk6ZygTWGpUBMqAQE4qI7g65bqEYQy5fg3U/9whwGQiF6wja1avMZ7ABmXffRsUWnQ0eEzbIiACmSfAwz9l1Mo8Z7UgAqkSyDllJNWB6jwREIHcJpAL1pHVa9baOZ27FAK9bHmBy2aBL69EBESg7AjwkKCoGNSy65laFgERKLNsWkIvAiIgAskQ8K4W0ZaHZOrIdFksI8uWLi/IsFfwCrz7BU8z3X4m6h8wYIBLGZ5I3aQIv/TSSxMpWuIy06ZNcynbS1xRmiognvHKK680UtUTYyfJHgL+3pE9PVJPREAEggSkjARpaFsERCCrCXjrSLZ28vdlq2zm3J9t5jf/K/S+2aa5e6udOnWqW++IxWBXrlxZJPo5c+YYmffIBugXQC3yhIKDxdXpzydTYlCpY80k0qQHZenSpcGPkW3WlUKIXVu7dm1kPxu0H51sxO8vVLCID2Q+JA07i9iyvhYL6Uqyj0A2P8jIPlrqkQiUHoHc/Q9ZeozUkgiIQJYQ8E84s3VScfG5J9nF555c8Cr8fv5Z7bOEYGrd4Kl/hQoVXBrzp59+2rBKkKnwq6++sp9++sltswgrwnpNu+++u1vn6e67747b4GeffWYtW7Z0dR544IFGivF27doZi+IirA111FFHOQWC/aRm32677dxCr6yJNHnyZMNqw8KvLHTbsGFDly79rLPOsp9//tkeeOAB23nnnd0aUiwMS31k/yPt+ZQpU5wC0q1bN9c+yTVYjHbGjBluLPSrU6dOrh/Rf1q0aGFt2/6dphmFiDWqWHQWeeutt9z6Sp5F9Ln6XHYE5KJVduzVsggUR6DEMSNMCsiBnQmhbl4SEchGAvpuls1V8dYRr5iUTS/yq9Xly5e7CXf37t3d4qi4Innx1gqsIQgWjHvvvdc+/PBDY7J+7rnnxlwvCUWCsigGl112mY0ePdopHsH6sFgQeMyxJ554wrk/fffdd9ajRw978sknnQLCYrY1a9Z0ygOKEgoMC8aigLDG1IgRI6xnz55ugVzqInnIc8895/o6cOBAw/JDuvguXbrY+PHj3X6UlmuuucZtR/9BSenatauzqOCWxqK7n3/+uVs7inWrqlatatOnTzcsScH1nqLr0efSJcD9ws9VdO8oXfZqTQSKI1BiZYQfdSYWI2OiR916mlHcJdTxsiLg/7GVVfv52i73hVzIrBWm60M2ogYNGliTJk2c8hAcW7SLE+nXUUCaNm1qjzzyiFNiuGbR8tprr7kYC1IfY2lBhg8fHinm3amwmnB+586d3bF+/fo5Kw3rNWGt+fbbb53SgZKBdYSyEyZMcNYL1nXid0q/WWgWq0adOnWcq9bEiX+nYD7++ONdvSgv3s3r9ttvd3VFOhPYOOmkk5wyMnjwYNf2qaee6iwqKFYoZLh90ZYUkQC0LNlM5UHG66+/7r4XBxxwgNWqVWujkTBX4X4UlFmzZtktt9wS3OW+M6+++qpbY4zFjBcsWGC9e/e2yy+/3P22KIyCffrppye8flehBor5wPfy5ptvtv79+xdTMvbh8847zz2ICB694oor7J577gnu0rYIpERgk5TO0kkiIAIiUIYE/KSiDLuQV01HL27KZArBqoDlISjz5883Jmi4TiGNGzcOHo5sH3TQQTZu3Dj75ptvnLLARKxKlSo2c+ZM++ijj5wbFoVxgWISyH6sF0zgiP1AVq1aZXvttZeb/L/yyivObYzFWFFIihJczHyZd955x4YMGeKsLX5cWDjiyY477mjHHXecs+YwQa1bt641atTIFcey8uabb0bqjleH9pcNAa45L5SHaAUiukdY6LCo8X3CwoY1ju+rF77jKLrUE/3QdNGiRTZv3jynbJPUgFe9evWchY/vLIoICj6KNkr+jz/+aH379nUKt1fCfTuJvHurZFFlieHCMpiqYJ2MFn5zEhFIBwEpI+mgqDpEQARKlQATCoQJgaT0CRAngcsW1gpcnLwwyccqQIzHbbfdZnfddZeL9fDHg+9M0JiUYakgwLxNmzZ24YUXGi5hTPK9wlG/fn0jZoX3559/3vr06eMWUG3WrJmzvIwaNcqwUqD84J5FILm3ogTbi97GcnPaaae5cy666CKrVq2aYW1B/Hv0Of7zmWee6TZ9O4yhdevWdvTRRzt3sAsuuMAX1XuWEUBx8MqDV0pi3Uf4rlWuXNlZOC655BJnAUBppWxQCcEzxN+PgkPl3P333z/yQtFGiGdCEUHRwd0PwSJXqVIlt53MnyVLlhhxT7Vr13YWFZSmoUOHWocOHVy8FAoV7pAozB07doxUzThQhNiPskXsF+6N/MZIwhBLUKL4jXLOoEGDChXB4tKrV69C+/RBBJIhUK5Aoy7R0sD8KDPlpoUW728ayQxKZUWgNAhk6rtfGn0PQxtMCphMZOL+kygf2mdiEWsykmgduVwOxWGrrbZyQd/BceC6xZPYihUrOivHF198ETzsgr6bN2/u9jE5I84CRQbxGa9wmwoKT4932WWXQu5PTJCw2hCAzr8yslp560bw3KK2OQcFatNNNy1UjH4wsYsW3LQoH0t++eUXN6ksyrIS67xc3MfvL9f/R/sxeP589oJ1g0l2+/b/JJ+oUaOGs2JQJtZv3t+LsLZxX/BuXVtvvbWz8DGR5/vG95a2oq2GJFwgJorfTVDi/a9BKeA7d/3117uU0vxm+O4NGzbMsFrMnTvXKT1jx451FkzKk/Dh5JNPdteO2CasjSheKPF8RrGJJfw+6TMPCvgdLl682PbYYw8jYQRJLEgqwe9QUnYEUD65LtwTU1FuU+15vO9nMvXpm5MMLZUVARHIGgJMBlAG+AcZa2KQNR0NcUeYZMUSJvZ+QoUVZYcddihULHjerrvuWugYE5pYkxoydEVLUGFhspSsIkJ9ZOiKJYyBCWW0BNuMPsZkUpI7BLhvBO8dwYefuNyRoMArI2RbY+JNLAj3nT59+riXP4cJWVBIrECMSLTcd999bheWCib/KPOpCvEsKCJY8lq1auXSSmOhO+GEE9xvAWXxmGOOcQoKGeJQRhgXcVZYL4NCPFU8RYRyKOBYI/ld4KrIwwZcMkkaAZdYv9lg/doWgaII/G2TLqqEjomACIhAlhJgIsDEQJK9BFAQeIIafDGZyXZBuQn22W9r0pXtVy49/TvyyCNdPAfuS7g94SqIGyHCfcc7lfA9iXUPQkEIvnyvmPTjHogLFwHgJREsKwTLI8RZoSwg3s2QWCYyvSGk0kY4ByvIG2+84RJGePctf44rFOMPSni09ZBkFcRyoZCQFlsiAqkSkDKSKjmdJwIiUOYE/FNNrCMSERABEUgnAWKJCNx+8MEHjTVzmHwHJaiUBPejoBQn1Emck0/0UFz5WMfJvMXCnyg4ZKcjsxvi22c/8SjEh7AYJ+6TBMwTv4LiQvY5lGykOGXEFYr6Q8Y41v9hLGTb8nFeUcX0UQSKJZAxNy1MmV5jpxd8+fnhsI+0j8jjjz/uMk5g7iwN4YeIFs+PsbSEFJHcIGrWrBlpkhz95xQs7EXaSYkIiEDJCHjriFdMSlabzhYBERCBfwiQPrq4/9Xcg4IPRIiH8jFR/9RkLlDcf8ZiSLxHUKI/B4/F2sYFkgU2f/vtt4grpLfeUJ7YAZQdAtuZg3mFg/gOzuE4ygTilSIsLNExXrhvBftGLAri30mP7VNkuwP6IwJJEsiYMkIOdzKNkM4OQYMmhePHH3/slBFWxyUHvc/1nmS/XXHMpP4JQLzzg2XI2IL/p/8BcU7weLw6SrKfzBT4cAaFmwcBZMXd4ILnaDs7CfD9Q5nmn1G0kLEE0zXXmRt1aSrB0X0J82eUEMWOhPkKa2wiIAJFEYiOyYouG2uuEe+c4mK8ouvWZxFIB4GMummhiPjUdsGJGIrIkwU55ck4kUrAH9kCMAkS0MikHosH5kYvLHCFMEFkQS2CubCIYKUgcItFetD82U8qSPLWI9R54oknWvXq1Z0iRUAa9Y4ZM8Ydnzx5skttx3EUKQTzJ+cUtfAPK/nyA2dxI7JoeCH4jFR5K1as8Lv0nmME4vkNk9KUtKXkpif7CKkhCfaTZIaAt45kpnbVKgIiIAL5QSBXY7zy4+qEd5QZs4yAjGwSPmsKTy7JrkJOelaqJT1iPM28ONykpuPcH374wWW24Okz6fC8MOmjDfJrs5+0cz7FHSnvCBrDderSSy81Ft7q1KmTy2qBksPEkUW8MM2Spo8Udlh42rZt6/LqE/TF03By1GNlmT17tkudx3jiCWXx56QOFvBCMInSFxZRKkk2jXhtan/pEPCBi1hH/IvsJlxXv6o0axBgFeT7FlTK6WGsbD3sl8sRFBKXsrKOsLAZaTO//vrrxDurkiIQAgJz5swJwSg0BBEQgWwgkFFlhMAvLCMIvoovvviiW+AKiwCZKnBj8fEjycBgYs8CO9QZyz0G6wNp6FjRFMsFFhSsIl7IxUwfnn32WVcHE0KsHgjp8XApw6xJxgmCv3gxmSQbhV/kCiVr4cKFRoYJLCNFCan16Cs5yqkLoT9MUlNJRVlUWzpWugSCyoRXRlBWUWaDwncOS2GwPGkXecUS9gd9kCnz7wJ3JC++nuA+fyxf3711pDSZ8PsnuxL3jHQLDyyw3PKSiEC2EeB7n8pq4dk2DvVHBESg7AlkVBlhAs4rKAcffLCb6GMhIZsDVgMWAkpGSFeHRYK6WJQICwxC3msC5LGKEGzFzRKLCEoQigmWCIQ+UQdWExYlImUf1hImgMFJZLDvKBKURcGiXgL0fd774uJWgnW6DhT8wUUN9zDyfl988cV+t95zjAATX5QGLCRse7ctMq/w3cRixneQ7xaufcGUppQvSqIVba+cUBcvJBgrEawPZSX4uah2wnKM8QZ5lMa4CArNFOvvv/8+Y3WXBhu1EW4C3I/8fSjcI9XoREAEMk0gY8oIE/miJum4q/QpcG3BRQplgKwOiQoL7LBqKBkhmAzgFoOlhDpZfRSrCJYNlBCeLq5cudL57PtFuFh0CEUAiwZliQvxFhzfZ550+m36Rf+I/UABIhD+iCOOiGShKK7fwXp8WeqjH/Xr17fjjjvOxan4Y3rPHQLEFTEJ9ivv+p5feeWVLof74MGDXVzUbbfdVkgR8eWSeacdxL+zHVRYopUV70IWfU6mJs+0U9ZSFtaRsh6z2hcBERABERCBXCZQruBJ7oaSDCAdy8DHat8/dQlOtqLL4fLk09JxjEDw6PgLAtbJDe7dKDAr4zKDtYKc2MuXL4+7Am90e3xGscHyEh14Hy8dnl+EKFZd2pfbBDL13c8UFf+b8vV75YXPXsEJg6LCdeG+4cfkx5uJdxS+TDHLZN2ZYKE684uAv58U9T86n4hk8v9BJuvOp2sU9rEytyX2mYfdlSpVKrXhpuP7mTHLSGlQCCoitBetiLAP16qgBC0wuFttt912wcPFbmNd8RaWYGGlwwvS0HY2EmByHpygBycRfmLhXcD4zCt4DpNuJFhHNo6TcTGRz/Z+ZiM79UkEREAEREAESptATisjpQ2rqPYIRFcwelGEdCybCTBxD07e4ykqjIGJfrSiwv5MWQioOxlhHChV9DM4jmTqUFkREAEREAEREIHSISBlpHQ4qxURyFkCxSkqDMxbVFAAvASVm9JWVFBCMB2Xdrt+7HoXAREQAREQARFIjICUkcQ4qZQIiEAMAl7h8O/RlggsKF5R4Z3PXvw5mXL/IqkAColvx7erdxEQAREQAREQgewhIGUke66FeiICoSOAIhBUBoLKSlBRYeCx3L9Kqqh4Cwl9CLZdEtDEh7Vu3doefPDBuNX07NnTpXSmACnAWWSVBVbJsla7dm3r2rWrS0N+4403urWQyNRXWkKQ41tvveWyCEYn4sh0H1iIlmQi3bp1K9QUGRLPP/98a968eaH9+iACIiACIhB+AlJGwn+NNUIRyEoCxSkqdBprChJLUWF/cW5Yvg3O55UOhYSMfFWrVqX5uMJknxTgrDMzfvx4YxJOtj/2k5GPLH9YbUiwcdFFF8Wtp6gDJEJkbSXSmRcnZAAkwQcp18kiePTRR7u058cff7w7lTGtW7cuZl2MgzY4jzaDSUCol/To0cIYYyX6mDp1qjsfxYP6fBnWnaJPEhEQAREQgfwjsEn+DVkjFgERyHYCXolAeeCFyxUTYd757C0mKCtM6oMvr3h4BQYLjC/Pmj/+eNBlLBM8DjzwQLfwJQtgIu+99557Z7HVI4880ikib7zxRqH05K5AAn9GjRrlVmZnBfjzzjvPncHYnnjiCbeN9YaFXpnwt2vXzrVB5sCRI0e6NZoodMIJJ9j8+fNdOdKfszbTtdde65SSBx54wKUvpx7aYGFWlBCsGlOmTLF58+ZF6q1evbqz8syYMcOtzdSyZUu3fpTrSIw/rCtFanWUo6effrpQCRaTJUvixx9/XGi/PoiACIiACISXQFZbRvwEIrz4NTIREIFUCHhlhXNjWTtQNHysiq/fKx8sthoU6kpGFixYYI8//rizclBn9IKXvq533nnHTeInTJjgdjVp0sS9jxs3zr1jCUglFzxKGcoBi6Wi6Fx66aU2e/ZsVyfHvLANg9GjRzslBcsMihCKxtChQ93rjz/+sOuuu84t0IkS0LZtW2vTpo1TYn799VcbMWKE4XKG8kNdp5xyij333HPOMjR37lz77LPPnHKDEoPLGYLSUpTbGWs7ffrpp9a9e3e3cC0uWsiQIUNs4sSJrr+elTugP1lPAKvapptumvX9VAdFQASyk0DWKiPJThCyE696JQIiUBYEgsoK7aM08GJ/UHlJ5T5DDEiXLl3cJB4rS1GCQkDZY489NpL6e6+99nIuSSgFRx11lLNQFFVH9LE5c+YYigIWkYMPPtgpENFl1qxZ43ZhnWGMnTt3dp/79esXcY3aeuut7d1333X7UTJYdwmXKzhhtcBSgsUJxYD9LVq0sDp16hguXW+++aazhrRq1cqd7xeV5cPtt9/u4lHcgRh/eMjUoEEDVy9WFi8oIki1atX8Lr3nCIGxY8fazJkzrXfv3jnS48S6iWXx1VdfNRZY3n///W2fffbZ6ER+L9H3gVmzZhlWvqAQJ0ZdKP8sA8BDDXhdfvnlrl4UfvZhyaxRo0bw1LRvozxyvfgdlpZwXyB2rmbNmpEmx4wZ4x7IKFYsgiRvNzbJ25Fr4CIgAqEnwESBCTWTBe/uxeTcvzIJgMn7ww8/7KwE9evXjzR1xBFHOIvGAQccYFgFfvzxx8ixRDb22GMPpxy8/PLLNnnyZMOV6osvvnDKw4cffugsNrhfIVggiEth4oFSxOSHCRZCXEfTpk3dNpMkLDjEgBQ3McAdDCWkXr16ziJz6623Fop7KS6GJRhz4hr//z+4lVHnJZdc4lzygse0nd0Egspodvc08d4RK8V3EasjvxnuH0yevUTfW/x+3hctWuRcGUlY4V98t7FSrlq1yikdKOU8LEAh6N+/v913333ODbJZs2ZO0Q/WV9x20CJaXFmOM7b27dsXKppsHYVOTuDDBx984JS6YNGvv/7avv/+++AubecpASkjeXrhNWwRCDsBHxsSVELSMWbiHUoqTMgJ2mby36lTJxenkWidTPx4ykh8CAoPExqUHZSCYcOG2emnnx4JKmc/MRq8P//884aLGjEgTIBoFzexG264wc455xw3OeEprVdQiurPmWee6Z7uVq5c2blXkSHMC0HyqQhPTAn0x1oyfPjwVKrQOSKQNgIvvfSSswTigogV8p577nG/uWglBDdNHm5EC78NrCn+VaVKFVfk559/djFsuD9iLUF4WPDss8/ahRdeaCeffLJ7yOAOFPNn8eLFrm9YazkPi0fDhg0jZ3l3xxdffNHdK7hf8OCB+wdJNBgTDzKIH9t7770jli3uLbhs8qAD5Yjxs41lFeEhCO6cxIs98sgjbh+uo9x7TjzxRPc51h/cN6mH+wxKmRf6QjtfffWV36X3PCNQrkAb/sfJOIXB89Qxns90CtXpFBHIGQL67mfvpfJuE0GXrEz0lnZ4whlrMlLS9uLVjTsTwei4S6HMMOnxQnYt3K2i/fdx/9hhhx0imbBI78vTURQTLB24dbGvOKuGb8e/475CrEm04EbGk9Cg0JZ36wruj7VNX5jESbKXAJNy/ztjUkwsEJPisAjWjZtvvrmQBQH3KW/JjPWb93Mh4sW4L2CVRHCJxEpZt25d+/33391EHH6NGzcuhIt9uDKRDGLXXXeNHIv3v+bRRx91KcRREnALwx0Uyyu/S4TU3b/88osdcsghdttttxnW2MGDBzulhwcSxH3RHhn9SD3OAwpiv0i2gRUI9zsy7vHA4/rrr3exYigOhx56qJF8g3sHDy8o36NHD6ec0JdY1k+UlP3228+5qaHo0A7Z9RYuXGivvPKKPfXUU/rNR654ahvcN/ktwj+VeMTUWjXnfeC/+6nWUT7VE3WeCIiACGQjAT9ByrQiUlZjx8KRqmtDCZ89JTxkntCi4DBZ8cK2jwvx++K9E5siZSQenezZz4Sc3xkTUybQYYoZYXKFhY5EESj4JH0g9grrIvcY3nn5+wwKQ1BQDLBCRAvuWEjHjh1t+vTpLj6L3wqJKIgHQ5EJKiLR5wc/v/baa9arVy+Xstv3I3jcWx9wgbzqqqvcAwgsMl6YvL7++uvOKoNFEwUKqwcPM4hn4x2FBtdNjmPdwYpD4gofh4aihUKBoNjEUkR8e8ccc4yrB6XOK0ys18SDCsWKeUr5+S5lJD+vu0YtAqEkEHZFhIvm3SJCeQE1KBHIEgIoFyj9WBqw/uH+dNlll7neMfHnxf0GJRulJFqYvMdyWcRVCmWD+JErrrjCBg0a5BQR9g0cOLCQAh9dZ/TnRo0auZgWEllgxUEBQrCQEkSP5RRBwSGe7KeffnIum359IfpHHWTZw4qDSyd9omzQShocB2nAKUv/UdKwyHiLWLCcazjqTywXV1wzUZpQxnjQIslPAmlRRjAtSkRABESgLAnkgyJSlnzVtgjEI8BEGnegsAlP/3nhgoYFIFqCSknwWNAiGNwf3MYiQJxG69atXawXbjVPPvmkK0KcCgknihMSYFDusccec1YLXKmwlOCChTLhFySlP7hIYZHAJcu7VmKlwZqFCxVlUbiwSH700UcRpYhzg+PB8kHsBwoQrp5eWaOvwXKx+h7rODFwZ599tovHwV3LK0qxzte+8BIoccyInwCEF5FGJgLxCcQyjccvrSOZIsADEe5FJfVbTbZ/tFnaMSPJ9lHlRSATBPjNsfaM7oF/040X15EO9sXVHR27xZpCpOcOCnFjKCjEmyHEnOGmhbWCbGEoXP5Y8Lx422Tjw/KCG1dQyOT31ltvBXe5vpA+XJJZAnkdM6IbUWa/XKpdBESgeAJloYgU3yuVEAEREIHME/CWDt9StCLC/l122cUfdu/B2A7crZJRRKigYsWKkTWLghWTUIMHNEGhfokIFEVA35Ci6OiYCIhA1hNAEfl3jNSaWd9xdVAEREAEQkYAJYW1kCQikAwBKSPJ0FJZERCBrCKAIoKUpYUWVxVe6RYfi5eJutPdV9WXfwT4fuohQP5dd41YBDJBQMpIJqiqThEQgYwTyAZFxA8y2i3B7y/Ju1dGMlF3Sfqlc0VABERABEQgnQSkjKSTpuoSAREoFQJM1HmVdsB6rMFlKoAdi0im6o41Du0TgWQJyGqXLDGVFwERiEVAykgsKtonAiKQ1QTILlNaC/hlNQh1TgREQAREQARynMAmOd5/dV8ERCDPCChzVp5dcA1XBERABEQg1ASkjIT68mpwIhAuAj5ORIGz4bquGo0IiIAIiED+EpAykr/XXiMXgZwi4BWRssyclVPA1FkREAEREAERyAECihnJgYukLopAvhPIpoD1fL8WGr8IiIAIiIAIpJOAlJF00lRdIiACGSGggPWMYFWlIiACIiACIlDmBOSmVeaXQB0QAREoigCKSDak8C2qjzomAiIgAiIgAiKQGgEpI6lx01kiIAKlQIA4EYLVFbBeCrDVhAiIgAiIgAiUAQEpI2UAXU2KgAgUT0AB68UzUgkREAEREAERyHUCUkZy/Qqq/yIQQgJSREJ4UTUkERABERABEYhBQMpIDCjaJQIiULYE+vTpY0rhW7bXQK2LQL4TWLFihQ0bNswGDhxoH3zwQUwcZPojri0os2bNso4dOxZ6vfPOO3bVVVfZkiVLXNEFCxZY586d7bPPPrPVq1fbM888Y4MGDbLvv/8+WFVGt1euXGm9evVKuI3ff/+9yP7dfvvtGx2/44477Ndff024DRXMTwJSRvLzumvUIpC1BBSwXvylWbp0qf3111/utWzZMneC31f82SohAiJQHAF+Vz169HAT6e23397uu+8+GzVqVOQ0r4S8/fbbGyXYWLRokc2bN8+uvPLKyKtevXo2evRoW7VqlaGIHHbYYXbggQdagwYNnJLy0ksv2YYNG+yggw5yZSINpWGDemMJShD9L0qC506bNs3uvPPOuMVR2LgPBeXdd9+15cuXB3dpWwQ2IiBlZCMk2iECIlBWBBSwnhj59u3b23vvvWdTp061du3auZP8vsRqUCkREIFoAn49I9779u1rDRs2tMsvv9xZOO6++25nIfFKCPcqrLcoFeyLlsqVK9v+++8feVWpUsUV+fnnn905PXv2tK5du7p9m222mbPAnHfeebb11lvb/Pnzo6uL+fmhhx5yv/+6deu6dxSgoUOHWocOHWznnXd252Ct2GeffZz15qOPPrL169fbgAEDjHOw3iBYZ3xfvvnmG2exYT8KEmOoX7++vfHGG268I0eOtAkTJnA4plxzzTW25557Om4oXl5ef/11a9OmjWFtkohANAGtMxJNRJ9FQATKhIDiRBLHHpwM+LTHwX2J16SSIpCfBFAg/D3HEwhm7Zs5c6abiPtjVatWdUoClgTOxZW0KKsCVhAm5QgKxqeffuq2jz32WGf5aNSokfvMn3vuucc9XMBti7K1atWKHCtqY/HixbbDDjvY7Nmz7bbbbrOnnnrKdtxxR2d5YR9j4P4wffp0QxG59dZb7frrr7cxY8a4/owYMcK5hq1Zs8Z+++031xQW14ULF9q6detc2VdeecUqVKjgzoUXn1u2bBm3W02bNrXXXnvN2rZtGxnzyy+/7JStcePG2VZbbRX3XB3IXwJSRvL32mvkIpA1BPykQHEiWXNJ1BERCC0B7jcoFNxvggpIcMCTJ0+2xx9/3E28t9tuO7eN5eLqq68OFovEtlFfUFA6Xn311f9j7zzgpCjS//2CgIAK5nR6nAHjmSNJzgQmPDFn5czxzNmTnzmiHnrmnHOOp/LHiJFTMGdFT1EBiUqaf3/rrLF3dmZ3Znd6psNT+5ntVPGp7up6632rOnzK7cvcS05aCQkJnTt3dqZNMs+S9mC33XYzdd63224756+5f9LMtGnTxrbZZhs77LDDbOedd3b7Mi2TlqR///5OmOjZs6c999xz1rt3b9tss82sY8eOrmyapxJ2M2bMcIfSlnTr1s2WXXZZdyx/Tz/9dNhr0X3F3bZtWxfWm2xJO9O9e3dTnnAQKEYAM61iVDgHAQjUlIDvGNQ0URKDAAQyR8APfEhjUEoQEZQ+ffq4jrw699IEaB7I/vvv73hJiPEDJ4rPxxmGqQ55+OevbbDBBk5gkPnTUUcd5cymZEaleRXSiKywwgpu7oj339x25MiRzr80Hz169HDela6c4pVQISctiQSRNdZYw0aNGuXO+WsdOnTIa0a8UCWtzocffujmpcn86+CDD3ZhwnNI3ImCf9KiFDpN3l944YWdFqbwGscQEAE0I9wHEIBAXQlowrp/sdc1IyQOAQikmoAXGsptb/yKWDJZmmOOORqx8fH4eL0HaSqac5dddpkTPDbffHPX/q255pomUzDNLfHzwJqLQ9dlaiUBQsKMtDkyD/PpS6C64oor8kKKNBQSWIYOHeomz6tMKpvmj0hroW3Xrl2d4NClSxcngEhjI3fOOefYUkst5Sbxa05KKUHOp+0C/fZPc2KkEdLckwEDBtiSSy4Zvsw+BKxNIOUWX2YBOBCAAAQiJuBf4v6lHnFyVY9e+ZeZRKkXc2sSjDLu1uSLsBAQAXWANWciSc+uOspRdXlauwqg5m1ocncxU6ZScZ9xxhlOm9KvXz83d8RrRArvUM0H0dySsNNyuxJ8wmEk0GjOStgpTzLp8sKYlgMePXq0afnisJM5lzQvuPoR0OIEmkck4U9CZa1cqfuzkvTRjFRCC78QgEDVCCRdEKkaCCKCAAQiJ6D2RpPO4+pkKqVfJW6eeeaxTp06uUnrTYUrFETkV2ZTha5QENH1wgnnmuOi+R+aKB92xcKGr7MPgaYIIIw0RYdrEIBAJAQQRCLBSqQQgEATBKTFTJM74ogj6lIcaW+KaXDqkhkSTQUBhJFUVCOFgEByCMi8Qz+/JG1yck5OIQCBpBKQViQqE62kMiHfEIgLAYSRuNQE+YBARghIK4Ig0nxlJ8kWv/nS4AMC9SUQxbyu+paI1CGQHgIs7ZueuqQkEIg9AQkidApiX01kEAKpIiBNLO1OqqqUwqSMAMJIyiqU4kAgrgSYJxLXmiFfEEg3gaa+lJ7uklM6CCSDAMJIMuqJXEIg0QQQRBJdfWQeAoknkOTJ62h1En/7UYBmCDBnpBlAXIYABFpHgAnrreNHaAhAINsEmD+W7frPQukRRrJQy5QRAnUkoA8isYpNHSuApCGQcQIaEKFDn/GbgOLHmgBmWrGuHjIHgWQTkHlWnD80lmy65B4CECiHgIQRHAQgEF8CaEbiWzfkDAKJJpCVeSIqpy9roiuMzEOgQgJJmcuQlHxWiB/vEEgNAYSR1FQlBYFAfAj4znnaTSNUvrSXMT53FTmBQOUEWNa3cmaEgECtCSCM1Jo46UEg5QSYsJ7yCqZ4EIAABCAAgSoSQBipIkyiggAEzJiwzl0AAQjEhQDfGIlLTZAPCJQmgDBSmg1XIACBCglIEBk2bFiFofAOAQhAIDoCtfrGiNo/HATqRUCrVs6cOdPatGlj7dolq3vfJsh8rl7gSBcCEEgPgazME0lPjVESCKSfAAMk6a9jSvg/ArNnz7Zx48ZZ+/btrWvXronCwtK+iaouMguBeBJAEIlnvZArCEAAAhCAQNwJIIzEvYbIHwRiTsCv4c+qUjGvKLIHAQhAAAIQiCGBZBmVxRAgWYJA1gkwYT3rdwDlh0B8CfCNkfjWDTmDgCeAZsSTYAsBCFRMAHvsipERAAIQqBEBr7WtUXIkAwEItJAAwkgLwREMAlknoHkiGnVk5DHrdwLlh0A8CbCsbzzrhVxBoJAAwkghEY4hAIFmCTBhvVlEeIAABGJAoFbL+sagqGQBAoklgDCS2Koj4xCoDwEEkfpwJ1UIQKByAmhuK2dGCAjUmgDCSK2Jkx4EEk5AdtisnJXwSiT7EMgAAeaMZKCSKWIqCCCMpKIaKQQEakNAE9YRRGrDmlQgAAEIQAACWSCAMJKFWqaMEKgCASasVwEiUUAAAhCAAAQg0IAAwkgDHBxAAALFCDBPpBgVzkEAAnElIBMt5ovEtXbIFwQaEkAYaciDIwhAoIAAgkgBEA4hAAEIQAACEKgaAb7AXjWURASB9BHQ6KJ+w4YNS1/hKBEEIJBaAvrGCMv6prZ6KVjKCKAZSVmFUhwIVJOAtCJMWK8mUeKCAAQgAAEIQCBMAGEkTIN9CEAgT4AJ63kU7EAAAgkjwJyRhFUY2c00gTa5wGWaAIWHAAQaEWCeSCMknIAABBJEoE2bNkb3JkEVRlZbTWD27Nk2btw4a9++vXXt2rXV8dUyAjQjtaRNWhBIAAEEkQRUElmEAASaJMBKWk3i4SIEYkWACeyxqg4yA4H6EmDCen35kzoEIFAdAggj1eFILBCoBQGEkVpQJg0IJISAvrCOaUNCKotsQgACRQloUAUHAQgkhwBmWsmpK3IKgUgJyDxr8ODBkaZB5BCAAASiJqBlfXEQgEByCCCMJKeuyCkEIiPAPJHI0BIxBCBQBwJ8Y6QO0EkSAi0k0OrVtLRiBbaZLaRPsEQTkClAGkyaEEQSfRuSeQhAoICAzE35UGsBFA5TTyDJq2m1es6IBBEe+tTf4xSwCAG98JLumLCe9Bok/xCAAAQgAIFkE2i1MJLs4pN7CGSbABPWs13/lB4CEIAABCBQbwJVFUYefuoF+3Hcz0XLtGL3btZj7VWKXuMkBCBQewKYMtSeOSlCAAIQgAAEINCQQFWFkV9/nWFbbLSudeo4p7UJ/nLBn+aUfPH1dzZh4pSGKXMEAQjUjYDmicjEUj8cBCAAgbQQkOkp7VpaapNyZIVAVYURTeadOXOWzZo1qwE/TapJw0TfBoXiAAIJJcCE9YRWHNmGAASaJcCyvs0iwgMEYkegqsKIhI4pU6baDttv16CgQ/75r0BAmd3gHAcQgEDtCTBhvfbMSRECEKgtAZb1rS1vUoNAawlUVRiRRmTylCl2zTXXWWClZYGVltuO/fFnm5nTCRwEIFBPAkxYryd90oYABGpBADOtWlAmDQhUj0BVP3oo7ceUyVNt0uQpNnlS8Ptt+8svvzQy3apeESqPSRqcp59+2r7//vvKA5cRIur4y8hCZF6mTZtmO+64o7322mt29tln2+mnnx5ZWrpvhgwZYkcddZShem89Ziast54hMUAAAvEmIO0vDgIQSBaB6gojs2fZl9/8YB9/8V/76Lef9n8cP6mmwsiECRMa1YI60RIS5GbOnGn9+/e3ESNGNPIXPqF5LuoQl+PCaRaLf8aMGUXjkl/95JSWz6NPc9KkSX63wVblKeUUR6lwv/76a4NgSrtYXDpXOM9H5+T/nnvusf/+97/WvXt3W2655RrEN3Xq1AbHOpgSaMta4iTsHH300TZy5Eg3IfHbb79tSTSECQgwYZ3bAAIQyAIBhJEs1DJlTBuBqgojg3YZYHvsPMD2DP388Vb9+kTO7tNPP7XVVlvN5ptvPltyySXtk08+MXWOBw0aZJ07d7Z5553X7rvvPttnn31cXrbZZhsbM2ZM0XzJ3worrGCdOnWyfffd1/nRymA33HCD219mmWWcZqBYmoXxq1O9xBJL2MILL2wnnXSSE8y23XZbW3nllW3++ed3v4MOOsilpQ7+jz/+aF9//bVtvfXW1qVLF1eW9957zy6//HJbZJFFXLirr766aL4fffRRW2yxxVy4DTbYwCQESbugcMsvv7wttNBCdsEFF7iwV111lf3hD39wbI455hh3Tumtu+667twf//hHx1BCibQTYrj++uvn033wwQft/vvvt3fffdetmtajRw+ba665rHfv3q6M3333namcc889t+ma+E2ePDkf3u9MnDjRXbvooovcKdWheLzwwgs2ePBge+aZZ9x5CSW4ygkwYb1yZoSAAASSSQATrWTWG7nONoGqCiP1RnnLLbfY559/bs8++6wTONRJlkCikfm33nrLevbs6QSIoUOHuqzeeuuttvjiizfKtjrfBx98sPXp08ceeeQR94X5Dz74wPkLawu0XyzNcPw///yznXzyyXbJJZfYHXfcYeecc4698soreW2IhAdpMSTUKK3PPvvMmSQpbzr3zjvvOOFCQoy0EmPHjrV+/frZgAEDGuVbJ84991wndGh0aPXVV7ePPvrICQYKd+yxx9qBBx5oxx13nDNR0746+zfddJNJEBAjOQlt0hop7/fee6+NGjXKLr74YieIyUTLO+VHP6/N0aTBu+++21566SV79dVX7a677nKCxMMPP+zKoHBhfj4eCUCKVywkhKnMO+20k6kMqp855pjDCXNvv/22D8K2TAIIImWCwhsEIJB4AnpnIIwkvhopQAYJtEtTmTUKL+Fg4403dloIdbKleZB5jzrK0nKoo60RfjmN2Ldt21geUwdenXdpRKQJ2GqrrRphmj59ujtXLM1w/C+++KLzt8MOO1i7du1snnnmcZ1snVxrrbVM2oull17aNaAbbbSR8ytthua0SBuyySabuHMdOnRwW/2TYFDKSaOg31/+8hdbc8017YgjjnBepZVReSRUSTMioUHu+OOPd1x03WuJtttuO1tvvfWcRkbmZ9JQyO211172zTffOAHGnSj4t8ceezgNjE6PHz/eCSXKhwQnaUQeeOCBghC/H+6+++5OEyQTMOVFgqC4eE2KBCOdx1VGQMJmMQGwsljwDQEIQAACEIAABKIh0LgnHk06NYlVk6rVYdYIusyi/vnPf9qdd97pOsUyGVpnnXUa5KPY/AZ5WGqppZzQIDMkdcRlkjV69GjXGX799dfdaL/vuBdL0yei+Hv16uUOpR2QxkZaEHW0m3IyZ5IQstJKKznh4cwzz3QaDYVprkP+5ptvunIr39J0yNxMTsKVJoH7Y2ke5GT6pXxJgJHwIidNRNitscYa7vDxxx932ovwtfB+YTiVUyNVEjCkFWrKSdsjQU1zRGTmprgkCP773/+2559/3nGTpgdXPgEmrJfPCp8QgEDyCbDQSfLrkBJkk0CqhBF13tW51pwDCQsytfKdXM1lkAmQJl5L87Dqqqvarrvu6s4VVr20EOedd54zS5LmQnMoNL9DQsFtt91mu+22m+s4K1yxNNu3b5+Pv2vXrnbqqafa3nvvbQMHDrQjjzwyL6AUpishxDtpGTT3RZqd66+/3pZddll/qcmtBCfNkZEgoLxtv/32zr86+jKFOuWUU5ypmISaCy+80A455BBbZZVVXGe/mMmaAktLovxIQ3TFFVfk0y+mVfJl0DUJPJqXI+FCGhW5YmF0fs4553SCpPZ32WUXbVy4J554wmm1VB7VGa48AkxYL48TviAAgXQR4Bsj6apPSpMNAm0CEw59DaTFLm6jr5rDoI6vJl/7jrFWqZIAog65d5rnoLkkGrn/6aef/Gm31QRsdf5liiUzpbA2QitKSdiQyZV3xdL08csUTPnwK2V5Ey4ftrntuHHjnEBS6E9llNYg7CRwyRxMpk36Lbroou6yzLKuvPJKN39E+ZA/77S6lvIfPuevFW6VF5m5lRIoCv3L1EwaGgkX559/vtPAyFRLWqawkwBVSluk/Mnky5clHK7e+3G79z0P5ol4EmwhAIEsEYhrm5ylOqCs9SOgfqf6aeqjaiA8Se73HnWSct1EXiUkdOvWrYGPjh07mn5hpw61hBPN2yhc7nbBBRd0XqUhCQsiOql5J4WuWJo+fu+3MH1/vrmtNCPFnLQmhSNAXkCSAKSfdxKAFlhgAWf6VCh0SCOhXzmuVF5KhZXGRSt5XXrppW4Cuyb2S/BQXsIunNfwee0rb3EURArzGZdjBJG41AT5gAAEIAABCECgHAKpE0bKKXTYTynTpLCfOO5LwNDclnKcTLH0q7XTEsNPPvlko2QlSOGqT0BaPv2GDRtW/ciJEQIQgAAEIAABCERAIFVzRiLgQ5QQSAwBaUVOO+20PtbWigAAQABJREFUxOSXjEIAAhCoJgGt3oiDAASSRwBhJHl1Ro4h0IgAE9YbIeEEBCCQIQLSCuMgAIFkEkAYSWa9kWsI5AkwTySPgh0IQCCjBFjWN6MVT7FTQQBhJBXVSCGySgBBJKs1T7khAIFCAoWLuhRe5xgCEIgngVZPYNcSsvrIIA4CWSPgvw5fr3IzYb1e5EkXAhCIIwHmjMSxVsgTBJon0GphRB8RvPnmmxukVLhUboOLwUE5S8n6j+T94Q9/KAzOMQRiQeDHH3+saz60pn4rPxNU1/yTOAQgAIFqEdDgDAt4VIsm8UCgtgRaLYx0797dLrrooqrnWg2LbEBpXKqOlgirROCtt96qUkyVRyPzrMGDB1cekBAQgAAEIAABCEAgRgSYMxKjyiArECiHAPNEyqGEHwhAAAIQgAAEkkAAYSQJtUQeIfAbAQQRbgUIQAACDQnIkoL5Ig2ZcASBJBFotZlWkgpLXiGQZAJMWE9y7ZF3CEAgKgIs6xsVWeKFQG0IIIzUhjOpQKDVBJiw3mqERAABCKSUAMv6prRiKVYmCGCmlYlqppBJJiCNiASRYcOGJbkY5B0CEIAABCAAAQg0IoAw0ggJJyAQHwISRDRPRKvKYRMdn3ohJxCAQHwIMGckPnVBTiDQEgKRCCNvvvmmbb/99u6300472dVXX20TJ060N954w53T9xn0fYTTTz/ddtxxR/v0009bkvcWh/nkk0/s5ZdfbnH4OAe89dZb7ZhjjrEvvvjCNttss6qwffrpp+2ggw5qVOwLLrjA1W2jCxk64SeUlyry1KlTS11q9rwXRKQRQRBpFhceIACBjBJQW4mDAASSSyASYeS7776z++67zxZbbDFbeOGF7YADDrArrrjC9IFEnZ82bZqdcsopbrR3u+22s2WWWaZFBMvt6P3yyy+mn3e333677bfffv7QbSUsFXPKq3eF6c2cOdOVxV/320J//rzfTpo0yWbPnu0P89tiH4uU32KuMA0Jd8rre++9Z0888YR16tTJevTo4bY+vPI7ffp0f+i2Op4xY0aDc4UHEhZvu+02l+cwp5deeskJmIX+s3YsgaRQKPn666/thBNOsG233dYJhffcc0/ZWPRilVmW4sQ0q2xseIQABDJKgMGajFY8xU4NgUiEEU/niCOOsKFDh1r//v3twQcf9Kft7LPPdr877rjDpDmp1I0fP9723ntvm2uuuZwg8+qrr9qQIUNskUUWcVHddddd1qZNG1PnW9oXCUTqnKtzOHr0aCcEqdN+1FFH2ahRo2yrrbayrl272sYbb2yKSx+zU/h1113XOnfu7LQ3yy+/vEvv4osvdmlcddVVpq/D67o0EXIKs8EGG9iiiy7qjgv/KT9bb721denSxeadd16799577bXXXsuH69ixo+2xxx5OYFBn1vtdcsklnZBxzTXXuLA+LyeeeKJLQnlee+21XV4k7Mn99NNP7qN40kLttttutvLKK9v8889vCy64oD3wwAPOz80332yKe4kllnDbU0891Z0v9k9C0Yorrug47bvvvg28PPPMM64MYpI1J/Mp/2HOsFBy2WWXuTp58sknnSCnehk5cmRJPBJAwkKI4kQQKYmLCxCAAAQcAbWbCCPcDBBINoFIhZF//OMftssuu9hTTz3lRoc9qiuvvNLtqgPdEvfII4/Y/fff7+Lt2bOnyTRp1qxZ+aikJZCbMmWK6yjus88+ppFpaR66devmhJLlllvOzjzzTDv33HNtwoQJ9u6779qcc85pJ510Ul5rsddee9mhhx7qwp511lk2YMAAU96llTjwwANdZ/+mm25yX6D3X+P+/vvvrVSnXMsPKu833HCDnXPOOfb555/n01pttdVMGhuV5fnnn3dbaSTeeecdp2FSviTMSCiQMHfssce6vEvjI3MpCVuvvPKKK4vK7hloK82HhBJpTNZaay2npdI5lW2LLbaw66+/3saMGdOAoeIodBL4lO51113nWOr6f/7zHzf6f/zxxzsNWGGYtB9Lg6GfXoj66avoEkgffvhhZ5Ko8i+wwALWr18/9yx4/34rAUb7XrPihRBermm/cygfBCAAAQhAAAIiEKkwIlMkmWpJA6BOrHfSVswzzzy26667NjIb8n6a2mokXkKIOni33HKL076E/avTLifNyeGHH26XXHKJ7bDDDiZtgzrt+rVr185pEiQcSDOy0kor2V//+ld77rnn8nnaZJNNrFevXi6ugQMH2hprrOEEgtdff92dUwdc5ZLmRZ15OaUnAayYk6ZFncxBgwY5QSAsQB155JEunLhI06F5GtLeKA9ffvmlEyYUp67LtM3nS6ZZ8itzoPXXX99ti6WtdBVGZZDW5IMPPnCCjQSSLbfc0mlHioXz55Su/Mn0S86be4mFBCRpWLLopL3Qz2tHxFn3t+77yZMn55Ho/jjvvPOcXx/Gh/PHCqsfDgIQgAAEyiPAN0bK44QvCMSZQKTfGZHmodh8EJlYrbrqqrbNNtu4uSPnn39+RYzUoZZG4+2333aChsyb1llnHRs7dqybw+BNwn744QeTSZcEDHW+Dz744PwcB2kUJLRsvvnmTsOiifSPPfaY6wx26NChyfxIuyB3+eWXu869hK0111zTnZOgU8opv0svvbQLJy2DzKxefPFF512aG2mK1LGXoCWn8ui64le8ulboZBom/xJIVJZSE/MlfIXdCius4AQb5UOCjBemwn7K2VeaqmOVRQKfBLMsOWlDwloNL0x8++23btK/BGYJk9LSSdjFQQACEIBAdQnwjZHq8iQ2CNSaQNtaJ+jTU8ds//33dyZG6khX4tTplUCw+uqruwnxMqfSvBT9JJS8//77LrqFFlrImR5ttNFGThDRyL46/Kussop99tlndthhhzmTrbZt27oOtYSXM844I58VnQ87dfzl5p57brvwwgvtkEMOcXFJSFh88cXdNe/HHRT807yNESNGuPkbd999tzPpmWOOOZwvrTgmLYiEImkwNHdkvvnmc/M8ZEa17LLLNojNp6OtNDQyM5N2x0/U99cbBAodtG/f3q2EpfzInE6aD5+XkLeSuz5+aUT8XBMtSpA1J0GkmGmVtH66P6S50n0qrQgOAhCAAASqS0ADQn4QqLoxExsEIFArAm2COQX/m2DRwhRl7y4zk2o7NTBSv3rzl2LxS3OgDrs61t5JMFDHOuzkT9oTTRz3Tp1Edah1Xm7cuHGu4++vl7PVHBRpV2QOVugeffTRvGmVv9a7d28nVHz11Vdukrs0MBIGZPokEzLlWxPpw67cfGkOiOayFIYPxxXeV95lTqSOsoQ21eONN96Yn2sS9iuzsEKm4et+XywKNTD+Whq3Ud37aWRFmSAAAQhEQYB2OAqqxJlEApoaoT6j+sTl9gXjUs6GtjtxyVUT+dCkbpkGxd2pY14o50nzUKht0YpiMm3SeWl1auU++ugjp83RCmPSCO28887OjEgmcIVOk/e9JqTwWvhYN7+fTxM+zz4EIAABCEAAAhCAAASKEUicMKL5CVoONy1OS/xqBS65WpdLZkT6hV1Ty8+G/RXb9yZixa5xDgIQgAAEIFBtAphoVZso8UGg9gQSJ4wIkTrwaXRxKFcc8pDGuqVMEIAABCBQXQIy58ZBAALJJ9Bwhnbyy0MJIAABCEAAAhDIAAGW9c1AJVPETBBAGMlENVNICEAAAhCAQPoIsKxv+uqUEmWPAMJI9uqcEkMAAhCAAARSQYA5I6moRgqRcQJVmTMShd2m1K+Kl1GPjN+hFB8CEIAABCBQhID6CE0t/18kCKcgAIEYEmi1MKLGIMqRCWxCY3jXkCUIQAACEIAABCAAAQhUgUCrhREJIlGMTEjIkYsibhcx/yDQSgL+Hm1lNASHAAQgAAEIQAACmSXAnJHMVj0FhwAEIAABCCSTQNRWGcmkQq4hkEwCCCPJrDdyDQEIQAACEMgsAUy4M1v1FDyFBBBGUlipFAkCEIAABCCQdgIscJP2GqZ8WSGAMJKVmqacEIAABCAAAQhAAAIQiBkBhJGYVQjZgQAEIAABCECgaQLMGWmaD1chkCQCCCNJqi3yCgEIQAACEICAsZohNwEE0kMgMmHkjDPOsF122SX/O+yww2zEiBF2/fXX5+ldd911Nnjw4Pxx1DuzZs2yd955J+pkGsR/3nnn2RdffNHg3Pnnn29jx45tcI4DCEAAAhCAAATKIxDl983KywG+IACBahFo9XdGSmXkueees0GDBtlKK63kvHTo0ME++eQTe/PNN+1vf/ubDR061K688kqTv5a6XC5nbdq0aTJ42M8vv/xiAwcOtE8//TQfJnw9f7KKO6+++qptvvnmDWJ88cUXbfvtt7eFF164wXkOIACBZBPYcMMNk10Acg+BFhKQpmLYsGGRfgTZZ01pIYx4GmwhkHwCkQkjQiNBZO21185TkjAiJ0HkxhtvtOeff94WWGCB/PVyd8aNG2fHHXecPfXUU7beeuvZXXfdZWuuuaa9/fbbLoq11lrLCT36YOLTTz9tiyyyiJ111lnO32effWZDhgyxfv362SmnnGLvv/++bbvttnbOOefYvvvua4r79ddft0022cRpNHSssFtttZW98MILzt+oUaPs5JNPtgMPPNDWXXddW2KJJax379521FFHFS2C8vrxxx/b1ltvbWeffXbezxNPPOFY3HPPPTbXXHPlz7MDAQgkl4A6ZDgIZI3A//3f/2WtyJQXAhCoEoFIhZEtt9zS5p57bpdVNVSdO3e2W265xSZNmmTbbbddiwQRRXbvvfe6sF9++aXJHGzkyJH2+eef55GMGTPGpXHxxRe78998843Thhx//PF22223OaFhp512sr///e9OmNl1113trbfecoLIOuusY3feeafNOeecbpRn0UUXdRoeCSOHHnqoPfnkk04b06tXL6dl+eCDD0zxqjylnPw+/vjjTqDxAtODDz7o8iKBCkGkFDnOQwACEIAABBoS4BsjDXlwBIGkE4hUGHnkkUfympG2bdva/fffb927dzdpBDbddFM3f0QmW5U6dexPOOEEU5zSfhS6adOm2TzzzOO0ENJc/PGPfzTN3fBu9uzZLg933HGHi0NrlUvrISeNiEzKZELVo0cPmzhxovtJq6P5JjI9k5OQ9cMPP1inTp2cZsWdLPFvs802c+l069bNxSVvyo9YzDfffCVCcRoCEEgygXsefs4mT51mlgtKIWvSwKw0GMlwx8v8aXHboMcaSS4eeYdAXQnwjZG64idxCFSVQGQT2JVLCQv+53O9/vrru46+NCRHHHGEffjhh/5S2dvVV1/dpJGQO/30051JlvZ//fVXpyWR5uX777+3du3aOY2IJs+HzaOUJ8UhbYrmjGhivfIlJ42Id/LnnQSJpZde2iRgSZiSJkRCjlxz81bCcfr4ZKImgeeqq67yp9hCAAKpIpCzzf6ytm27RW/bdvPgt0Uft11r1e6pKiWFgUCtCTBnpNbESQ8C0RKITDOijnxTnfRVV13VraQlEykJA+3bty+7pHvuuafts88+du2119qCCy7o5n5IU6I4O3bs6LQi6uhLEyNzqKlTp5oEEpmJyV166aV24oknOo2GNCirrbZaXoPj8yztiN9XGOVPcz8ktGgi/EYbbWRdunTRpWZdOB7vWfEpHyuvvLINGDDAllxySX+JLQQgkAICUoTMnDk7+M0MSuNUI247a/YsNwiSgiJSBAhAAAIQgECrCbQJNAMyImix0+oxUUzY1MiH7EKLmWH5zMqEKiwQTJkypdH8C01Y1wRzCRdyM2bMMJlpSVuhTsLkyZNt3nnn9VE2u5VgI82LJsWH3RtvvGGjR48On7Jll13WTWxvcJKD1BCI6t5PDaAMFiR8T9zxwNO2+opL298G7dGAxEWX/MumTZ9pG/dZp8F5DiCQZAKaFyrTqb/85S+RFyP8nEWeGAlAICEE1LfVoksa7O7atWtCcv2/bEamGakFhbAgovSKTQSXaVXYhTUwMuOqRBBRPNKueA1LON5lllmm0YR8P3k/7I99CEAgGwRmz5ptU4LBi6uvuS7Qi7QJpo78b/LI2J8m2KycNCU4CECgJQRqIfC0JF+EgQAEWkbg90kRLQtPqN8IaCL6Ukst1eC30EILwQcCEMgoAX1kVZrXSRMn28RAm6qttKrTpv5is2bOSgWVr776yn3Y9ttvv222PJrnt+OOO7qRu2Y9V8nDrbfeasccc0xFsWlkUUvCT58+vaJwMjc++uijTR+1lZYeFw0BWU3gIACBdBFAGElXfVIaCEAgJgRmBZqRz74aa+9/9q198Om3+e33P/1supYG9/PPP7ul0GUyO2HChCaLpE6+vqkkU1fNuyvXaWGSQicT2//Nxfmf6W1hfLI+1qqK7733nltwpDB84bHy5J1WTezfv39+5UN/vqmtyq7VF/WR2zPPPNNOOumkprxzrRUEWNa3FfAICoGYEkAYiWnFkC0IQCDZBAbtOsD+tvs2tk/wK9xu1b9PsgtXkHutLijtsBYDkTZIH3jde++9na+DDz7YfWTWB9H3p7QkuhYhkcBQzOnDtJqXt/zyy5s0zBdccIHzpg/U6qO2888/v1tqXaskak6gFiyRACBtlAQCfWxX5rT33XdfPnotJHLDDTe4Y5nVKuz48eNdPmXiq3MKq29QyW288cZuW/hPKzjKRFiak4cfftgtdPLvf//beXvmmWfs1FNPtRdffLEwGMdVJMCyvlWESVQQiAEBhJEYVAJZgAAEIJBkAjvssIPTekir8PrrrzuthSZTyklLISHBO9n7a0nz66+/3kqZ3Mj/2LFj7dhjj7UDDzzQrWQo7Yvi/Pjjj02TpaUZOfnkk+2SSy4xfTPqnHPOsVdeecUJLhJ2tF+orQmv16J9LdWuVRf18dmePXuazLquu+46l9UHHnjAZ7nBVgKRzO1klqVl3vv06eOWktfKjFrNcbHFFnMf0a3UzKtBIhw0SYA5I03i4SIEEkcAYSRxVUaGIQABCMSLgDQjG2ywgctUoVmVVjAMO31fav/993dLsEtwKeWk7dh3333Nfxj37bffdl71YdojjzzSfVNKJyQISdsiYUArO2q+hwQGLcOubTHnBQVpMiSE9OvXz/Ttq6FDh7oP2ipM4QIpPp4///nPbhn5J5980gky0gBpiXkJKBJwZPKlvPgVHH04ttUhUEqArU7sxAIBCNSDQKJX06oHMNKEAAQgAIGGBMKrFOqKOufvvvuuacnzF154wZlS+RB33323rbfeeq7zLkGglJNmRPMDvMnTmmuu6bz6VQp79erljmUqpWUsJQxIIHrppZecQLL55pvbyy+/nI9ewo2EH32sdsyYMe78GmusYeeee65J0JGGRZoNb6YVnkeSj+S3nUGDBjmBSIcDBw50mhHty1xLwhAj96IRjUMYiYYrsUKgngRiK4zQmNfztiBtCEAAAi0joA/eHnDAAU6jsc4665hfXl3n5a6++mrTR2qlUfACRbGUpF3Q6lsSSmSCVbh0uzQUmp+heOSkLVF8xx9/vOnDuCuttJItt9xypiXc5TSxXKtdySxLcctJqyIBYvXVV3fnJEjIzErX9S2LTz/91Pkr/KdwSk9bzZWRFkXCjya+y8n8CxcNAfoG0XAlVgjUk0BsP3pYTyikDYFyCPDhrXIoZcsP98Tv9a05HTLR0vyNQicthjr88qN5GoVOmgtNNv/oo4/cyluFgkjYv1bS0lyS8PeflK40G4Uf/tKEeWlxvIDi45HAI6HCa3gUXqZcMvv68ccfvTe37d27t/ugbYOTvx18//33Lk1pWLLmavHRQ2lFmvsYcta4U14IeAJ89NCTYAsBCEAAAhAICKjDX9jp92C8ZmKOOeZwX+325/320UcfdR+R1fWmBBH5L9bxl1BRKIjIbzHBSOdlwhV2Cq+fTMMK58DIBK2U0wpgOAhAAAIQqIxAbM20KisGviEAAQhAIGkEtNyuPhZb6A477DDTr95u8cUXr3cWSD9EQFoRlvUNAWEXAikhwGpaKalIigEBCEAAAhCAAAQgAIGkEUAYSVqNkV8IQAACEIBABglozggT2DNY8RQ59QQQRlJfxRQQAhCAAAQgkHwCLOub/DqkBBAoRqAqc0a0igYOAlkjwIsxazVOeSEAgXoSQCtST/qkDYHoCLRaGDnttNOiyx0xQyDGBLTsJw4CYQITJ060L7/8MnyKfQhkgsCECRMiLyfCSOSISQACdSHQamGExqEu9UaiEIBADAnoOxZnn312JDkbMWKErb/++jZlypRI4ifSdBFobknkapdW96c+/BiVQxMdFVnihUD9CbRaGKl/EcgBBCAAgXgQ0Hcmrrrqqkgyow8qRhV3JBkm0kwRkLl2hw4dIiuzlvXFQQAC6STABPZ01iulggAEIAABCKSKAN8YSVV1UhgI5AmgGcmjYAcCEIAABCAAgTgSGDx4sOVyuThmjTxBAAKtJIBmpJUACQ4BCEAAAhCAQLQEJIzgIACBdBJAGElnvVIqCEAAAhCAQCoI8PmAVFQjhYBASQIIIyXRcAECEIBA8wReeuklmzFjRkmPU6dOte233z7/O+uss+yLL75w/o8++mi74oor3P57773n/Jx//vkl44rywsiRI23HHXe0SZMmlZ3M7Nmz7emnn7bvv/++ZJh99tnHnnvuuQbXH3vsMfv73//e4BwH6SEgLcZ1111XlQL5VbT4jEBVcBIJBGJJAGEkltVCpiAAgaQQuPLKK23y5Mklszt9+nS77777TNtll13W5P/AAw90/p955hl755137LPPPjOtlvXNN9/kr5WMsIkLv/76a6OrM2fONP2807dQCp0EJgkU99xzjxWLI+xf5Zg1a5Y7pXj79+9vWta1lFOcKp8Y+Xx88skndv/995cKwvmEE3j00UfdvVSNYui5QBCpBknigEB8CSCMxLduyBkEIJAiAtKOnHvuuXbooYfaU089lf9eyOeff26bbrqpLb300vbkk09aly5dKir1a6+9Zm3atLENNtjAOnbsaHvssYcTfLbddltba621bP7553cCz4MPPmirrbaade3a1fbcc0/79ttv7bvvvjP50zcppKXxTvHdcMMN7nCZZZbJfztF5jILLrigzTfffHb11VebtB5y22yzjY0ZM8btF/t38cUX2zzzzJPPi/cj4WvJJZe03XbbzZ9iCwFHQPeaBBE+LssNAYH0E2iX/iJSQghAAALNE/DmIJV+z+D111+38847zzp16mQ+jmKpqXP//PPP29133229evVyAoD8STCRk4ZBgkKlTqZSchI0DjroINt1111tr732Mp3/+OOPTZ26P/3pT+6DdLp28803W79+/WyFFVZw6Uk7IzOqiy66yGQq5l145SLtf/rppybzG2l2xo8fb9dee609/vjjduutt7rf4osv7oM22nbr1s1uv/1269Onj0koUjl//vln22KLLWyppZZycTUKxInEEdCzo99///tfV7+VzvUIPz/ShqARSdwtQIYh0CICCCMtwkYgCEAg6QTU8SnsLKnzU+m3DGSi1Lt3b5t77rntL3/5S5NY5pxzThsyZIhtueWWeX/LLbecE0SGDh3qhARpGVrijjzySKddOeCAA+zVV191UWyyySam8++++66NHTvWdthhBye0KJ/PPvus03BIo6IRaJlpaS5HoZNZlpwX0vbbbz9r27atnXDCCU4Do2squ86VcgMGDHDpSgvyyy+/OGFEc1NkojZw4EAnyJUKy/lkEdDzI8FTAmclz5LuL92Xcno2w8fuJP8gAIHUEkAYSW3VUjAIQKAUAQkh6vBI+PAdoFJ+mzuvibrSdMh0qVC4CYcdNGiQM48Kn9P+Rhtt5LQSEmpkPjV69Gj74x//WOit2WPNzVh77bXdBPSePXuaNDYSEuSWX355Zyb10EMP2QILLGAvv/yy7b///u6L2RKORo0aldfQyP/CCy/swisf3vxq1VVX1SV75JFH7KuvvnLajFdeecWd05yTplz79u0bXZbZ1iWXXOJMvaSdkeCESzYBCR96nrxJXiXPVtivnks9SzIXlJlW+FqyCZF7CECgGIHSQ1nFfHMOAhCAQIIJSACRFkCdpjh1ctRZv+WWW5wgIVMqP0G8EtSaw6EOvVbEknAUdu3atbNrrrnGmUjJPKtHjx4m4Uhpde/e3SRoaO6Jd2eeeabddtttbi6HOpZya665pkkrIs3N4Ycf7ibayzRNYRXP119/7YM3uVUHU04j58qD8nrIIYc0uSJZkxFyMZUEJJDoGdXzqucWBwEIpJdAm8AWmE+aprd+KRkEIBAioI5wtZs8mTctssgiLpUoJ9yWilsaFQkXEgYkODQ170RlnzBhgtPihLDYjz/+6Camh89NmzbNJCRJkAk7zfWYY4458loXzU2ZMmWKffDBB84cLOxXk981TwSXfgLSZHjNyPvvv2+dO3c2zRVqrfNaTCayt5Yk4dNOQG3xuHHjXLvd1HsgjhwavmXimEPyBAEIQKAKBEp15lsbtRdEWhtPS8NLYJBZleZsSENRL6dvrRR+b0WCTIcOHcrK0kknndRIo1NWQDzFjsCKK65YtTxJQzJ48GCnHcFcq2pYiQgCsSKAMBKr6iAzEIBAFAQ0uqqOTBo7M1q+1390UJ22pLqVVlopqVkn3xETSONzGzEyoodAogggjCSqusgsBCBQKQEJInIaYU27W2edddJeRMqXUQJ+QCGjxafYEEg1AYSRVFcvhYMABKQtqPY8EahCAAK1IyDNSJK1frUjRUoQSCYBVtNKZr2RawhAoAwCGk2lE1MGKLxAAAIQgAAE6kQAzUidwJMsBCAQPQEJIrXWimiifBROy5tGFXcU+SXObBHQ/cmKV9mqc0oLgWoRQBipFknigQAEYkWgXlqRqDpkUa0GFqtKIzOJJeDnZkVVAJlqSeBhMntUhIkXAvUjgDBSP/akDAEIREigHlqRCItD1BCAAAQgAIFUEmDOSCqrlUJBINsE6qUVyTZ1Sg+B6AigEYmOLTFDoN4EEEbqXQOkDwEIREIgC0v5RgKOSCEQUwLDhw+Pac7IFgQg0BoCCCOtoUdYCEAgdgSitl2PXYHJEAQgAAEIQCDBBBBGElx5ZB0CEGhIQBNc5dCKOAz8g0CqCPjnO1WFojAQgIAhjHATQAACqSEgMw4EkdRUJwWBQJ5A37598/vsQAAC6SKAMJKu+qQ0EMgsAcyzMlv1FBwCEIAABBJMAGEkwZVH1iEAgYYE0Io05MERBCAAAQhAIO4EEEbiXkPkDwIQaJYAWpFmEeEBAhCAAAQgEEsCfPQwltVCpiAAgUoI8IHDSmjhFwIQgAAEIBAfAmhG4lMX5AQCEGgBAT5w2AJoBIFAQgmwolZCK45sQ6AJAmhGmoDDJQhAIP4E0IqYjR8/3uabbz6bOnWqq7DOnTvnz8W/BskhBMojwFfYy+OELwgkjQCakaTVGPmFAATyBNCKmM2cOdPmn39+t7344ottyJAhDc7lYbEDAQhAAAIQiCEBNCMxrBSyBAEIlEdAJhvDhg0rz3NKfbVr185yuZwr3cknn5wvpT+XP8EOBBJOQN8a0beE0JAkvCLJPgQKCKAZKQDCIQQgkAwC0orQKUlGXZFLCEAAAhCAQCkCCCOlyHAeAhCIPQG+KxL7KiKDEKgqASawVxUnkUEgFgQQRmJRDWQCAhCohADfFamEFn4hkA4CaELTUY+UAgKFBBBGColwDAEIxJqAF0TQisS6msgcBCAAAQhAoCwCCCNlYcITBCAQJwIIInGqDfICAQhAAAIQaDkBhJGWsyMkBCBQYwJeK1LjZEkOAhCAAAQgAIGICLC0b0RgiRYCEKg+AT5wWH2mxAgBCEAAAhCoJwE0I/WkT9oQgEDZBKQVkTCSVcfk3azWPOUuJMCKWoVEOIZAsgmgGUl2/ZF7CGSGQNa1IsyTycytTkGbIIBQ3gQcLkEgoQTQjCS04sg2BLJEIOtakSzVNWWFAAQgAIFsEUAzkq36prQQSCSBrGtFEllpZBoCERDo27evDR8+3NCQRACXKCFQJwJoRuoEnmQhAIHyCKAVKY8TviAAAQhAAAJJJIAwksRaI88QyBgB5ktkrMIpLgSaIMAE9ibgcAkCCSSAMJLASiPLEMgKAb4rkpWappwQKI8A5lnlccIXBJJEgDkjSaot8gqBDBJImlaEUdsM3qQUGQIQgAAEWkwAYaTF6AgIAQhESUBakaQJIhq11eRaHASySKBWWotapZPFOqTMEKgHAYSRelAnTQhAoEkCSTXPSprw1GQlcBECMSUg7SPPWkwrh2xBoAUEmDPSAmgEgQAEoidAZyN6xqQAAQhAAAIQqDcBhJF61wDpQwACDQgkVSvSoBAcQAACkRJgblakeIkcAjUlgJlWTXGTGAQg0BwBPnDYHCGuQyDbBJgzku36p/TpI4BmJH11SokgkFgC0opIGMFBAAIQgAAEIJANAmhGslHPlBICiSCAViQR1UQmIVBXAn379nWr1qEhqWs1kDgEqkYAzUjVUBIRBCDQGgJoRVpDj7AQgAAEIACBZBJAGElmvZFrCKSOgLQirKCVumqlQBCIhAAT2CPBSqQQqAsBhJG6YCdRCEAgTACtSJgG+xCAQFMEMM9qig7XIJA8AggjyaszcgyBVBJAK5LKaqVQEIAABCAAgSYJIIw0iYeLEIBA1AT4rkjUhIkfAhCAAAQgEF8CCCPxrRtyBoHUE/CCCFqR1Fc1BYQABCAAAQgUJYAwUhQLJyEAgVoRQBCpFWnSgQAEIAABCMSPAMJI/OqEHEEgEwS8ViQThaWQEIBA1QmwolbVkRIhBOpCgI8e1gU7iUIAAupIDBs2DBAQgAAEKibAiloVIyMABGJLAM1IbKuGjEEgvQSkFaEzkd76pWQQgAAEIACBcgmgGSmXFP4gAIGqEdAHDnO5XNXiIyIIQCBbBPr27WvDhw9nUCNb1U5pU0oAzUhKK5ZiQSCuBKQVkTCCgwAEIAABCEAAAggj3AMQgEBNCUgQYQWtmiInMQikkgAT2FNZrRQqgwQQRjJY6RQZAvUigFakXuRJFwLpIsCcs3TVJ6XJNgGEkWzXP6WHQM0JoBWpOXIShAAEIAABCMSWAMJIbKuGjEEgXQT4rki66pPSQAACEIAABKpBAGGkGhSJAwIQKIsAWpGyMOEJAhCAAAQgkBkCCCOZqWoKCoH6EZBWREtx4iAAAQhAAAIQgECYAMJImAb7EIBA1Ql48ywmnFYdLRFCIPMEWFEr87cAAFJAAGEkBZVIESAQdwKYZ8W9hsgfBJJHgAGO5NUZOYZAMQIII8WocA4CEKgKAa8VqUpkRAIBCEAAAhCAQOoItEtdiSgQBCAQGwL6wGEul4tNfsgIBCCQHgLMQ0tPXVKSbBNAM5Lt+qf0EIiMgLQiEkZwEIAABKIiMHz48KiiJl4IQKBGBNCM1Ag0yUAgawTQimStxikvBCAAAQhAoHICaEYqZ0YICECgGQJoRZoBxGUIQKDVBDSBndW0Wo2RCCBQdwJoRupeBWQAAukjgFYkfXVKiSAAAQhAAAJREEAzEgVV4oRAhgmgFclw5VN0CEAAAhCAQIUEEEYqBIZ3CECgeQJ8V6R5RviAAAQgAAEIQMAMYYS7AAIQqBoBvitSNZREBAEIQAACEMgEAYSRTFQzhYRA9AT8RFK0ItGzJgUIQOB3Ar7t+f0MexCAQJIIIIwkqbbIKwRiTEDr/SOIxLiCyBoEUkhAK2rhIACBZBNAGEl2/ZF7CMSCAOZZsagGMgEBCEAAAhBIHAGEkcRVGRmGQDwJoBWJZ72QKwikmUDfvn3TXDzKBoFMEEAYyUQ1U0gIREcArUh0bIkZAhBonoBMRHEQgEByCfDRw+TWHTmHQCwI8IHDWFQDmYAABCAAAQgkkgCakURWG5mGQDwI8IHDeNQDuYBAVgloAjuraWW19il3WgigGUlLTVIOCNSBAFqROkAnSQhAAAIQgECKCKAZSVFlUhQI1JIAWpFa0iYtCEAAAhCAQDoJoBlJZ71SKghETkCmEcOGDYs8HRKAAAQgAAEIQCC9BNCMpLduKRkEIiMgrQgfG4sMLxFDAAIQgAAEMkMAYSQzVU1BIVBdAnxXpLo8iQ0CEGg5ASaxt5wdISFQbwIII/WuAdKHQMII8F2RhFUY2YVAygmgpU15BVO81BNAGEl9FVNACFSPgBdE0IpUjykxQQACEIAABLJMAGEky7VP2SHQAgIIIi2ARhAIQCAyAn379o0sbiKGAASiJ4AwEj1jUoBAKgh4rUgqCkMhIACBVBEYPnx4qspDYSCQJQIs7Zul2qasEGgFAT5w2Ap4BIUABCAAAQhAoCgBNCNFsXASAhAIE5BWRMIIDgIQgEDcCGgCO6tpxa1WyA8EyieAZqR8VviEQGYJoBXJbNVTcAhAAAIQgECkBNCMRIqXyCGQfAJoRZJfh5QAAhCAAAQgEFcCaEbiWjPkCwIxIYBWJCYVQTYgAAEIQAACKSSAZiSFlUqRIFAtAmhFqkWSeCAAAQhAAAIQKEYAYaQYFc5BAAJ5AnxXJI+CHQhAAAIQgAAEqkwAYaTKQIkOAmkhwHdF0lKTlAMC6SfAilrpr2NKmF4CCCPprVtKBoFWE0Ar0mqERAABCEAAAhCAQBMEEEaagMMlCGSVgLQiCCJZrX3KDYHkEejbt2/yMk2OIQABRwBhhBsBAhBoQADzrAY4OIAABBJCYPjw4QnJKdmEAATCBBBGwjTYhwAEHAG0ItwIEIAABCAAAQjUggDCSC0okwYEEkIArUhCKopsQgACjQj8v//3/xqd4wQEIBB/Aggj8a8jcgiBmhHQBw7RitQMNwlBAAJVIqDVtHAQgEAyCSCMJLPeyDUEqk5AWhEJIzgIQAACEIAABCBQKwLtapUQ6UAAAvEmIEEkl8vFO5PkDgIQgAAEIACBVBFAM5Kq6qQwEGgZAbQiLeNGKAhAAAIQgAAEWkcAzUjr+BEaAqkggFYkFdVIISAAAQhAAAKJI4BmJHFVRoYhUF0CaEWqy5PYIACB+hDQJHZW1KoPe1KFQGsIIIy0hh5hIZASAqyglZKKpBgQgAAEIACBhBFAGElYhZFdCFSTAN8VqSZN4oIABOpJoG/fvvVMnrQhAIEWEkAYaSE4gkEg6QS8IIJWJOk1Sf4hAAFPYPjw4X6XLQQgkBACCCMJqSiyCYEoCCCIREGVOCEAAQhAAAIQKJcAwki5pPAHgRQR8FqRFBWJokAAAhBgAjv3AAQSSABhJIGVRpYh0FoCWnEGrUhrKRIeAhCIEwGtpoWDAASSRwBhJHl1Ro4h0CoC0orw0m4VQgJDAAIQgAAEIFAlAnz0sEogiQYCSSHABw6TUlPkEwIQgAAEIJB+AmhG0l/HlBACeQLSikgYwUEAAhCAAAQgAIE4EEAzEodaIA8QqBEBtCI1Ak0yEIAABCAAAQiURQDNSFmY8ASB5BNAK5L8OqQEEIBA8wS0QAcOAhBIDgGEkeTUFTmFQKsJsIJWqxESAQQgEGMCLM4R48ohaxAoQQBhpAQYTkMgTQT4rkiaapOyQAACEIAABNJDAGEkPXVJSSDQJAG0Ik3i4SIEIJACAn379rXhw4enoCQUAQLZIYAwkp26pqQZJSCtiF7QOAhAAAIQgAAEIBA3AggjcasR8gOBKhLw5lnYUVcRKlFBAAKxJsAE9lhXD5mDQCMCCCONkHACAukigHlWuuqT0kAAAqUJMPBSmg1XIBBXAggjca0Z8gWBVhLwWpFWRkNwCEAAAhCAAAQgEBkBPnoYGVoihkB9CfCBw/ryJ3UIQAACEIAABJongGakeUb4gEDiCEgrImEEBwEIQAACEIAABOJMAM1InGuHvEGghQTQirQQHMEgAAEIQAACEKgpATQjNcVNYhCIngBakegZkwIEIBBvAqyoFe/6IXcQCBNAMxKmwT4EUkAArUgKKpEiQAACLSbAilotRkdACNSFAJqRumAnUQhEQwCtSDRciRUCEIAABCAAgWgIIIxEw5VYIVA3AnxXpG7oSRgCEIgBgb59+9rw4cNjkBOyAAEIlEMAYaQcSviBQAII8F2RBFQSWYQABCAAAQhAoAGBsueM0NFpwI2DjBGIu7bBT9aMez7jctvQnsWlJshHPQhkoZ1Qm1jLctKm1ONOJs0wgVwuZ9OmTbO2bdtax44dw5ci32/ts1aWMOI7OlJ94iCQNQJ6ybT2QYuamUwS4p7HqBlUEn+tOyqV5A2/EIiSQBLas9aWXxPYay0c0Ka0ttYIn1QC1WhTyhJGPCBWqPAk2GaJQK1fapWyjXv+Ki1PrfzTntWKNOnEiQDtRXS1QZsSHVtiji+BarQpFQkj8UVBziCQXQIakRs2bFh2AVByCEAAAhCAAAQSS6BFwsgNdzxassCDdtmq5DUuQAAC1SWgEQlG41rPtFSblgui/httWusBEwMEMkSgVHsiBPSRMnQjUNSyCbRIGFHs2225gWmyTJs2bfLb4SPeKTthPEIAAq0nwAcOW89QMXRbclFba5XuDdoztW/3Pf5CdRIgFghAIDsEgn7Rtpv3btSevPDqqOwwoKQQqIBAi5b2Dd7RNmPGDJsxc+b/tjP+t509e3YFSeMVAhBoDQFpRSSM4FpPYPasWUFb9lt7FmrXgpGW1kdODBCAQF0I+MV3ap24BjJ8ezIz1J7QR6p1TZBeUgi0SDMye/YsO/PMs2zEiFfy5fz7EUda+84L5o/ZgQAEoiWAVqR6fH+dPsPOOqugTfv7kTZr9pzVS4SYIACBmhGop/mqBjeKtSft56KPVLMbgIQSRaBFwsisWbPtb3/b1/3CpR398dfhQ/YhAIGICKAVqS7Y6b9OL9qmvTzyw+omRGwQgEDqCdBHSn0VU8AqE2iRmdaswBxr8uQpNin4hbcy3cqq++STT+zll1+OvPgnnnii3XjjjRWl09K83Xnnnfb3v//dbr755orSw3P0BFjTvrqMp0+f3qg9U/sWd7MK5e/pp5+277//vrpACmLTh7R23HFHe+211wquNH0o/x988EHTnsq42tI2rIyoW+2FdrLVCCOJQN9F0/eX6uH0XBb2j3Q8MwF9pDS1Kb6/9MUXX9hmm21mn376aU1vh5a2W1lsU1okjEgF+d6n39j7wS+8lY1kGt0vv/xi+oWd7EB//fXX/Knbb7/d9ttvv/xxqR2FmxXwK3RTp07Nn5o8ebJbFCB/IthRZ0lhn332WXvnneYXCgjHV27ewuk988wztssuu9jHH39se+21l91///3hy+zXkQAraFUf/uSpvzRqz9S+zQ60wPV0EyZMaJS8BAMvJKlN6N+/f2AyO6KRv8IT4fYqfE3xeTdx4kS/m9/qutK555577L///W/+fLEd2cqH28pjjjnGrr766mJeG5wLt1f+QvhcsTZs0qRJ3mt+O2XKlPx+eKdYuXQ9nEbYf7n7tJPlksqWP73jC/tHOp4egz5SsTYl/BzErU1R3yfcZyqnTSnsL3Xq1Ml69Ohh2so5YbFI+xHm4O/YYv0xf63YNhxHsXarWJjwucy2KcHLo1kXfMMgF9inN+svjR6Cjl9unnnm0SzW3PHHH++KeO655+YWXnhhd+64447LjRo1yu3Lz5FHHlkUw4ABA3IrrbSSi2vppZfOPfHEE86fwvTp08edHzduXG7//fd3cS233HK5W265xfm56aabXHrKh35K49VXX3X+glHH3JgxY9z+Cy+8kHv77bdzG220kTteZ511cq+88orbbypvSn/LLbd0aR199NE55e/000/P9erVy53bfPPNcypnVl1gexyromf1WaxmJcStTgvLFoyo5VZddVX37C6xxBK5YFAgF3S0c3vvvbc7p3bg3nvvze2+++755/vrr78ujMYd69lff/31nT8964rrsssuc22K2qRLLrkk98ADD+TT22OPPXLffPNNLnhhu7ZG4eVP2wcffDCntiwYoHBxH3TQQblNN93U7Ss/arfkb5999sldc801+bwFgozzU/ivsL0KOkq5Rx99NJ8X5fc///lPPh61fV999ZXLg9IRm3fffTcXCEm5gQMHOn++rIGwUrRcb731lvOndnKLLbZw++Ihp3IeccQRhdl0x2lpJ+N+7xeDrzZP/ZBKnPzXsqy1TKsSDt5vsTbl/fffz+n97p8l+WmuTfF9Dz0PCif/wUBHJG2K6t33e6666qqy2pRi/SW1Ecqr2ptHHnkk339TGQLBpVG/Se1Qqf6Y4rn++usdVvWVgrlBudGjR7v4fdujvpPSkl/9SvULaVP83ZnLtUgzEsDNhNMo22mnnWbBi9WNCmpkcfz48Ra8zCx4MOzUU0+1888/3xZddFE74YQTLHgRBxP7zyzKRqMNP/74o0lSXmaZZRr4k4mF4gte5nbHHXfYG2+8YTvvvLMFnQLTiN6hhx7qTCRuu+0286OBfmRUifn9oFrt4osvdn5eeukll4+PPvqo2bztuuuu9thjj7lRwqBT4jQhI0eOtG7durk4Fl98cZcnd8C/uhKQVkTmB7h0EwgGIuzzzz93mlC1P8HL1KTyV5uk9qdnz5529tln29ChQx2IW2+91fSclnLt27e3YADEPvzwQ1Pcao/Gjh1r/fr1s6BDbgcccIAFnXMLOv721FNPOVPQYJDFtSc33HCDa3983AobbnM0aqm25+CDD7bg5WrBy959hHPddde14KXszm+99dY+eINtYXulsNLySBv78MMPWzDAYoHw0aANU1llbiEN8WKLLWYnnXSS3XXXXaYRRYXROTnls1i5lFc5MTn55JMtEK7soYcecum89957tt1227nrhf9oJwuJxPs4EA7incEa565Ym6Lnfdlll7Wg42w///yzBQMIzbYp/tlfbbXVXH9Gz+Pzzz9f9TZFz3ggjNgFF1zgnvFrr73WWWs01abomS/WX/LPvLbBYLItv/zyJlPn1Vdf3dRHKtYOFeuPea2Hj09VqH3PRO/mu+++29T/Ut+tuX4hbcrvDwHCyO8sGu3NNddcdvjhh1swcmg77LCDBSOPNuecc1q7du0sGIVzL0AFkkpQ6j+d79y5c6N4/ImtttrK9JPttW5WhZNTGjKJ0ss0kKxtrbXWyr/877vvPidc7Lnnnu6lGUjiPrr8NqzCfPzxx2377bd3nRXZaytcc3nzL181RJ999pnttNNOtsgii+QFH3WAJHDh6ktAgogcL9n61kMtUt92221toYUWso033tiuuOIK1+7MP//89u233zphVIMFMh/w7c3cc89tbduWbs5lQiqb6U022cRefPHFfBH0ElY7JMFEbZw6GLq/ZA4qQUBOgoEEomLOzxPUC11x7Lvvvq6NU0ci0Oy4PKnN7NChQ7HgVtheBaOs1rVrV9cJ0YtcTmZf4TZMc2QkNKgsX375pRvkUXuqfEuwUDnkfJ4Ky+UuBv/OO+88107utttu9u9//9sNBgUab3fO+wlvaSfDNNhPGoFibYraGA1ABpYRrjh615fbpgSj/a7fEmguLNCW5HFUq03x833UdqktUH9GfTK1c6XaFLULGrBtqr8UaHPdoIvaC7UbaluKtUPF+mMaKA4734fz5zSAvOGGG7pDCXfhdsv7CW9pU36nUfrt9bufzO798MMPThPy3HPP2b/+9S+TYCDNhbQbuon14g07vTQlmZdygfmBG93UViOI/gWtG1ZON7FGBfVAqYGQ08tVTiOGehglLMjNN998bhuYYZkmO3m33nrruZFNjaJKqLnxt8nuTeVNDZLSCcwTLDDtcqMGCqsG5s0333Tprr322j4JtnUkIE0dLv0E9KxLCNCIZWCKZP/85z/dc65257vvvnPPaZiCH7ELnwvvq+1Su6IRTK9ZU8dbTqOE6lBIOyDNiRbi0It6jTXWcNf1olab5d2CCy7oNDV6MXuBZamllnJxBGZc7py0v4HpgguiOSfhkUQfj7aF7ZW0MMcee6wbCb3uuuvCXp1QovZVQkhgTuUmxksTfeCBB7r2VCOdmteiNlque/fuRcvlI+3YsaPb9R2xwETVBg0aVFKoo5305NgmkUCxNuWiiy6ylVde2bUNKpMf4dd+c22KnjUNWqjzL02tXDXbFA1myKnvIw2wBkp8/6pUm6Jn3ocJ95fcyd/+qU+j9lRtl7TMahsL2yH1m4r1x9QvUhlff/11N3gcmMiHo7Y55pijwbEO6Hs1QlL8RPCSaNZlec5IoEaTTt/9NK9CdsiyE9S5Nddc020DASIXTPB2+8GLsShP2WXKvlnhtA1e8M6fjr39YWDGlZO9tvcTqCWdn+DBcedkOxk8CM7+MBiRzAXqSHfe23MHHY1c8ELO23frfGAC1mzelEigWnRxBUKXS1PzUHx+lWYw0unOZ/Ff0DGre7EDdXVm521FAT8OddpUuQKhI2/XrOcveCE7G2S1AWofNJ9E+4F2JD+/QnMpijn5922WbJo1Z0TzRBSvd8GARn6+R6BJyGn+SfDiz7dHfv6K5owEmpW8X8WruRdyajsUp9ILzEzdnJNgNRt3HAgIPqkG22LtlZ8X49u1wEyjQRsWaEPcfDalo/JoXpzaObWdYuLbZbEpVq6gM+LyFGhO8nnx7a7mkzTl0tBOxv3eL8Zf7V+lc0YUTy3LWsu0ijFq7lyxNiUQ+N2zoOdWz7L6KYFA0mSb4ueh+jYlsPRwc0aq3aYEFh+5QCvi8qdn3fdNmmtTivWX/JwRzT/T/DDFp5/amGCAt2i/qVR/LFiQw7UzYqb2JhgQyQUmoy4+zcFROMWtPl5z/ULVGW3K/+7cNtoE4Jp0GnGSyiyro7IyP9AoWpcuXRwnIQsmN9kCCyzQgJukda02o9HHsJNqUSN+moOhkQhpRGTSVcpJvSezi7CUrdEHhZN6MuxkqqH427RpEz7tzDlkO+3PK28y55IdZKGTqjB4qApPu1ESjcLKZCucl0YeU35CIyTBi7CupVQ9lvGo1jWPSUo8DnXaHC+NAgYTye2Pf/xj/jnWKJtMo8LPq0YzZV6hdvqnn35qEG3v3r2dhkDagqCj4UygGngIHej+0ko7XuvqL6mtm3feeRtoDJQ35cNrdb1fmS0ojuBF7U+Z2h7N7whe1Plz2pH2RBpiOZmfhdsrza9T++rbL/lRPDr2Gg3lS6ZrcjLd0kinzF01j08jtjKrlStVLncx+CdmweIkJi2z5uaobLKDL3RpaSeTcO8Xsvdz5YIOf+GlJo9rWdZaptVkoZu4WKxN0fOqPoTmUHnXVJuivolMH/V8qR2SWWUpV+rZq6RNUX9I/Q+l611zbUqp/pIPr36TfoXm54XtkPwX648pffFqqh/n05LfUv1Cb1Lq/fqt+Cep71WNe790j9hTYdvgxSoceiEWCiI6rxezbm5vBqFzcrphtTSuhBlvj/m/K8X/F3u4w52PcKjwAxo+XziZVXlTw1CYN4Up7FD4eGSbWRiPv8a2dgT0Ig5GBmuXICnFgoDaDb+IhM+QOuK+M+7P6TlV+yATgsLle2VSJcFAYYq1Kz4ObdWuFQoiOu87/Nr3Tnkr9iLWgElYEJF/tS9a3KPwfLjtKmxnlO9CV9hOhfO1yiqr2JAhQ+zSSy91Qo2f2K84SpXLxx9opt1gg0w35NTxoZ30dJK/lZBeqRCT/FIXL0GxNkUDDYWuqTZFpkl6luWnFm1KsTSaa1NK9Zd8OdX2hNsff76wHdL5Uun7MM1tlddS/cJSYbPY90IYKXU3tPC8hA3ZTxc6b8dceL6Wx3opF8tbLfNAWpUTkCAiQRIHgaYIFHuRyn/UH0RsKk/+moScYoKOv97arbQqTz75ZIui0RwV/byjnfQkkr9FCGldHRZrU9SHyEKb0jpyDUOX6hc29JXtIyawZ7v+KX3MCaAViXkFkT0IQAACEIAABFpFAI4jz2wAAB01SURBVM1Iq/ARGALREkArEi1fYocABNJLQOZ2mu+KhiS9dUzJ0kEAzUg66pFSpJAAWpEUVipFggAEIAABCECgAQGEkQY4OIBAvAhkdQW7eNUCuYEABJJKQBPYcRCAQLwJlG2mpY/xaaUSHASyRkDL8tXaSSuCi46AVoShPYuOLzHHl0Dhh9rim9PW50zmWbVqS2lTWl9fxJBMAtVoU8oSRrRcpJZKK7ayQmvR6avAWtu91HrLrY2f8BBoLYFaf2PFj+ShFWltzZUOr+/1RNGeKUV1fqi70uy5Ul8Chd+qqm9u0pM6bUp66jKpJdGqm/p+ivos5XxGolrlrEabUpYwooRWXnnlSAQG3/FCGKnWbUE81SYQfPm12lE2GV+WPzDaJJgqXlxooYUiac+URd0vtGdVrCyiqiqBWrdnVc18jCOjTYlx5WQka/pYoj4oqQ8yFvs+SlQYqtGmMGckqtohXgi0gECtTApakDWCQAACEIAABCAAgaoTQBipOlIihEDrCGDi0zp+hIYABCAAAQhAIDkEEEaSU1fkNOUE0IqkvIIpHgQgUBcC3hy8LomTKAQg0CyBsuaMNBsLHiAAgVYR0MtSv2HDhrUqHgJDAAIQgMDvBPjg4e8s2INAXAmgGYlrzZCvTBGQVgRBJFNVTmEhAAEIQAACEAgIIIxwG0CgzgQkiDB6V+dKIHkIQCCVBPr27ZvKclEoCKSJQKuEkVtuucW2335799tnn33s/vvvN61z/MYbb7hzP/74ozs+/fTTbccdd7RPP/20LuxOPPFEu/HGGytK+5NPPrGXX365ZJinn37aDjrooEbX99xzT3vhhRcanedEcgnIfKqp+Rwff/yxPfbYY/af//yn4kJuuOGGLgyT1itGV/UAb775Zr4922mnnezqq6+2iRMn2pQpU9x5/1zfe++97lh1Xg9366232jHHHFNR0lryUW3W999/X1G4Yp5fe+01++CDD4pdqtm5iy++2C6//PIG6X322We2yy672A8//NDgPAcQ0HLp9XBpblO0hKzalOnTpzeLdtq0aa4PqLbj7LPPNvUJa+2aa7fUh33uuecaZIs2pQGOSA9aJYzoY4X33Xef+waJPrSy3Xbb2SuvvGL6YrXO6wY85ZRT3AfAdG2ZZZZpUWFmzpxps2bNahR26tSp+XNKX4JQ2OkhUdhnn33W3nnnnfClovvh+G6//Xbbb7/9ivrTSQlWt912m+klrw6LdxLQvvrqK3/INgUEvNaiTZs2jYQS3ScnnHCCjRo1yv75z3/aBRdcUFaJJdxIEJEQgiBSFrLIPX333Xeu3VpsscVs4YUXtgMOOMCuuOIK00df1Z598803TujUN0TkZ4sttmhxnhRnoVNbpZ/cjBkz7JdffmngRe2b2lR9KPaJJ55ocK3YQbg9U7z9+/e3ESNGFPOaP6c2s7CtVdhwfiUISVDzTteVr7BTXsPp+2vFyqVrikO/cp3eMxosUn59OhMmTLA777wzf1xuXPiDQFQE6t2m+GdD5Sv27LWmTVGfSm1KuP9TjKPaBj3b99xzj+sbdu/e3ZZbbrm8V7Vzxdq6wnMK0Fxa+UiDHaUZFpQK262wX+0rfxI+1Jf0bVHS2pTCPnBhGeN83CphRAXTS1sdK3XM5Z588km31T9JwPrdcccdppHGSt3WW2/tBJ3555/f3bw+bnUKN9hgA1t00UVt/PjxrtOgL8SvsMIKplFDuZtvvtmWXHJJU1g/iifJWGE//PBD17HQ/osvvugElY033tjmmmsuW3fddd0LWx1EvfSPOuqoktmeNGmSrbjiiu7jMvvuu28Df2eccYZ16dLFNDKCSz4B3Q/+QfdCiUbMb7jhBnfPSSC5/vrr3b321ltvNSqwn6AuAcRrQzRHxAs6jQJwom4EjjjiCBs6dKh70T744IP5fDz11FO21VZb2aGHHuoET90HlbghQ4bYIossYssvv7zpA2lecN12221trbXWcm2VXvBqM5dYYgnXtp500klOOHj11Vdt7bXXdl/VlWDknfKge1BOgz0KqzZx7733du2ZzimsRv3kttlmGxszZozbL/yndnzBBRe0+eabLy9snHfeefaHP/zBOnbsaMcff7xde+21TvMrzYQ0RFdddZW7rq/9em2Nz6tvT3v06OGSKlaucNmvvPJK1z6//fbbpk6cyiZteyknwUof5FU6au+9UwdEgqI+1CsWuGwTUBur9reertZtip4d30dSuYs9e/451bPr25RSfaRibYrv06nvVMzpfan+k+Jff/31817UpvrnWhoS9SE7derkBvXkSXlRX07nfL9KYVZbbTXX15L1ybfffmul8rrbbrvl+41qzx544IFG7VY+MwU7atfUl1S/MTyATZtSACqCw1YLI2PHjrXDDjvMvbiVv3DnSi8XOb1EW+IkncrUS6PPeqmeeeaZ+WhkbqAXoV6IEnZkGrbzzjvbHnvs4aRndRhkGiYhSUKDnLQY3vl9PTC6AeXnpZdecpc/+ugj92BIeg+n6cOGt+pgHHvssXbdddflRw/VKf3HP/7h8q1OBi7ZBPQi80KE9nWPDx482DbaaCNr166dazR9CdVxU0fQ+/dbbyYgoUZCCNoQTyx+Wz27MveR8LHZZpvlM+hNPXv37u06yvkLZe5I46D2Uu3FgQceaMcdd5xrq9QWydRPwoDavJNPPtkuueQS166dc845TtsswUUvZ2kENFoXdl5I1jntP/LII+5lr/z37NnTCcsSruQ0WLP44ou7/fA/aXp1TysdCUASOiRsS7BWO3vqqafa+eef74SxXr162cEHH2ybbLKJK4fC3XTTTXbRRRc5/8rzHHPM4TTSP/30kxOm3n///aLlCpdd7bU6AtL6+MUcNPJaymkEU4JLnz59XH69P7HVIJA4SLDCQaDeBGrdpqi8vo9U6tkr1qb4fpHC+/1SbYr6PHLq7BdzshZQ30qDJXq2vVMbp5/aF70HNVAirYS0rzqntkXPtJ5ftQOywJGWWu9bmUKrXVNb7POneP2+8ioNkPqNakfU/5J2W/1C325pkLuU69atW97cOjwQRZtSilj1zrdaGFFWdGNJ8pW9nW4Y7yT16uWy6667NlCX+evlbDUSqZ9uZgkLXu12+OGHuw7DM88849LWTedveEnWEi4kQQ8YMMCWXnrpRkmFTREef/xxZwOuF7ekbYXTi18dTUn1pZzKtuWWW5of+fN583aH6pjikk9AwocaRf20L6d9jSzpPvKaNzWm0qZJQPb+/VaNrsL68C4S/sWSgF5sMsNSPUpw8E7tmF6SMt/8/PPP/emKthoF1Gjf3/72NxdOnWk5deyPPPJIGzlypDuWKZjaFrUxuodkmy0tgtpZbYs53/6oTVRb1q9fP5PZqAQR347NPffc1rZt20bBvbCssknLp3awffv2rg0cOHCg3XXXXS6M2Ci8NBI+79KYiJPKJq2L2j+x0rtA5ZJ7/vnn3TZcLj9a7cuu8Lvvvrs99NBDrsOhDoS0HqWcJiavuuqqrsMRNunw7a+0UDgIxIFAPdoU30cq9uyV06aE+0jF2hS1JXKyACnm/By7vfbaK6+ZDfvTs608auBF7cLXX39tX375pRuwURupfp+fZ6xBHPmRdkTvUJneh104rzovPxI+1lhjDdOAiNor32516NAhHLTBvvqLSkNWNbQpDdBEftD4rVRhknqBSPI866yz8uYnPgqNEOtl+Prrr7u5I/58JdtHH33UNJlcW3UE/I0kYUFOI89S16sT6CV03VBykqz1UpUdoJwfJdPoomyLvVtvvfXcy0/pSKiR1C2nm1GCVqVOKtGVVlrJaYzCo5aVxoP/+BDwczzUAVJDrsZOTh03aQbVidN9p45b2B7WeeJfoghIGyqNp+a5+U68CqD6VXsmp862RuAqdXqpquPvzSLWXHNNF4V/sesFKvfwww+7F64GVWRuIeFCAolGOcMLa6j9VfuqzoI3v9ILWEKNhIVBgwY1WGgjbEPuEvrtnzr1cmozJbzohSxts7TSGgTy5hK/eXdzRHzeNZFcnQMt6KFzEkI0GqqRSQ30yBUrl9pzOV927Uu7rfZcmhZpp5pyEpaKOWnKxVkmZjgIxIFAPdoU30cq9uyValNK9ZFa0qYojJzaAPXfCp0WmpD5lwYP/vWvf7k2UYKDBmCklZAwI4sY9cF0ToMUMrFX+6f3b6m8Kh0NJBdzmr/SVJ+MNqUYtRqdCyqmWRd0vnKBKr6Rv2BELBe8DBudD16kmkmeCyZyu2v777+/Ow7Ua438lopbHjfffPNcYDvtwmob3NQuvOIOTKHcfqCOywUjaHk/gXmBOx9MJnbngpvY5TEYdcwFnYdcYL7lzgfCgtsGowa5YIQu54+1DdSbucCm0V0P1HMuvsJ/wcOTU9xy3m/QcXBhghd4TmVVPgOziMKgHCeMgOpR92lTLtCO5FT/uGQQCF5mjTIavDDdMxsMSjS4Frwg3fmgk+vO6/nWPREsztHAnz8oFreuBWZOrs1Qm6nwgTmTC/LXv/7VtWE+fGAS5fypffHtVvDCzreFgbDr2iv5DyaS5+OU/6DTkwtGGF3bqTR0Lhh8yQUjs7lA4HDp+nbZp6dtMLKYCwRqd13h1L4FL+5coFV25wIhw20DQSEXrE7o9sXjwgsvdGkoTGAf7uIJhJhcIGi4dlfhA22OS6pYuQrLHnQ8XDjlO9A0hrPYYD8YJc0FAqE7F9jj59ZZZ51cYJrl8hWMrrq6UZ4C87cG4TjI5Urdn3Fmo/5Hc21wU/mvRZmLpVGvNkX3vu8jiUuxZ69Ym1Kqj1SsTfniiy/cs69nvJjTs+z7Zr7tCYSMXDDgkAsG7VwQPcPKq36BJtj10dT2+DZSftV2BYPHObV78qdnX/kplddw26D2U22XXLjdcicK/qnNueaaa9xZ9QMDc9XEtSliHgh5ucCUt6B00R4Wu/crTbGNAgQV3KSTOl2jeVHYuTcVtyYhyoZPtsjScMgOuZSTraFGAsImCBoFlKRbKO1KOtaEzMIJqLIzXGCBBfLnZXYj9aryWOg0Qh4eNS287o81eho2XfPn2SaHgLRvwYswORkmp80SiLJOi8WtZjbouJvm0WlOmkYD1QaVcjK5UtsT9qMRQrVJhaZLOqeRwML2UaOOwQs2P0qo+KTtldakcFUaaUZkVqp2VG2oH1VVvqWdKTTFCKepNk5mEj6vo0ePdqOZGn2VyWsgKJhMNeSKlcszkKYk6OBYIKC4NlPmaDKBLDSJUz69JseHLbWV5kgLBuB+J1Ds/vz9ajz3pJnWOzfo9LQogyqzN5VtUQRlBIqSa7G49SxdeumlkbQppfpIhW2K2iT9NLfs559/bkDJtylqa0qZhyqA4pTFS7hdU5uiOWFe+yF/aot0Tm1a2JXKa9iP31e7JdMvmYOFXSVtihYt0sT4ODq1w+KpPm/Xrl1rlsVi92eliRfXZVUaS0T+BVMvQXX6/QTMiJJqMlq9oAudXpKFwkyhHx3rAUIYKUaGcxDIDgEJAmrHNNghocEv7lEPAhJICm2sNUm0lGlDpXmUHbjmkGgrE5Gjjz66LDNdCSNaeET23TJ9VBzqlPi5MD4fWuVGwlw5TpNVEUbKIZVuPy0VYuJMRZ3wrLQp1ayH1rYpMlkNrHaqmSXiCgjEWhiR7a933sbaH7OFAAQgkBQCEkAOOeQQ91Oe096eSZMdduWWN2xbXm6YcDrsQyArBDRYm6U2JSv1mtVytnoCe1bBUW4IQAACEIAABOJPQCZeOAhAIL4EEEbiWzfkDAIQgAAEIACBKhDwy1dXISqigAAEqkwAYaTKQIkOAhCAAAQgAAEIQAACECiPAMJIeZzwBQEIQAACEIBAAgloAnuxVTETWBSyDIFUEih7AntUD3JU8aaytigUBCBQNQJaLjQqF2XcUeWZeLNBgHdudPUc5XMfZdzRESHmWhLwy7dreXa/1Hot0q9Gm1K2MKKRhSgngUUZdy0qgzTSS6AaD1p66SS3ZFG1Obpfooo7ubTJeVwIpHGZ27iwjeq5p02JSw3HOx8SRvRdKC3THv5uS9S5rkabUrYwosJUI8FiUDSxLKq4i6XHOQhUQoARqUpoJcdvVG2O7peo4k4OXXIaVwK0Z9HVTFTPPW1KdHWWppjr9dHDarQpzBlJ051IWSAAAQhAAAIQgAAEIJAgAggjCaossgoBCEAAAhCAQMsIYHLbMm6EgkDUBBBGoiZM/BCAAAQgAAEI1JXAaaedVtf0SRwCEChNAGGkNBuuQAACEIAABCCQEgLVsG1PCQqKAYFYEUAYiVV1kBkIQAACEIAABKpNIKrJ5dXOJ/FBIIsEEEayWOuUGQIQgAAEIJAxAhJImDeSsUqnuIkggDCSiGoikxCAQC0I3HfffbbLLrs0+H300Ud21FFH5ZN/+eWXbd9997UJEybkz9ViZ+rUqXbCCSeUnZTy98UXX5T0f9555zW6fv7559vYsWNLhuECBJJMQPNGKjXVeuaZZ+z++++3r7/+umjRJdxsuOGGRa/p5BlnnNGgPTnssMNc20GbUhIZFzJIAGEkg5VOkSEAgeIE3n//fVtsscXs6KOPzv86depkDz30kAsgQWTgwIFOGJl33nmLR9LKs7lcrmgMv/76q+mbTE25cNjXXnvNLrjggpLeX331VZs4cWKD6y+++KJNnjy5wTkOIJAmAhJIJDyUI5SceOKJJmHk888/t/3228/texZeCFE8TU2Of+6552zzzTfPtyeKR88ybYonyRYCZggj3AUQgAAEQgSWXHJJW3vttfO/Dh06uKteEHn88cdt/fXXD4Uob/fyyy+3rbfe2pZffnm31Ujrhx9+aP369bOVV17ZJBxIW/HnP//ZdZbeeOMN0xd1L774YhdGGhvvVlttNb9ra621ltt/4IEHXJ4V15NPPuk6SPfee689++yzeb+FO8cdd5wts8wyduSRR9q0adPyl5944gnbYostbMqUKflz7EAgDQRkqjVs2DBXFAkS+kmwKHR33323denSxc4991wnSOg5vPbaa51fL8xICFFczc1HWWmllfLtyaqrrppPKoo25dZbb7Udd9zRFllkEZdOOW3KO++8YwcddJDz/8knn9igQYPcPm1KvqrYiZgAwkjEgIkeAhBIFgF1MNRB1++QQw5xmf/ss8+cRkSCybLLLtuiAo0bN84WWGAB++CDD2zddde1m266yWbOnGkjRoxwo6Rzzz2369i89dZbduaZZ7qf9h999FF7++23beedd86nq5Fa78aMGWP68u4pp5xid911lxNE1IlQJ2v77be3jTfe2HtttO3Vq5d9/PHHTihSGnIPPvigi+vmm2+2ueaaq1EYTkCgHgSa6/BXmic953379nXBpHHU8yIhw/9kXrXCCivko11xxRVtxCsj3HUvvITD5D0W2dlyyy3zbYqEBbmo2hQNIHz33XeunXn33XfLalOmT59uP/30k8uX2qQffviBNsXR4F+tCCCM1Io06UAAAokgMHjwYNdBVyf9sssuy+dZHZatttrKZPPdUqfOT5s2bWybbbbJayw22GADJ+DInKN///4255xzWs+ePU3H6vRsttlm1rFjx5JChTQaGtns1q2bi0eanauuuqqsLCrutm3burDeZEsjqTJNm2+++cqKA08QiJqA7/xXOx0JOBJK/E9aDv+78MIL3TPo05SAv/seu5tMIdVGKE8K7/17f8W2jzzySL5N2X333fNeompT1L7o+W1JmzJjxgyXP9qUfDWxUwMCsRZGNGFTP7nx48e7raT2SZMmuX3+QQACEKg2AQkL6qDrp325pZde2o2Sag7GSy+9ZHfccUeLkh05cqTrzMgEq0ePHi4OpSMn8yx1AOQ0otm7d29bY401bNSoUe6cv+YOgn+yO1d8ag+lxZHJl9pHmX8dfPDBzlt4DokPF95K8Cl0zz//vC288MJlCzSF4TmGQBoIaGBAJpUyV9x1112d8KH5HnISXvyzpTZCGpKmnG9P/LMuv3FqU6Tx9ZoRCVlytCkOA/9qRKBdjdJpUTKy0dQDrxVk5p9/fpPE/sorr9g//vEPNxrRokgJBAEIQKAEAXUsvABSzItMqW6//XbbdNNNnTDxpz/9qZi3kufuvPNO16nRJPEXXnjBDbL4DkqfPn3siiuuyAsp0lBIYBk6dKgz65pjjjmc6YQiV5so23NpTOaZZx5n2y4BZL311nNpn3POObbUUkuZVgeT/fhfghHcYq5YWdu3b2+XXnqpm8cyYMAAk6YFB4F6EVBHv9T9G3WeDj30UNtrr73s559/tiWWWKJRcl6j0pQwoue72HPmI6t2myItjE+v3DZFQpc0Kdp27drVDUZovgxtiq8ltlETaBN09osv3RJKWZKy1Il68Krtooy72nklvmwSkA2xVPG49BCIsk5LxS0bdI2GasK65o54IaSQqkYodT3stNzuggsu2CCMbMML53TonAQUCS5y0izL/rvw/lW4HXbYIZwE+xkhEL4/fSe62LtdWjYJs5qfpAnYWnyhHi6c33qkX26aUeazVNzVblM0SCLhKOyKtSmjR4+29957L+zNmYhKm4urHwHNHZQVkQaUJFTWypW6PytJP9aakUoKgl8IQAACcSYgDYbmYiy00EJNZrNQEJFnmU0VukJBRNcLz3Xu3Nml5yfq+jjataPp9yyyvJUQIoGkmFBy8sknu3tHGjjNPdAcKi15XSungUrlq5igVKs8xD2darcphYKIyl+sTenevXujdqxY2LjzI3/xIcAbKT51QU4gAIEUEzjiiCPqUjoJJDLZwkGgkIA6/F5QVcdfxzKJUidXo6zHHHOMC6J5E9LoyYwn6k6nrDB8Pgo1eoX5z/pxvdoUmXSxwEXW777qlh9hpLo8iQ0CEIAABCCQCALq+HsnIURCgFaK0mIK4aWk5UdmhdKQRGn+IcFIP7QhvlbYQiAbBBBGslHPlBICEIAABCDQgIDv9EsIkWZEAom0Ed9++63tscceblnpVVZZxX0HR9/ZGDJkSIPwHEAAAhCoBgGEkWpQJA4IQAACEIBAwggUCiE++4svvrjTkOgDfVoqWpqSWs4X8flgCwEIZIMAwkg26plSQgACEIAABBoRKDUvQ8vC6oeDAAQgEDWBtlEnQPwQgAAEskRApi44CCSBAPdqEmrJnPlcMnJKLiHQMgJ114yoMaRBbFnlEQoCEIgfAW+HH7+ckSMIQCCJBGhTklhr5LkSAmhGKqGFXwhAAAIQgAAEIAABCECgagQQRqqGkoggAAEIQAACEIAABCAAgUoIIIxUQgu/EIAABCAAAQhAAAIQgEDVCCCMVA0lEUEAAhCAAAQgAAEIQAAClRBAGKmEFn4hAAEIQAACEIAABCAAgaoRQBipGkoiggAEIAABCEAAAhCAAAQqIVD20r76Uqt+OAhkjQBLT6ezxjfccMN0FoxSQQACdSFAm1IX7CT6G4FcLmczZ860Nm3aWLt2ZXfvY8GvTZD5XCxyQiYgAAEIQAACEIAABCAAgYoJzJo1y8aPH2/t27e3rl27Vhy+ngEw06onfdKGAAQgAAEIQAACEIBAhgkgjGS48ik6BCAAAQhAAAIQgAAE6kkAYaSe9EkbAhCAAAQgAAEIQAACGSaAMJLhyqfoEIAABCAAAQhAAAIQqCcBhJF60idtCEAAAhCAAAQgAAEIZJgAwkiGK5+iQwACEIAABCAAAQhAoJ4EEEbqSZ+0IQABCEAAAhCAAAQgkGECCCMZrnyKDgEIQAACEIAABCAAgXoSQBipJ33ShgAEIAABCEAAAhCAQIYJIIxkuPIpOgQgAAEIQAACEIAABOpJAGGknvRJGwIQgAAEIAABCEAAAhkmgDCS4cqn6BCAAAQgAAEIQAAC/7/9OqgBAABBADj6lzaGY1wC5XhB4FPAGPnUd5sAAQIECBAgQIDAsIAxMly+6AQIECBAgAABAv0CSWpDGCO11XmcAAECBAgQIECAQLfAAQEI6NvS+ZNnAAAAAElFTkSuQmCC;" vertex="1" parent="MFDmtG4y0ROqI6nAq0eG-81">
          <mxGeometry x="53" y="19.86000000000007" width="391.89" height="300.14" as="geometry" />
        </mxCell>
        <mxCell id="MFDmtG4y0ROqI6nAq0eG-88" value="" style="group" parent="1" vertex="1" connectable="0">
          <mxGeometry x="412.16999999999996" y="344" width="104.35" height="130" as="geometry" />
        </mxCell>
        <mxCell id="MFDmtG4y0ROqI6nAq0eG-86" value="" style="shape=singleArrow;whiteSpace=wrap;html=1;arrowWidth=0.425;arrowSize=0.55;" parent="MFDmtG4y0ROqI6nAq0eG-88" vertex="1">
          <mxGeometry x="4.350000000000023" y="50" width="100" height="80" as="geometry" />
        </mxCell>
        <mxCell id="MFDmtG4y0ROqI6nAq0eG-89" value="" style="group" parent="1" vertex="1" connectable="0">
          <mxGeometry x="684" y="336" width="104.35" height="130" as="geometry" />
        </mxCell>
        <mxCell id="MFDmtG4y0ROqI6nAq0eG-90" value="" style="shape=image;verticalLabelPosition=bottom;labelBackgroundColor=default;verticalAlign=top;aspect=fixed;imageAspect=0;image=https://seeklogo.com/images/D/dbt-logo-E4B0ED72A2-seeklogo.com.png;" parent="MFDmtG4y0ROqI6nAq0eG-89" vertex="1">
          <mxGeometry width="104.35" height="40" as="geometry" />
        </mxCell>
        <mxCell id="MFDmtG4y0ROqI6nAq0eG-91" value="" style="shape=singleArrow;whiteSpace=wrap;html=1;arrowWidth=0.425;arrowSize=0.55;" parent="MFDmtG4y0ROqI6nAq0eG-89" vertex="1">
          <mxGeometry x="4.350000000000023" y="50" width="100" height="80" as="geometry" />
        </mxCell>
        <mxCell id="MFDmtG4y0ROqI6nAq0eG-92" value="" style="group" parent="1" vertex="1" connectable="0">
          <mxGeometry x="954" y="334" width="104.35" height="130" as="geometry" />
        </mxCell>
        <mxCell id="MFDmtG4y0ROqI6nAq0eG-93" value="" style="shape=image;verticalLabelPosition=bottom;labelBackgroundColor=default;verticalAlign=top;aspect=fixed;imageAspect=0;image=https://seeklogo.com/images/D/dbt-logo-E4B0ED72A2-seeklogo.com.png;" parent="MFDmtG4y0ROqI6nAq0eG-92" vertex="1">
          <mxGeometry width="104.35" height="40" as="geometry" />
        </mxCell>
        <mxCell id="MFDmtG4y0ROqI6nAq0eG-94" value="" style="shape=singleArrow;whiteSpace=wrap;html=1;arrowWidth=0.425;arrowSize=0.55;" parent="MFDmtG4y0ROqI6nAq0eG-92" vertex="1">
          <mxGeometry x="4.350000000000023" y="50" width="100" height="80" as="geometry" />
        </mxCell>
        <mxCell id="MFDmtG4y0ROqI6nAq0eG-95" value="" style="group" parent="1" vertex="1" connectable="0">
          <mxGeometry x="1568" y="318" width="104.35" height="130" as="geometry" />
        </mxCell>
        <mxCell id="MFDmtG4y0ROqI6nAq0eG-96" value="" style="shape=image;verticalLabelPosition=bottom;labelBackgroundColor=default;verticalAlign=top;aspect=fixed;imageAspect=0;image=https://seeklogo.com/images/D/dbt-logo-E4B0ED72A2-seeklogo.com.png;" parent="MFDmtG4y0ROqI6nAq0eG-95" vertex="1">
          <mxGeometry width="104.35" height="40" as="geometry" />
        </mxCell>
        <mxCell id="MFDmtG4y0ROqI6nAq0eG-97" value="" style="shape=singleArrow;whiteSpace=wrap;html=1;arrowWidth=0.425;arrowSize=0.55;" parent="MFDmtG4y0ROqI6nAq0eG-95" vertex="1">
          <mxGeometry x="4.350000000000023" y="50" width="100" height="80" as="geometry" />
        </mxCell>
      </root>
    </mxGraphModel>
  </diagram>
</mxfile>
